/* XPM */
static char *result[] = {
/* columns rows colors chars-per-pixel */
"64 64 217 2 ",
"   c #241D1B",
".  c #2E2C1F",
"X  c #322D1D",
"o  c #34331B",
"O  c #353B1C",
"+  c #373617",
"@  c #2E2B21",
"#  c #332E23",
"$  c #353124",
"%  c #3B3425",
"&  c #3E3925",
"*  c #373228",
"=  c #3D3629",
"-  c #3E3929",
";  c #2E3123",
":  c #413625",
">  c #423A26",
",  c #483E27",
"<  c #443C2A",
"1  c #493F2A",
"2  c #4B3C32",
"3  c #3C451C",
"4  c #3B4518",
"5  c #494B1C",
"6  c #45551D",
"7  c #4D571C",
"8  c #535F19",
"9  c #527A07",
"0  c #4C6B19",
"q  c #5C6A14",
"w  c #5B6617",
"e  c #4D7319",
"r  c #4F791B",
"t  c #4D7815",
"y  c #53721B",
"u  c #527B1A",
"i  c #567B16",
"p  c #6C7B1A",
"a  c #677818",
"s  c #45402C",
"d  c #4B422D",
"f  c #4A4725",
"g  c #51472F",
"h  c #504D24",
"j  c #555727",
"k  c #4D4531",
"l  c #474030",
"z  c #504733",
"x  c #544B34",
"c  c #584F35",
"v  c #564F39",
"b  c #565233",
"n  c #5A5236",
"m  c #575039",
"M  c #5C533A",
"N  c #5E583B",
"B  c #5B5C33",
"V  c #4E5922",
"C  c #61563C",
"Z  c #635A3E",
"A  c #695E3F",
"S  c #5A6728",
"D  c #646828",
"F  c #627D24",
"G  c #697925",
"H  c #696A38",
"J  c #6B7436",
"K  c #7A7A33",
"L  c #777F24",
"P  c #5D5040",
"I  c #655C41",
"U  c #695E42",
"Y  c #625242",
"T  c #6D6243",
"R  c #6C6346",
"E  c #716645",
"W  c #746947",
"Q  c #726749",
"!  c #756A4A",
"~  c #7A6E4C",
"^  c #796C47",
"/  c #7E724D",
"(  c #7D7252",
")  c #82744E",
"_  c #847A4D",
"`  c #857B47",
"'  c #837551",
"]  c #857953",
"[  c #8A7C55",
"{  c #867B59",
"}  c #8B7E5A",
"|  c #598419",
" . c #618D0C",
".. c #66920D",
"X. c #648B15",
"o. c #6C8B18",
"O. c #678816",
"+. c #738317",
"@. c #738B1B",
"#. c #7B8C1A",
"$. c #768719",
"%. c #6B9513",
"&. c #6E9916",
"*. c #699419",
"=. c #719614",
"-. c #7E9417",
";. c #749A16",
":. c #72951B",
">. c #7C9419",
",. c #739D1B",
"<. c #7C9C1A",
"1. c #7B9915",
"2. c #76A21E",
"3. c #7CA31E",
"4. c #5E8922",
"5. c #6C8D22",
"6. c #698427",
"7. c #7A8726",
"8. c #6C9B24",
"9. c #6E9523",
"0. c #779625",
"q. c #73843A",
"w. c #789A33",
"e. c #7AA522",
"r. c #7EAA26",
"t. c #77A320",
"y. c #7EB231",
"u. c #77AB30",
"i. c #829615",
"p. c #849B14",
"a. c #899E15",
"s. c #87991A",
"d. c #82A11C",
"f. c #89A317",
"g. c #90AC1E",
"h. c #879D20",
"j. c #899629",
"k. c #85873D",
"l. c #948C3B",
"z. c #899836",
"x. c #929A3D",
"c. c #8C952B",
"v. c #83AA24",
"b. c #83AE2B",
"n. c #85A623",
"m. c #85B02D",
"M. c #86B937",
"N. c #89A530",
"B. c #888848",
"V. c #8B9443",
"C. c #899644",
"Z. c #949744",
"A. c #939B46",
"S. c #94994A",
"D. c #9A9A4C",
"F. c #8E8552",
"G. c #8C8C55",
"H. c #8E815B",
"J. c #8C885B",
"K. c #92845D",
"L. c #95885F",
"P. c #928B55",
"I. c #8E9252",
"U. c #869055",
"Y. c #9A9954",
"T. c #9B9A5B",
"R. c #969556",
"E. c #AA8F55",
"W. c #A49757",
"Q. c #A79450",
"!. c #97A445",
"~. c #9BA158",
"^. c #8E8360",
"/. c #948761",
"(. c #968A62",
"). c #9A8D65",
"_. c #9C8F6A",
"`. c #988968",
"'. c #9C9365",
"]. c #9F9A62",
"[. c #9E926A",
"{. c #9B9566",
"}. c #9F8E73",
"|. c #9E9270",
" X c #A19B63",
".X c #A2956D",
"XX c #A49A6D",
"oX c #A39671",
"OX c #A69A72",
"+X c #A99D75",
"@X c #AA9E79",
"#X c #A69878",
"$X c #B09F79",
"%X c #B29661",
"&X c #ACA176",
"*X c #AEA17A",
"=X c #B1A37D",
"-X c #B3A87F",
";X c #AAA56B",
":X c #C7996C",
">X c #CA9B70",
",X c #D4B07B",
"<X c #AEA280",
"1X c #B2A481",
"2X c #B5AA84",
"3X c #B9AD87",
"4X c #BAAE89",
"5X c #BDB28B",
"6X c #BFB591",
"7X c #DFAF82",
"8X c #C2B68F",
"9X c #C2B691",
"0X c #C5B995",
"qX c #CABE9A",
"wX c #C8BB97",
"eX c #CDC19E",
"rX c #CEC1A0",
/* pixels */
"OXOXOXOX).I # $ Z K.2XqX@XOXOXOXOXOXOXOXOXOXOXOXOX+XL.N < ] OX0X4X4X3X2X*X@X+XOXOXOXOXOXOXXX+XOXC d } *XqX1XOXOXOXOXOXOXOXOXOXOX",
"OXOXOXOXOX] < $ E (.9X1X.XOXOXOXOXOXOXOXOX{.OXOXOX+XOXU d _ 5X0X@X@X@X+X+XOXOXOXOXOXOXOXOXOXOX+XU d [.5XOX.XOXOXOXOXOXOX+XOXOXOX",
"OXOXOXOX+X/.M # E ).3X@XOX+XOXOXOX&XOXOXOXOXOXOXOXOX+XQ > ] 3X=X.XoXOXOXOXOXOXOXOXOXOXOXOXOXOX+XU d OX@XOXOXOXOXOXOXOXOXOXOXOXOX",
"OXOXOXOX+X_.I # A (.@XOX*X=X=X+XOXOXOXOXOXOXOXOXOXOX+XR % / =X=XoXXXOX+X$X@XOXOXOXOXOXOXOXOXOXXXI k oXOXOX+X&XOXOXOXOXOXOXOXOXOX",
"+XOXOXOX@X`.U # I } OXOXOX@X+XOXOX|.&X|.OXOXOXOXOX+X).C $ ~ +X+XOX@X$X=X=X=XOXOXOXOXXXOXOX.X+X'.m d .XOXOX+X+XOXOX.XOXOXOXXXOXXX",
".XOXOXOX+XK.H . n _ H.OX+X+X+X+XOX&XOX&X+XOXOX+XOXK.' n . ! +XOX@X=X$X=X=X@X+XOX+X+X+X+X+X+XOX} s < (.@X+XOXOXOX+X+XOX+X+X+X+X@X",
"~ E T T I Z s # * C W ! ( H.K./.(.`._._._.[._.(.] ) E % # s ] ).).).L.L.K.K.K.K././.(._._.(.} C % & T J.`.[..X.X[._._.`.`.`.`.(.",
"- * $ # $ $ > s > % - & % % & & % & = - - < 1 d k z = * - * < z g g g g g g g d s s 2 s k k d % s 1 & s d d d d d k k < < > - & ",
"$ $ $ $ % % % % & % % % % % % % - % , < & * X @ @ # * - - < s < > : % % % $ % $ : , : $ $ $ $ > : : : : % $ % : * % $ % % : , < ",
"z N A T R E E E T T Z C N n c c z > % - * & c C U Q ! / / / / / ) ) ~ ^ E Z C c < % * c T W ~ ~ ~ ~ ^ ~ ) ) ' ' [ ] ' ^ T c = % ",
") [ } ] ] ] [ [ } H.K.(.)..X.X.X[.' < # & ! K.+X8X3X2X*X&XOXXX[..X.X.X.X.X.X.X).' k > ) [.3X9X4X=X*X+XOXOX#X+X$X+X+X+X+XK.) 2 # ",
"OX4X3X2X2X=X@X@X+X+X+X+XOXOX.XOXOX.XM . Z H.2XeX4X*X#XOXOX+XOXOXOX+XOXOXOXOXOXOX.X! < ] 2X9X@XOXOXOXOXOXOXOXOXXXOXOXOXOX.X{ v @ ",
"9X0X@X=X=X$X+XOXOXOXOXOXOXOXOX.XOXXXC # ~ OX5XOX.XOXOXOXOXOXOXOXOXOXOX.X.XOXOXOX+X[ s ( 3X&X.XOXOXOXOXOXOXOXOXOXOXOXOXOX#X} C # ",
"8X@X.XOXoXXXOXOXOXOXOXOXOXOXOX.XOXOXI - ' *XOXOXOXOXOXOXOXOXOXOXOXOXOXOXOXOXOXOX@X/.d / OX*XOXOXOXOXOXOXOXOXOXOXOXOXOXOX+X/.Z $ ",
"2X1X.X+X$XOXXXXXOXOXOXOXOXOXOXOXOXOXI > [ +XOXOX+X+XOXOXOXOXOXOXOXOXOXOXOXOXOXOX@X/.k ^ (.@XOXOXOX+X#X+XOXOXOXOXOXOXOXXX+X).U $ ",
"@X+X+X=X=X=X$X$XOXOXOXOXOXOXOXOX+X_.n > [ OXOXXX=X@XOXOXOXOXOXOXOXOXOXOXOXOXOXOX+X} 2 ! ' OXOXoXOX*X*X+XOXOXOXOXXXOX_..X+XK.T % ",
"+XOX=X=X=X=X+X+X+X+X+XOXOXOXOXOXOX} z - [ OXOXOXOXOXOXOXOXOXOXOXoXOXOXOXOXOXOX+X.X~ $ C ' { oX+X+X+X+XOXOX+X+X+X+XOXOXOX`.) A % ",
"K..X.X.X[.).).'.).'.'.[..XXXXX.X} ^ % * R '.&X&X&X&X+X&X+X#X@X@X+X+X+X+X@XOXOX).[ C # $ C ^ ' { K.} } } [ K.K.L.).(.L.} ) [ C # ",
"d z z x n N C I Z Y Z C N N N N c - ; $ % b m P R Q ~ { } H.H.H.} { { { ( W A M z * # - $ > 1 1 1 d d g g x x c n M n M M x : # ",
"@ # # # $ # # # # # X $ % % * % : > < < < - - - % $ $ * $ % - - d d d d d d d k d d k d < : = % % $ % , < % # * $ % % o % : % # ",
"^ ~ ~ ^ W W 1 * % $ C ~ ] } K.K.K.K.[ [ ] [ _ ] ) ) ~ ^ C % X c ~ ] (.`.).(./.J.H.F.] ' ) ) ~ ^ W T < % * < c N c x x x x c C U ",
"@X+XOXOX(.] U # * Y } @X0X9X8X1X=X&X@XOXOXOXOXOX.XOXXX.X(.Q : W (.0X0X4X2X=X+XOXOXOXOXOX.XOXOXOX.X.X~ X c ' H.[.OXOXOXOX.X.XOXOX",
"OXOXOXOX@X/.E $ 1 ' $XqX3XOXXXOX.XOXOXOXOXOXOX+XOXOX+XOX+XL.g E +XqXOX+X+XOXXXOXOXOXOXOXOXOX+XOXOX@X/.> ~ ).6XeX4X=X@X#XOXOXOXOX",
"OXOXOXOX+X.XW $ c `.8X@X.XOXOXOXOXOXOXOXOXOXOXXXOXOXOXOX+X.XC T *X=X.XOXOXOXOXOXOXOXOXOXOXOXOXOXOX+X/.d } 5X5XOX.XOXOXOXOXOXOX.X",
"OXOXOXOXOXOX! # Z .X+XOXOXOXOXOXOXOXOXOXOXOXOXOXOXOXOXOXOXOXZ Z &X@XOX+X+XOXOXOXOXOXOXOXOXOXOXOXOX+X} g _.2XoXOX+XOXOXOXOX.XOXOX",
"OXOXOXOXOXOXR # E .XOXOX+X@XOXOXOXOXOXOXOXOXOXOXOXOXOXOXOXOXU C [.+X=X=X=X=XOXOXOXOXOXOXOXOXOXOXOX@X' x _.+XOXOXOXOXOXOXOXOXOXOX",
"OXOXOXXXOX.XZ # E .X+XOX+X$XOXOXOXOXOXOXOX.XOXOXOXOXOXOX+X.XC c /.+X*X*X*X+XOXOXOXOXOXOXOXOXOXOXOX+XR z (.+XOXOX=X+XOXOXOXOXOXOX",
"OXOX+X+XOXH.M # T _.+XOXOXOXOXOX.XOXOXOXOX.XOXOXOXOX+X+XOX[ c : ' (.OXOXOXOXOX+X+X+X+XOXOXOX#XOX+X/.z k [ .X+X+X+XOXOXOXOXXXOXOX",
"+X+XOX[.H.( k # k ' [.OX+X+X@X@X@X+X@X+X+X+X&X+X+XOX.X(.) T > # x ) [ } H.H.K.K./.`.)..X.XXXOXOX(.W * % W [ .X+X@X@X$X$X@X@X&X=X",
"Q U N c z k % % # > c M I I U R R E R U T U I I N m g d - $ > , , g x c N C A A T U A A A A U Z N > % % g C C U E ! ~ ' ' ( ~ / ",
"& & % % & - 1 d d , > : % * o $ o $ $ # $ $ * $ # $ % : : , d d , , > : & : : > > > > > > > : % > , g d , > : : : : % o $ % $ # ",
"# # # $ # # # o % : % % % & < : % = : % * % $ < k k < > & & > > % $ % $ * * = $ * * # # * $ * % $ * % > > s d z d d z x f > < < ",
"k d k k z c M C R R ! ! ~ / ( / H > # * * $ N / } (.(.H.' ' ~ / ) ) ] { } ' ^ U % # z T T I E T A U E ^ ) ' [ } } K.L.} ) > 1 ) ",
"&X2X*X&X&X+X+X+X+X+X&X&X&X+XOXOX[./ < * $ M [ .X0X6X5X2X+XOXOXOX#XOX@X+X+X+X_.[ x : ' (.+X@XOXOXOX.XOX.XXXXXOXOX+X+X+X+X).c z ' ",
"9X2X&X@XOXOXOXOX|.OXOXOXOX|.OXOXOXOXQ * * T (.9X4X|.OX.XOXOXOXOXOX.XOXOXOXOX+X_.C d } 3XeX4X3X2X2X@X+XOXOXOXOXOXXXOXXXOXXXC z ' ",
"XX[.OXOXOXOXOXOXOXOXOXOXOXOXOXOXOXOXH.s $ ^ [.6X+XOX+XOXOXOXOXOXOXOXOXOXOXOXOXOXZ d } 9X=X.XoXOXOXOXOXOXOXOXOXOXOXOXOXOXOXC x ] ",
"OXOXOXOXOXOXOXOXOXOXOXXXOXOXOXOXOX@XK.n $ E [.*X+X+X*X&XOXOXOXOXOXOXOXOXOX.XOX+XU < ] 3X=XOXOXOXOXOXOXOXOXOXOXOXOXOXOXOXOXC x ' ",
"OX&X*XOXOXXXOXXXOXOXOXOXOXOXOXOXOX#X} I o T (.@XOX@X=X*XOXOXOXOXOXOXOXOXOXXXOXOXC % ' @X@XOX=X=X@X@X+XOXOXOXOXOXOXOXOXOX.Xc c ' ",
"+X&X+X+X+X+XOX+X+X+XOXOXOX+X+XOX+X_.) T @ R ] [.@XOX+XOXXXOXOXOXOXXXXXOXXX+XoX} v # ' +XOX=X=X=X=X$X@XOXOXOXOXXXXXOXOX#XK.1 x ' ",
"L.).(.(.(.).).(.).)._.'.[.)._.(.K.' ' c @ g ) ] (.XXOXOX&X+XOX&X+X@X@X+XOX).] / 1 @ U  X+X@X=X+XOXXXXXOX+XXX+X+X+X$X$X).~ : g ' ",
"z d s s s s d k z z x m m x b m m N x % & $ s N A T ~ ( ' ' ] ] ] ' ' ~ ! T R z * % % C ! W E E E W R W E W Q ! ^ ^ Q I < # * n ",
"$ $ % % % = = % % % & $ $ $ $ % $ # $ - f & % $ & & & % * % % $ % % $ * $ $ % % , d , $ % o * % $ % % % % % $ $ $ $ $ # % < > $ ",
"< < < - > g d d < = % o $ $ $ % * % - - j < , < : & % s s , $ $ $ $ $ $ $ $ $ * $ # $ % % : % : , s % % * $ * $ # # * % : > , % ",
"$ $ $ $ o $ 1 : $ < z x M N N Z T E ! ~ ^ k.~ / ^ E x % > $ z C N n C n n n n n n N n n x x x z & % x M I ~ { { { { { ' { { ' / ",
"} } } ] U % * $ s ) (.*X5X5X-XoX[._.)._. XZ.)..XXXF.) k @ N H.J.L.L.K.K.(.(.(._..X.XOXOX+XT.'.L.M 1 ] K.=XwX0X4X2X=X*X+XOXOXOX+X",
"@X+X@X+X.XZ X $ Z K.;X5X*XXX+X#XOXOX@XOX@XD.R.|.OX XK.C % / +XwX4X4X3X2X=X*X@X+X+XOXOX+XD.B.OXOXZ d ] 1XqX1XOXOXOXOXOXOXOXOXOXOX",
"+XOXOXOXOX{ 1 $ R ).4X!.V.{.OXOXOXOXOXXXOX].c._.oXT.[.U - ' 6X5XOX+X+XOXOXOXOXOXOX.X+XY.c._.+XOXI d [.5XOX.XOXOXOXOXOXOXOX{.OX.X",
"OX#XOXOX+XP.c # T _.4X&Xj.Y.|.OXOXOXOX]..X+Xc.I.|.Y.].R & ' 4X&X.XOXOXOXOXOXOXOXOXOXXXj.P.oXOXOXI d OX@XOXOXOXOXOXOXOXOXXXT.OXOX",
"OXOXOX+X|.4.m $ E ).&X+XA.j. XoX+X#XT.T.OX#Xx.z.}.S.W.I % / *X&XOX=X=X$XOX XOXXXOX#XA.j.[.OXOXOXN k .XOXOX+X@XOXOXOXOX+X[.S.|.OX",
"OXOXOX@XU.r B - T [ OX~.~.x.V._.OX XV.|.OX#XT.s._.Z.B.P # ~ +X].W.1X=X=X=XXXY..XoXOXh.k.oXU.{.oXk d [.+XOX+X+XOXOXOXOXOX].C.|.OX",
"OXI.B.}.q.| B 3 J ~ _ z.R. Xj.'.#Xx.C.#X+X+XOXs.G.k.K v o E  XOX!.&X$X$X$X+XA.Z.oX].s.P._.u J.} - s L.OX+X+X+X#XOX X+X@XR.z.|.&X",
"( B.4.H F | O S 6 I / 0.` } h.F.G.j.B.{..X_.L.s.L K j.B > f B.`.C.I./.L./.P.G.c.B.` s.J.J t J M # % R K.(._._..XT.T.'. XN.q.^.w.",
"Y W 8.4.4.0 4 6.& # < e.G < 7.D G D D H Y H J L #.w.G   5 8 $ : S G 2 k 2 D b f p w 7.X y | 6 @ * # s < s k 1 k J b x b 8.w.6.7 ",
". o w.8.y e e 9.O   3 0.$.+ q w @.3 4 w   y + 5 n.g.q 7 a #.q q +.5.w q w 5.q 0 | +.p 4 r u 6 . o O V o o o + 4 F + O 4 o.r.5.  ",
"=.-.<.8.r u 0 :.:.a :.5.+.#.p i.-.6.a o.p =.p <.b.i.p.f.s.i.a.a.f.3.f.f.f.n.a.g.9.O.a.>.u r O.s.o.a n.<.-.-.-.n.d.i.p.,.&.%.N.6.",
"=.3.2. .| 9 9 ,.f.p.f.n.c.i.p.i.i.f.v.&.1.-.s.b.d.i.i.i.i.i.i.i.<.2.-.-.t.<.-.<.u.e :.o.r r O.1.i i 3.2...&.%.r.,.%.%.&.&.&.2.m.",
"t.t.&.........2.,.*.2.!.,Xx.%.;.&.%.e.,.*.=.<.b.=.=.;.<.=.=.=.=.=.e.%.,.2.%.%.%.M.4.r | u u *.| e | &.r.&.&.8.r.t.t.e.e.e.e.e.y.",
"e.2.&.&.%.%.%.,.t.=.2.z.!.j...&.&.%.;.v.%.%.e.r.%.%.t.,.%.%.%.%.%.t.2.e.2.;.,.%.m.y.r | r | | e 0 0.t.r.b.e.v.b.e.e.e.e.e.e.t.v.",
"e.e.e.e.2.2.2.,.e.,.e.&.....%.%.%.*.%.r.,.%.v.t...&.r.&.&.;.,.,.2.e.e.e.e.e.e.e.t.M.4.r t 6.Y.E.Q.N.t.v.b.e.r.b.t.e.e.e.e.r.r.b.",
"v.r.r.e.e.e.e.e.e.e.e.r.e.2.2.2.,.,.:.e.r.,.m.t.,.r.v.t.e.e.r.e.e.e.e.e.e.e.e.e.t.y.y.r e E.7X,X:X%Xe.t.b.r.r.r.e.e.v.v.b.b.m.m.",
"m.m.b.b.r.r.r.e.e.e.e.2.2.2.e.r.e.e.e.r.b.r.m.e.r.m.e.e.e.e.e.e.e.e.e.e.e.e.e.e.e.t.,.*.i E.:X>X:XE.:.3.r.b.b.b.b.m.m.m.b.b.b.m.",
"m.b.b.m.b.m.m.m.m.b.v.r.r.r.r.e.e.e.e.e.b.b.b.r.b.r.t.e.e.e.e.e.e.e.e.e.e.e.e.e.e.e.:.&.%.*.j.l.x.1.2.b.m.b.b.m.b.b.b.m.b.m.b.b.",
"m.b.b.m.m.b.b.m.m.b.m.m.m.m.m.b.b.b.b.b.b.b.m.m.m.r.v.r.r.r.r.r.r.r.r.r.r.r.r.b.b.r.m.b.v.v.r.r.r.m.m.m.m.b.b.m.b.b.m.b.b.m.m.b.",
"b.b.m.b.b.m.b.b.m.b.m.b.b.m.b.m.b.b.b.b.b.b.b.b.m.m.m.m.m.m.m.m.m.m.m.m.m.m.m.m.m.b.b.b.m.m.m.m.m.b.m.m.b.m.b.b.m.b.b.b.m.b.b.m."
};
