/* XPM */
static char *_637e2597c5b4e46f8201d04debca650JGA3bwIV89CtUHaS[] = {
/* columns rows colors chars-per-pixel */
"64 64 133 2 ",
"   c #233F04",
".  c #2C3F04",
"X  c #333E03",
"o  c #264106",
"O  c #2D4404",
"+  c #274B06",
"@  c #2D4B06",
"#  c #2D4709",
"$  c #274C08",
"%  c #2D4B09",
"&  c #334504",
"*  c #3A4604",
"=  c #354B06",
"-  c #3A4C06",
";  c #354708",
":  c #3A4708",
">  c #344C09",
",  c #3A4E09",
"<  c #2C5007",
"1  c #2D510A",
"2  c #335106",
"3  c #3B5206",
"4  c #3B5907",
"5  c #35530B",
"6  c #3B540B",
"7  c #35590D",
"8  c #3C5A0D",
"9  c #335411",
"0  c #3C5611",
"q  c #355B11",
"w  c #3C5C12",
"e  c #3F5F18",
"r  c #33640E",
"t  c #3E610E",
"y  c #376014",
"u  c #3C6213",
"i  c #3E6815",
"p  c #3D6319",
"a  c #3F6C1A",
"s  c #404701",
"d  c #434E04",
"f  c #424F0C",
"g  c #425306",
"h  c #485707",
"j  c #405807",
"k  c #42550B",
"l  c #495509",
"z  c #425B0D",
"x  c #4A5C0C",
"c  c #425712",
"v  c #435D12",
"b  c #4A5E13",
"n  c #435E1A",
"m  c #495F1A",
"M  c #43610E",
"N  c #4A630E",
"B  c #52630D",
"V  c #436313",
"C  c #4A6413",
"Z  c #446A15",
"A  c #4C6B15",
"S  c #44651A",
"D  c #4B6619",
"F  c #456B1A",
"G  c #4B6C1A",
"H  c #516614",
"J  c #526B14",
"K  c #586917",
"L  c #53671C",
"P  c #526C1A",
"I  c #5A6F1A",
"U  c #467115",
"Y  c #4D7116",
"T  c #43721B",
"R  c #4D721C",
"E  c #4E781D",
"W  c #517016",
"Q  c #5A7515",
"!  c #53731B",
"~  c #5A741C",
"^  c #54791C",
"/  c #5B7B1D",
"(  c #64771E",
")  c #4D6D23",
"_  c #4D7324",
"`  c #4E7A21",
"'  c #537422",
"]  c #5E7622",
"[  c #547B23",
"{  c #5B7B23",
"}  c #557B29",
"|  c #5B7D2C",
" . c #617F25",
".. c #687E24",
"X. c #607529",
"o. c #647D2C",
"O. c #6A7D28",
"+. c #697F34",
"@. c #59831E",
"#. c #5C8623",
"$. c #52812E",
"%. c #5D832A",
"&. c #5D8F2E",
"*. c #5F8434",
"=. c #638220",
"-. c #6C8325",
";. c #638A26",
":. c #63802E",
">. c #6C872B",
",. c #628A2B",
"<. c #6E902E",
"1. c #72912B",
"2. c #7B992E",
"3. c #658431",
"4. c #6B8233",
"5. c #618D33",
"6. c #6A8E35",
"7. c #6C8339",
"8. c #668C3B",
"9. c #6F883F",
"0. c #728631",
"q. c #768A32",
"w. c #6C903F",
"e. c #7D9E33",
"r. c #71913C",
"t. c #79973C",
"y. c #70A03B",
"u. c #6A8640",
"i. c #6F9643",
"p. c #789047",
"a. c #829437",
"s. c #8CA443",
"d. c #93B050",
/* pixels */
"+ t / Z 5 8 u 6 w G / M ' Z 8 n w 2 1 2 3 4 j j z 6 2 5 8 u @ w 1 2 @ 2 1 2 r 8 V 5 Z / { C 6 > q C 4 = = 5 5 $ + # 5 % # % % 1 ",
"7 Y W M M 3 4 3 6 Z A Z V Z V 6 2 = = 2 3 - 4 4 6 V 2 & 5 t u 2 > # O @ @ O 5 6 V z 4 C M z 2 = { ! % 5 A 5 9 # 7 1 1 1 $ q q u ",
"r t Z @.t 2 5 w 8 = 5 5 > 8 w = w S = 3 3 3 3 3 - 8 V 3 8 V 8 @ + @ = = > 5 5 2 5 V 8 M A k 3 , A w # Z ^ 1 7 1 Z 5 5 5 < 7 V F ",
"4 t M 4 6 2 t u 6 5 u 4 5 w 6 5 w v & = 6 b z 6 8 8 8 7 4 6 w r 7 8 @ = & > 6 5 6 6 8 3 6 j k - - 5 1 Z V % T a % % 9 % 5 t 1 $ ",
"< t Z 2 2 8 u 6 & O M 8 5 w Z z 6 - 3 3 = 3 Z 8 7 i 7 2 = > V 7 7 7 & = & - 4 - 3 k b = 3 j 3 l j 4 5 A F 9 E 1 9 # > 5 5 1 w $ ",
"7 4 y 5 O 5 q 7 9 = A 4 M 3 - 6 8 6 C 3 6 3 V w 7 7 2 t 7 = 2 < 2 = = 5 & 8 n 3 & J P = 3 A 3 z N V M 2 w.i.+ 3.)   % 8 5 = 8 & ",
"1 2 7 5 M #.6 5 > = 8 6 3 j 8 ! j 8 w 3 5 6 3 8 A 6.' %.7 7 7 5 = = 8 q w 6 6 C j k 6 = 3 N z Z C 6 8 8 Z i.' d.0 o w Z 5 w A w ",
"< 2 @ 2 ^ @.O O O ; z - 2 2 2 M z 8 6 8 3 ! R b - ! 5.F a u 1 p 2 = 7 q 5 w v 6 6 j 3 = k v 5 z J z 3 V u 8 G _ F 0 G v 8 F w 6 ",
"2 4 u 2 5 Z 2 2 O O / C C - & 3 w 5 6 3 3 w F 5 6 C q q T a 7 7 2 3 8 Z V V S j 6 C k - V z 6 3 - 5 - 3 u 3 5 7 _ ` 5 5 v > 0 5 ",
"Y t 8 t 2 1 7 7 A P ^ ! Y M = - 3 v 3 = 5 6 Z 6 w & S i _ w 2 7 6 3 3 M V 8 6 z 4 z 6 - = 8 v - V 6 , 3 , V 8 S 9 q q } a.0 # # ",
"#.w & 5 F 7 2 w W @.A z N z - - z Z & 5 G z Z > 6 5 A _ p u t 8 8 g 5 = 3 j 6 3 5 3 6 z 8 3 3 6 5 = = = - n 5 P S 9 & > ] v # 9 ",
"t 5 2 M G y F 5 = M C 6 Q A - g 3 0 > V Y S 4 A 6 5 6 , w i 8 6 6 3 x 6 N V 3 8 5 3 3 v V 6 C S 3 & 6 b 3 b 5 > 5 5 G 5 % S % 9 ",
"- V 5 5 # 9 F 3 M ~ z 3 = 6 - - 6 5 , 6 v > G ,.> > , = 8 } _ 8 4 g g =.C M C t , 5 5 , V A 8 - n 3 D Z z z k > w 5 F w 0 p ) 9 ",
"6 4 @ & O 1 _ 3 z 8 v > = 3 , - 3 8 , 6 P 5 ! { v 3 : z v Z u 6 h g * N W Z U 6 e n 5 > = , & O 6 6 G 3 6 v D 5 5 u 5 5 q 0 G 8 ",
"2 ; S u 7 e { j z 6 w 6 0 6 V , v 3 z 5 C { u [ ! > - Z z | ! , N x z N N M C t 3 Z 8 & & & > & v S 9 , k 8 t V 0 e 0 e 5 w 5 5 ",
"2 5 ) u p w z ' ! 5 # 0 0 , 8 - w z - w q V u ` 6 ; 5 8 0 C D 3 ~ J C H t M z Y M 6 V % > 5 5 b > 5 = 5 c - A R 6 - = 6 A R 5 5 ",
"q 9 > % q 8 ! 0 6 6 2 + 5 v 3 , , 0 , & w y 8 q G F 3 5 3 c 3 b z l z h x 3 : j 6 > & 1 5 9 8 8 > 9 5 > 3 > q w z ~ = k 6 ; & 5 ",
"> > 3 C A 8 C z 6 6 6 > v v ' 6 ; > , 5 S , 6 > n S , > , , , j z 6 6 6 3 3 6 , 6 z 5 > 5 5 > O & & 7 5 2 _ G 5 M z = 3 5 5 - = ",
"Z 8 , , V v 8 w 8 6 6 6 3 > P , , 6 : = : 6 3 A w ; : , , , & , : 3 6 8 6 6 6 3 3 k 5 > w 5 w 5 9 > G Z % Z ! u 5 C V 3 V Z 8 6 ",
": : 6 > - C 8 > 6 v 3 = 6 3 5 , 5 , , ; : 3 , 6 6 > } v = , - , - , 6 5 5 3 > , 3 > 5 % 9 # V F F R 1.2 % 7 6 q 6 C >.u w 8 v 5 ",
"- - M A z C 6 Z Y 8 , , , 6 6 , 6 n 5 : > , v : > & v v ; , - , , = w M 5 z 3 - , > , > 5 w 8 u F Z F u 5 q G 8 3 5 8 z 6 w A A ",
"A 6 2 W ! 8 Y #.S 6 - , , , 0 6 6 v , , , 3 , , , , , , > , 3 , > 5 8 W w 6 > , : 5 > , 5 > 5 > 9 2 8 7 5 5 8 8 > 6 C 8 8 3 - V ",
"N M 3 h / A U M | 8.v , m , , 6 0 5 , 0 3 v = 3 , 3 , , k , , > = 5 2 5 5 u w > > 5 6 3 % % o 2 6 Z R 2 3 6 6 5 5 5  .4.- 6 8 , ",
"N h x A J A C [ n S w , 6 c , , - , 6 , m w 6 0 9 & , I k ; , z 5 2 2 1 2 5 q & > ; > > > & # 2 Z 5 [ V 8 6 5 8 8 5 v D 3 5 u w ",
"z h B A z N 3 n G n > > , 6 , 0 k - - d k 3 0 v 6 w 6 6 = 6 , / V @ 2 1 1 q q q 6 5 y $ 5 > & > v V Z V t V V 8 C M z 4 4 4 2 8 ",
"4 j h h x z k 3 5 : 0 > k k , , - w c , 3 - > 8 8 / , - - c V P M ! ' w 1 7 y y u a u q w w > 6 6 ^ A 4 6 D o.M M M N 3 3 - 7 y ",
"4 4 j g d Z Z u z A 5 * f , - 7 5 n 6 6 7 w n 6 8 j : - l x x j 6 Z 6 5 & > q q 5 1 > w i 5 8 w u Z 8 6 3 = 8 w 8 t M x j z 2 2 ",
"j 3 3 N } S 8 8 6 C 6 & 5 5 8 8 u G V V 8 7 = , 5 P ..l l x C z j , > & > 7 q y w 6 e w w 5 8 6 4 t 3 5 = @ 5 6 4 7 z j j 4 - t ",
"6 3 j V S F S 5 V % 1 5 5 2 5 G T [ [ 7 7 5 8 3 3 k K l l l H ! k k : k V E V > 6 > 8 5 0 0 6 0 6 5 5 > = 2 5 5 = 4 3 2 6 ! C 8 ",
"V 8 3 z z } A w 5 8 5 7 5 5 w 4 w [ E y 5 7 4 V 6 k k d x x d =.~ X - 3 3 w 3 z & & w C , 6 3 6 6 8 z 8 - 2 = 3 = = 2 4 4 z M 5 ",
"t 5 8 t A Z 6 z 8 j 3 5 5 & = F q S w u [ 7 5 8 v l H b z l : C 2., & * - , = 6 ; ; 5 v 6 5 0 , - z C t z 8 = 2 = 3 j N j 8 2 8 ",
"4 4 8 t 8 8 5 4 4 = = 9 = S 7 Z &.7 7 F 8 = 6 5 j C C q.z , V k P k , k > V C k > > : , , 6 w 8 - 6 6 5 6 3 3 - 2 = A x j 4 4 = ",
"t 7 4 8 4 4 3 v w > & > & w u # ` q _ 9 9 e , 6 V C 6 D z : d - 3 & n A , 3 6 > , ; > ; > > , , k w 8 8 w 3 5 2 = 6 M 3 N Z 5 u ",
"7 2 < 2 8 8 w u Z 8 S 8 5 & w ' q p ` w w , 5 6 ! H c : v k : , 6 > & - > * ; O & ; ; ; & > , 5 e Z M 8 8 = 5 = , , t M 4 Z t i ",
"r 4 2 < 8 w p F w 8 8 > w 7 ! P e u V 9 u > > , l f c 6 k b - , , 5 , - c , ; ] +.m , & , 8 5 5 w 8 5 5 3 8 w , 3 3 V U t 4 t y ",
"7 2 < @ 5 8 A 0 8 8 6 u w = 5 O 8 w 5 > 9 2 & > v 6 : V 3 & d : 5 , : P X.c 0 +.m - - 8 6 C 4 w 9 6 w - - 3 y 4 2 4 t 8 7 M i 7 ",
"7 1 1 q @ w Z & 3 8 F e 3 0 3 k  .6 > , > > * ; w w , 6 : , , f - : , 3 : : : : , , - z 6 6 , 6 u > M 6 = 5 5 y 8 8 7 5 5 8 8 q ",
"9 q 7 a 2 8 > > 0 # > > = 6 0 6 k = , , , 0 ; X X , , 6 X : c * : , : 5 c : 0 5 d , , : = > > 5 w 5 R U 7 7 > 6 4 7 5 4 4 @ t 7 ",
"q 7 < 7 8 / @ O n 0 w & w w 6 3 - , - , : 6 9 > ; 9 m w - 0 c X * - e u 5 > w 6 C l f , 6 6 > & 2 u u r 5 6 u 8 8 5 = 2 = & = M ",
"7 i < + 7 5 ! O.z C C 6 w > 8 M z * , , , , m ; n 0 X , ) k * * & & & F 8 6 > I / * , v v v , A v 5 7 7 w Z 4 A V 8 6 6 2 = 5 8 ",
"+ @ 8 5 + 6 A ( C z b x l , 6 W 3 * t 8 C > F 5 v , X : ; , : & = ) ) w w 9 8 ] k * g b 6 - A %.A 5 5 w q 1 & A V t 8 V 8 7 < @ ",
"@ 5 G w w - - 3 x k v , : , 6 j 3 4 T V V 8 u S F > ; X X * = , w S z w V 6 5 5 - - , 3 5 > 6 - 6 w u Z F u q V Z y 8 8 q & 4 2 ",
"7 $ O O u 3 g x v - , , - , - x V 8 Z @ n Z & w 0 = > > ; & & ; > 6 6 w w 5 5 3 3 3 = , & > l l l G e @ q q p S w 6 8 4 4 & @ 4 ",
"< + = O ~ A z , , 6 6 , 3 , 3 C u Z W b C v > e 5 > : * 9 5 > k & z 9 Z C 6 z M 3 3 6 - = 6 j x l P %.> % ) p w 8 z 6 y = W Z 2 ",
"5 q w w s.Q 3 k c c 6 , - = 6 z Z 5 C e.8 8 ;.5 ; - : & 9 & & v ( & H -.g z z z x 6 N 3 - 8 V - k V } , n w 9 9 5 u w 7 & z U 8 ",
"q w y w P L I , c 6 , 6 5 & , x j Z u Z V E A . 3 V , > 6 5 & & R Z Z 4 v k h J C j M - , , , 6 b 3 v c w n > : & w 5 6 A Z 7 7 ",
"> > 7 t C x l k 3 , > , 6 , - N H z V F w u F v > : , 0 > w 3 Z u u u i 6 6 C H z 6 b z j 6 > , , , , > : : , , ; > # Z #.u 5 q ",
"6 z A C C H l z z s , & , , - 3 z = ^ C > 5 a G S > e ; & > S Z 7 w 2 Z V - g - - 6 z z - = b - , , > c ) , > > ; 5 2 u 5 w @ 9 ",
"3 d C z d x x x x l d - 6 = , V 6 v 6 3 5 w p 9 9 e p p F > # > ~ t 4 < w 0 w A j x V - , 5 b 3 k , & n c : > V 0 & & 5 5 6 = 7 ",
"5 * * l g s x C x l v - k , , - , z , 3 > 9 w > 9 > w e > 5 > 6 M 2 2 2 4 5 3 , k z 3 6 6 - 3 , * ; 6 , * > , , 5 0 8 w 6 V 5 q ",
"2 P N C - N ;.H h d b f f H z - , A 3 , > ; > ; w 0 0 9 , C 8 & < 2 8 5 V b 2 5 w Z j C z - k A C , 6 b 6 , > * , , 5 6 6 5 = @ ",
"2 C y.! C #.! 3 Z 3 l c f , D b v ] - 6 , , > 5 5 ) , ; 6 V > , = * 3 7 3 ~ 8 S 5 > J b 3 - - , #.U 5 z ! m : , 5 & ; O & , w 5 ",
"8 & ! R A Z G i.D 5 , f : s f , ' C : , , > > ; > 0 - & = - 3 & & - 3 3 - R V v > > - : , , ' 3.u Z V C C ) , 6 3 ; & v e ' u u ",
"5 Q Q M N Y e c G m , : , c , m C , , , > c v , , 0 - - * : & , b 6 v 6 6 8 G S & > , 3 6 5 6 8 R C V C b 6 - k - V Z p.u.= D u ",
"z J J C V z U w P ,.k > , b c b 5 0 , : - c v , , , , : - > 8 w ` [ 5 S G w 5 > O & 5 5 5 > = S [ M z 3 z 3 3 , v D 8 u.7.& 0 5 ",
"2 3 M k - - 8 5 6 R w , m L , , 0 > & > v 6 , v , c , & - 5 ! C 7 8 % _ F y > ; & ; > 2 % & > 3 3 V - j k : - z o.) > 3 5 3 8 2 ",
"> 2 - & - 3 5 A C > , 6 : : > ; & > > , 6 , , , , k - 6 - 6 t z C ^ Y q 5 @ O O . . 7 w > 5 G C b k , = , k 6 6 & 0 t.{ 5 { V + ",
"6 = 3 > 6 j @ C C > 6 , 9 S O 9 5 u O > = > & , P z j z j H J = G V 6 # q S 5 p # w > 0 : 6 ~ J k G > = 6 6 w > > D | v 6 n = > ",
"$ 1 1 1 1 < w +   > & & = [ _ Z _ u > e v V , , J ~ 3 z A <.R 5 5 ~ Z F = [ Z S S F & 3 , ; c -.S > 5 > 0 6 5 3 2 @ 5 7 2 8 G 7 ",
"+ 2 2 5 7 7 5 2 # > M A = S R F R y S w w >.3 5 b C z z j V u 3 V ! 0 S 5 u 8 u w ; 3 v 3 5 # ! R 7 2 3 C w 5 = = & 8 7 R S % % ",
"Z M 4 w 7 7 7 q > 2 ! G 5 # 1 w 7 p 1 5 v V = c ! z z z h J b & 3 5 & @ & 7 5 > X & = 3 8 3 # u Z w 5 V C } q = 4 @ % 1 > 5 % 1 ",
"8 8 8 8 > 5 9 O # 5 # 5 S O 5 F u u 7 1 w = & j v [ C 8 >.0.- 3 & = & & O 7 w > O O & . * > O # = > 5 6 S Z & 7 7 # w q o @ w 7 ",
"@ 2 2 = O @ 5 & 6 5 & 5 > # e 0 2 q 7 5 & > > 3 5 Z V 5 Z v - 3 = & = 2 5 6 O 3 2 @ O = 5 ; . # % & = 3 8 5 6 5 # + % 5 u 2 2 $ ",
"5 2 2 6 5 > q 9 u w V = v 9 w i S 5 < 5 5 5 5 z 4 8 6 = 6 5 8 V 2 = = 7 7 7 8 5 1 7 6 G G S > q p 2 t 5 2 C Z 5 # + % ! Z # # 9 "
};
