/* XPM */
static char *_7ddbcb0d6d747f6db02a761d5248fcdsFCGSFaXiJwSAAg2[] = {
/* columns rows colors chars-per-pixel */
"64 64 115 2 ",
"   c None",
".  c #1B2B38",
"X  c #1C2C39",
"o  c #1D2C39",
"O  c #1D2D3A",
"+  c #1E2E3B",
"@  c #1E2E3C",
"#  c #1F2F3C",
"$  c #2B3C49",
"%  c #2D3E4C",
"&  c #394A58",
"*  c #3D4E5D",
"=  c #3A5B74",
"-  c #3B5C75",
";  c #3C5D76",
":  c #3F6079",
">  c #465967",
",  c #45667E",
"<  c #4D6D86",
"1  c #6D8292",
"2  c #6F8494",
"3  c #64829A",
"4  c #869CAE",
"5  c #86A4BA",
"6  c #91ADC3",
"7  c #99B0C2",
"8  c #9BB3C5",
"9  c #A3BFD4",
"0  c #ABC7DC",
"q  c #B0C8DB",
"w  c #B8D2E7",
"e  c #BAD4E9",
"r  c #BFD8EC",
"t  c #BED8ED",
"y  c #AED5F3",
"u  c #AFD5F3",
"i  c #AFD6F3",
"p  c #B0D6F3",
"a  c #B1D7F3",
"s  c #B2D7F3",
"d  c #B1D7F4",
"f  c #B3D7F4",
"g  c #B3D8F4",
"h  c #B4D8F4",
"j  c #B5D9F4",
"k  c #B6D9F4",
"l  c #B7DAF4",
"z  c #B8DAF4",
"x  c #B9DAF5",
"c  c #B9DBF5",
"v  c #BADBF5",
"b  c #BCDCF5",
"n  c #BDDDF5",
"m  c #BEDDF5",
"M  c #BFDDF5",
"N  c #BFDEF5",
"B  c #BFDEF6",
"V  c #C0DEF6",
"C  c #C0DFF6",
"Z  c #C1DFF6",
"A  c #C2DFF6",
"S  c #C2E0F6",
"D  c #C3E0F6",
"F  c #C6E0F4",
"G  c #C4E0F6",
"H  c #C5E1F7",
"J  c #C6E1F7",
"K  c #C6E2F7",
"L  c #C7E2F7",
"P  c #C8E1F5",
"I  c #C8E2F5",
"U  c #C8E2F6",
"Y  c #C8E2F7",
"T  c #C8E3F7",
"R  c #C9E3F7",
"E  c #CAE3F7",
"W  c #CAE4F7",
"Q  c #CBE4F7",
"!  c #CCE5F7",
"~  c #CAE4F8",
"^  c #CBE5F9",
"/  c #CBE5FA",
"(  c #CDE5F8",
")  c #CEE5F8",
"_  c #CEE6F8",
"`  c #D0E7F8",
"'  c #D2E8F8",
"]  c #D3E8F8",
"[  c #D4E8F8",
"{  c #D4E9F9",
"}  c #D5E9F9",
"|  c #D8EBF9",
" . c #D9EBF9",
".. c #DBEDFA",
"X. c #DCEDFA",
"o. c #DEEEFA",
"O. c #E2F0FB",
"+. c #E3F0FB",
"@. c #E6F2FB",
"#. c #E7F2FB",
"$. c #EBF5FC",
"%. c #ECF5FC",
"&. c #EDF6FC",
"*. c #F2F9FD",
"=. c #F4F9FD",
"-. c #F5FAFE",
";. c #F6FAFE",
":. c #F6FBFE",
">. c #F8FBFE",
",. c #F8FCFE",
"<. c #FAFCFE",
"1. c #FBFDFE",
"2. c #FDFEFF",
"3. c #FEFFFF",
"4. c white",
/* pixels */
"                                    y y y y y                                                                                   ",
"                                y y y y y y y y                                                                                 ",
"                              y y y y y y y y y y y   R R R R R R                                                               ",
"                            y y y y y y y y y y y B R R R R R R R R R                                                           ",
"                          y y y y y y y y y y s B R R R R R R R R R R R                                                         ",
"                          y y y y y y y y y y c H R R R R R R R R R R R R                                                       ",
"                        y y y y y y y y y y s C R R R R R R R R R R R R R                                                       ",
"                        y y y y y y y y y y c R R R R R R R R R R R R R R R                                                     ",
"                        y y y y y y y y y y C R R R R R `  .} R R R R R R R                                                     ",
"                        y y y y y y y y y f H R R R R } =.3.1.o.R R R R R R                                                     ",
"                        y y y y y y y y y b R R R R R %.3.3.3.=.( R R R R R                                                     ",
"                        y y y y y y y y y C R R R R ( 1.3.3.3.=.( R R R R R                                                     ",
"                        y y y y y y y y j H R R R R ..3.3.3.3.#.R R R R R                                                       ",
"                        y y y y y y y y B R R R R R $.3.3.3.>.] R R R R R                                                       ",
"                        y y y y y y y s C R R R R ( =.3.3.3.#.R R R R R                                                         ",
"                        y y y y y y y j R R R R R  .3.3.3.=.! R R R R R                                                         ",
"                        y y y y y y y B R R R R R #.3.3.3...R R R R R                                                           ",
"                        y y y y y y a H R R R R R *.3.3.%.R R R R R R                                                           ",
"                        y y s j c b B R R R R H [ 3.3.1.} R R R R R R                                                           ",
"                        c C H R R R R R R R R R ! o.%.+.R R R R R R                                                             ",
"                    R R R R R R R R R R R R R R R R R R R R R R R R                                                             ",
"                  R R R R R R R R R R R R R R R R R R R R R R R R                                                               ",
"              R R R R R R R R R R R R R R R R R R R R R R R R R R                                                               ",
"            R R R R R R R R R R R R R R R R R R R R R R R R R R R                                                               ",
"          R R R R R R R R R R R R R R R R R R R R R R R R R R R R R                                                             ",
"        R R R R R R R R R R R R R R R R R R R R R R R R R R R R R R R                                                           ",
"        R R R R R R R R R R R R R R R R R R R R R R R R R R R R R R R R                                                         ",
"      R R R R R R R R R R R R / ( R R R R R R R R R R R R R R R R R R R                                                         ",
"      R R R R R R R R R R ! e 6 6 e / R R R R R R R R R R R R R R R R R R                                                       ",
"    0 R ( R R R R R R R E r 3 ; ; 3 t R R R R R R R R R R R R R R R R R R                                                       ",
"  * & 1 V R P R R R R R ( 9 : ; ; : 9 R R R R R R R R R R R R R R R R R R                                                       ",
"% O O O 4 R R R R R R R / 0 , = ; , 0 / R R R R R R R R R R R R R R R R R                                                       ",
"# O O . 2 ( R R R R R R R A 5 < < 5 A R R R R R R R R R R R R R R R R R R R R R R R R R                                         ",
"# O O $ 8 ( R R R R R R R R R w w P P R R R R R R R R R R R R R R R R R R R R R R R R R R R R                                   ",
"    > 7 H R R R R R R R R R R ( ! Q R R R R R R R R R R R R R R R R R R R R R R R R R R R R R R                                 ",
"      ( R R R R R R R R R R R R R R R R R R R R R R R R R R R R R R R R R R R R R R R R R R R R R R                             ",
"      R R R R R R R R R R R R R R R R R R R R R R R R R R R R R R R R R R R R R R R R R R R R R R R R                           ",
"        R R R R R R R R R R R R R R R R R R R R R R R R R R R R R R R R R R R R R R R R R R R R R R R R                         ",
"        R R R R R R R R R R R R R R R R R R R R R R R R R R R R R R R R R R R R R R R R R R R R R R R R R                       ",
"          R R R R R R R R R R R R R R R R R R R R R R R R R R R R R R R R R R R R R R R R R R R R R R R R                       ",
"            R R R R R R R R R R R R R R R R R R R R R R R R R R R R R R R R R R R R R R R R R R R R R R R R                     ",
"              R R R R R R R R R R R R R R R R R R R R R R R R R R R R R R R R R R R R R R R R R R R R R R R     y y y y         ",
"                R R R R R R R R R R R R R R R R R R R R R R R R R R R R R R R R R R R R R R R R R R R R R R S y y y y y y y     ",
"                    R R R R R R R R R R R R R R R R R R R R R R R R R R R R R R R R R R R R R R R R R R R R H a y y y y y y y   ",
"                        R R R R R R R R R R R R R R R R R R R R R R R R R R R R R R R R R R R R R R R R R R R j y y y y y y y   ",
"                                R R R R R R R R R R R R R R R R R R R R R R R R R R R R R R R R R R R R R R R b y y y y y y y y ",
"                                R R R R R R R R R R R R R R R R R R R R R R R R R R R R R R R R R R R R R R H B y y y y y y y y ",
"                                R R R R R R R R R R R R R R R R R R R R R R R R R R R R R R R R R R R R R R R B y y y y y y y y ",
"                                R R R R R R R R R R R R R R R R R R R R R R R R R R R R R R R R R R R R R R R b y y y y y y y y ",
"                                R R R R R R R R R R R R R R R R R R R R R R R R R R R R R R R R R R R R R R R B y y y y y y y y ",
"                                R R Q A R R R R R R R R R R R R R R Q R R R R R R R R R R R R R R R R R R R R B y y y y y y y   ",
"                                b V C V V V V b A R R R R R R R R R Q A A C V V C C C C R R R R R R R R R R R B y y y y y y     ",
"                          s y y y y y y y y y y C R R R R R R R R A V f p y y y y y y y S R R R R R R R R R R B y y y y y       ",
"                        y y y y y y y y y y y y V R R R R R R R A f y s y y y y y y y s C R R R R R R R R R R R                 ",
"                      y y y y y y y y y y y y y b R R R R R R A f y y y y y y y y y y y H R R R R R R R R R R                   ",
"                    y y y y y y y p y p y p y s V R R R R R A x y y y y y y p y p y p y A R R R R R R R R R R                   ",
"                    y y y y s B A A A A A A A A A R R R R Q b y y y y s j C C C C C C C R R R R R R R R R R R                   ",
"                    y y y y c R R R R R R R R R Q R R R R A f y y y y B R R R R R R R R R R R R R R R R R R                     ",
"                    y y y y j R R R R R R R R R Q R R R R A p y y y j R R R R R R R R R R R R R R R R R R R                     ",
"                    y y y y y f x f x f f z f z f x f x x f y y y y B R R R R R R R R R R R R R R R R R R                       ",
"                      y y y y y y y y y y y y y s y y y y y y y y y V R R R R R R R R R R R R R R R R R                         ",
"                      y y y y y y y y y y y y y y y y y y y y y y y c R R R R R R R R R R R R R R R R                           ",
"                        y y y y y y y y y y y y y y y y y y y y y y p C R R R R R R R R R R R R R R                             ",
"                            y y y y y y y y y y p y p y p y p y p y y s C R R R R R R R R R R                                   "
};
