/* XPM */
static char *result[] = {
/* columns rows colors chars-per-pixel */
"64 64 197 2 ",
"   c #733F44",
".  c #793E44",
"X  c #3D4445",
"o  c #3D4E45",
"O  c #3D5045",
"+  c #3B5A46",
"@  c #366E44",
"#  c #3B6B44",
"$  c #357445",
"%  c #347846",
"&  c #347B48",
"*  c #3A7846",
"=  c #444545",
"-  c #4E4345",
";  c #464C48",
":  c #514345",
">  c #544C46",
",  c #5B4445",
"<  c #45514B",
"1  c #565348",
"2  c #505047",
"3  c #4D5B52",
"4  c #644144",
"5  c #684845",
"6  c #685347",
"7  c #7C5A48",
"8  c #755748",
"9  c #457B4A",
"0  c #5A7953",
"q  c #736D45",
"w  c #5D7160",
"e  c #F75E3E",
"r  c #F85F3F",
"t  c #F8613E",
"y  c #833D44",
"u  c #8C3C43",
"i  c #943A43",
"p  c #9A3A43",
"a  c #A53A43",
"s  c #AA3843",
"d  c #BC3642",
"f  c #B43843",
"g  c #C53542",
"h  c #CB3442",
"j  c #C23C43",
"k  c #D53342",
"l  c #D93442",
"z  c #DB3C43",
"x  c #D43D43",
"c  c #885E49",
"v  c #BB4346",
"b  c #866645",
"n  c #9B654A",
"m  c #926249",
"M  c #A4664A",
"N  c #AD6C4B",
"B  c #BB6E4B",
"V  c #B16B4B",
"C  c #CE4244",
"Z  c #DC4244",
"A  c #DE4A46",
"S  c #D65446",
"D  c #C95941",
"F  c #E34C46",
"G  c #E04745",
"H  c #E55146",
"J  c #E05C40",
"K  c #EA5B49",
"L  c #E55B49",
"P  c #C6754C",
"I  c #D9794C",
"U  c #DF6744",
"Y  c #E3624B",
"T  c #EE6449",
"R  c #E36845",
"E  c #F76542",
"W  c #F86441",
"Q  c #F86B43",
"!  c #F36A4A",
"~  c #E67D4D",
"^  c #E97E4D",
"/  c #EF7047",
"(  c #F87346",
")  c #F5734C",
"_  c #FA7549",
"`  c #FA7C4C",
"'  c #F07147",
"]  c #EC7950",
"[  c #F87256",
"{  c #2F8D44",
"}  c #328344",
"|  c #3B8346",
" . c #308C44",
".. c #328648",
"X. c #308D49",
"o. c #39884A",
"O. c #2F9146",
"+. c #2E9649",
"@. c #2E9949",
"#. c #329244",
"$. c #359A45",
"%. c #3A9C45",
"&. c #309449",
"*. c #319A49",
"=. c #3C9B4D",
"-. c #3C9345",
";. c #3B9551",
":. c #37A246",
">. c #3AA546",
",. c #3BA846",
"<. c #3EA64B",
"1. c #3AA052",
"2. c #428648",
"3. c #439B4A",
"4. c #469A51",
"5. c #43AD4D",
"6. c #47AE51",
"7. c #4AB253",
"8. c #4FAE61",
"9. c #5CB866",
"0. c #54AF66",
"q. c #64B669",
"w. c #62C269",
"e. c #69C76E",
"r. c #73CA77",
"t. c #78D17A",
"y. c #9A884B",
"u. c #A9904D",
"i. c #80AC7F",
"p. c #CC9857",
"a. c #EB824E",
"s. c #E5874D",
"d. c #FE854E",
"f. c #FD8A4F",
"g. c #F7824D",
"h. c #EC8852",
"j. c #FF8C50",
"k. c #F48955",
"l. c #EF9153",
"z. c #FD9352",
"x. c #FD9C55",
"c. c #FC9959",
"v. c #F39756",
"b. c #E6AB5A",
"n. c #F4A056",
"m. c #FDA457",
"M. c #F7A559",
"N. c #F8A358",
"B. c #FBAC5A",
"V. c #F9AB59",
"C. c #FCB45C",
"Z. c #FCBB5E",
"A. c #F5B25C",
"S. c #FF9661",
"D. c #FA977C",
"F. c #FBAE67",
"G. c #FCBC63",
"H. c #FBBA6C",
"J. c #FBB460",
"K. c #FDC45F",
"L. c #FCC36A",
"P. c #FCC371",
"I. c #FDC579",
"U. c #FCCA7F",
"Y. c #FEE661",
"T. c #FFF176",
"R. c #84AA83",
"E. c #FA9D84",
"W. c #FAA386",
"Q. c #86D986",
"!. c #9ACB96",
"~. c #95C492",
"^. c #9BD698",
"/. c #9AE798",
"(. c #A5DBA0",
"). c #AEE9A7",
"_. c #AEE7A8",
"`. c #ACF1A7",
"'. c #AEF5A9",
"]. c #B2F4AC",
"[. c #BEFFB6",
"{. c #B3E9AD",
"}. c #FDD194",
"|. c #FDCA85",
" X c #FFFB87",
".X c #C0FFB8",
"XX c #FEE1BD",
"oX c #FDD6C3",
"OX c #FEE3C3",
"+X c #FFEFDF",
"@X c #FFEAD5",
"#X c #FFF4D9",
"$X c #FFF1D6",
"%X c #FFEAE4",
"&X c #FFF5E4",
"*X c #FFF4E9",
"=X c None",
/* pixels */
"=X=X=X=X=X=X=X=X=X=X=X=X=X=X=X=X=X=X=X=X=X=X=X=X=X=X=X=X=X=X=X=X=X=X=X=X=X=XX X X X X X =X=X=X=XX X X X =X=X=X=X=X=X=X=X=X=X=X=X",
"=X=X=X=X=X=X=X=X=X=X=X=X=X=X=X=X=X=X=X=X=X=X=X=X=X=X=X=X=X=X=X=X=X=X=X=X=X=X< < < ; = o =X=X=X=X< < < < =X=X=X=X=X=X=X=X=X=X=X=X",
"=X=X=X=X=X=X=X=X=X=X=X=X=X=X=X=X=X=X=X=X=X=X=X=X=X=X=X=X=X=X=X=X=X=X=X=XX 3 !.(.(.^.4.-.O = X 3 !.(.(.!.3 X =X=X=X=X=X=X=X=X=X=X",
"=X=X=X=X=X=X=X=X=X=X=X=X=X=X=X=X=X=X=X=X=X=X=X=X=X=X=X=X=X=X=X=X=X=X=X=XX 3 )..X.X'.7.%.O X X 3 _.[..X_.3 X =X=X=X=X=X=X=X=X=X=X",
"=X=X=X=X=X=X=X=X=X=X=X=X=X=X=X=X=X=X=X=X=X=X=X=X=X=X=X=X=X=X=X=X=X=XX o % o.0.9.w.9.,.%.o o % o.9.w.w.9.< X =X=XX = X X =X=X=X=X",
"=X=X=X=X=X=X=X=X=X=X=X=X=X=X=X=X=X=X=X=X=X=X=X=X=X=X=X=X=X=X=X=X=X=XX o X.&.+.+.:.,.,.:.o o X.*.>.>.,.%.o X =X=XX X X X =X=X=X=X",
"=X=X=X=X=X=X=X=X=X=X=X=X=X=X=X=X=X=X=X=X=X=X=X=X=X=X=X=X=X=X=X=X=X=XX o ..{ +.+.*.*.@.=.| | &.+.$.$.,.:.| * O O * 2.i.R.3 X =X=X",
"=X=X=X=X=X=X=X=X=X=X=X=X=X=X=X=X=X=X=X=X=X=X=X=X=X=X=X=X=X=X=X=X=X=XX o } { +.+.+.+.@.+.>.>.*.&.+.@.>.,.,.%.; O %.7.].{.3 X =X=X",
"=X=X=X=X=X=X=X=X=X=X=X=X=X=X=X=X=X=X=X=X=X=X=X=X=X=X=X=X=X=X=X=X=X=X=Xo # @ { O.+.+.{ =.r.e.<.*.+.*.>.,.<.:.$ $ %.5.t.r.9 # < =X",
"=X=X=X=X=X=X=X=X=X=X=X=X=X=X=X=X=X=X=X=X=X=X=X=X=X=X=X=X=X=X=X=X=X=X=X=XX o & { +.+.{ 4.].].7.:.+.@.>.>.,.>.&.@.>.,.>.:.,.%.O X ",
"=X=X=X=X=X=X=X=X=X=X=X=X=X=X=X=X=X=X=X=X=X=X=X=X=X=X=X=X=X=X=X=X=X=X=X=XX o @ $ % & { =.Q.Q.5.,.*.*.:.:.:.:.+.*.>.5.w.e.e.q.< X ",
"=X=X=X=X=X=X=X=X=X=X=X=X=X=X=X=X=X=X=X=X=X=X=X=X=X=X=X=X=X=X=X=X=X=X=X=X=X=X= X X O %.,.,.,.,.>.,.,.+.+.+.+.O.+.,.7.'..X.X).3 X ",
"=X=X=X=X=X=X=X=X=X=X=X=X=X=X=X=X=X=X=X=X=X=X=X=X=X=X=X=X=X=X=X=X=X=X=X=X=X=XX X = o -.>.,.,.>.,.>.:.+.+.*.*.8.8.>.6././.^.~.3 X ",
"=X=X=X=X=X=X=X=X=X=X=X=X=X=X=X=X=X=X=X=X=X=X=X=X=X=X=X=X=X=X=X=X=X=X=X=X=X=X=X=XX o }  .>.,.,.>.*.+. .X.:.7.'.'.7.,.,.3.< ; =X=X",
"=X=X=X=X=X=X=X=X=X=X=X=X=X=X=X=X=X=X=X=X=X=X=X=X=X=X=X=X=X=X=X=X=X=X=X=X=X=X=X=XO + ..#.%.,.>.%.+.+.X. .,.6././.6.,.,.$.+ O =X=X",
"=X=X=X=X=X=X=X=X=X=X=X=X=X=X=X=X=X=X=X=X=X=X=X=X=X=X=X=X=X=X=X=X=X=X=X=X=X=XX o ..O.:.:.@.+.{  . . .O.*.>.,.6.6.>.,.*.+.O...o X ",
"=X=X=X=X=X=X=X=X=X=X=X=X=X=X=X=X=X=X=X=X=X=X=X=X=X=X=X=X=X=X=X=X=X=X=X=X=X=XX o X.&.>.>.*.+.{  . .{ +.+.>.>.>.>.>.>.*.&.1.;.O X ",
"=X=X=X=X=X=X=X=X=X=X=X=X=X=X=X=X=X=X=X=X=X=X=X=X=X=X=X=X=X=X=X=X=X=X=X=X=X=XX o X.*.>.>.+.+.O.+.O.+.+.+.#.#.>.>.#. .%.5./.^.3 X ",
"=X=X=X=X=X=X=X=X=X=X=X=X=X=X=X=X=X=X=X=X=X=X=X=X=X=X=X=X=X=X=X=X=X=X=X=X=X=Xo o X.*.,.:.*.+.+.@.+.@.+.+. . .>.:. .#.,.7.'._.3 X ",
"=X=X=X=X=X=X=X=X=X=X=X=X=X=X=X=X=X=X=X=X=X=X=X=X=X=X=X=X=X=XX X = X X X X o & ..*.:.#.#.+.+.+.+. . . . . .X.&.*.#.#.:.<.w w =X=X",
"=X=X=X=X=X=X=X=X=X=X=X=X=X=X=X=X=X=X=X=X=X=X=X=X=X=X=X=X=X=XX = X X = X = o X.@.<.:. . .+.+.@.+. .{ {  . . .+.+.+.*.,.%.O X =X=X",
"=X=X=X=X=X=X=X=X=X=X=X=X=X=X=X=X=X=X=X=X=X=X=X=X=X=XX X X > V B B B B N 9 & O.+.,.,.%.%. .{ { { O.O.O.O.O.{ +.+.+.+.*.*.& % o X ",
"=X=X=X=X=X=X=X=X=X=X=X=X=X=X=X=X=X=X=X=X=X=X=X=X=X=XX X X > a.f.d.d.f.s.3.+.+.$.:.>.,.,. .{  . .+.+.+.+.+.+.+.+.+.+.+.+.@.X.o X ",
"=X=X=X=X=X=X=X=X=X=X=X=X=X=X=X=X=X=X=X=X=X=X=X=X=X> n M M N ' _ d.f.m.n.u.y.b q -.$.$.#.#.O.{ O.+.+.#.O.O.O.{ &.O.O.+.+.+.X.o X ",
"=X=X=X=X=X=X=X=X=X=X=X=X=X=X=X=X=X=X=X=X=X=X=X=XX > ~ d.d.` t t ` f.Z.C.f.` z g 2.{  . .O.@.@.@.+.+. . . . . . . . .+.+.+.X.o X ",
"=X=X=X=X=X=X=X=X=X=X=X=X=X=X=X=X=X=X=X=X=X=X=X=Xc n l.x.x.x.f.g._ ` x.m.x.z.T S 7 q  .#.O.{ % $ $ $ @ @ @ @ @ $ .. .{ O.+.X.o X ",
"=X=X=X=X=X=X=X=X=X=X=X=X=X=X=X=X=X=X=X=X=X=XX > ~ j.C.Z.Z.Z.Z.C.Q t d.f.C.Z.f.` z d -.O.{ } o X X X X X X X X o } {  .{ +.X.O X ",
"=X=X=X=X=X=X=X=X=X=X=X=X=X=X=X=X=X=X=X=X=X=X8 c l.x.C.G.Z.Z.Z.C.d.g.z.x.C.C.f.` H S q 0 * @ o X X X X = X X X o @ % } { } % o X ",
"=X=X=X=X=X=X=X=X=X=X=X=X=X=X=X=X=X=X=X=XX > ~ j.C.Z.Z.Z.Z.Z.Z.Z.Z.Z.Z.Z.Z.C.j.d.d.` z d - X =X=X=X=X=X=X=X=X=X=XX o } } o = =X=X",
"=X=X=X=X=X=X=X=X=X=X=X=X=X=X=X=X=X=X=X=X6 8 ^ j.m.C.Z.G.I.I.K.L.B.V.V.B.Z.C.z.j.j.` F C 5 , =X=X=X=X=X=X=X=X=X=XX o $ $ o X =X=X",
"=X=X=X=X=X=X=X=X=X=X=X=X=X=X=X=X=X=XX > I g.d.d.f.j.C.P.+X#XT.Y.( E E Q C.Z.Z.C.j.d.` _ x d : X =X=X=X=X=X=X=X=X=X=Xo o X X =X=X",
"=X=X=X=X=X=X=X=X=X=X=X=X=X=X=X=X=X=X> 6 a.j.j.j.d.d.V.H.@X$X XT.` Q E Q N.V.C.C.j.d.d.` z g : X =X=X=X=X=X=X=X=X=X=XX = X X =X=X",
"=X=X=X=X=X=X=X=X=X=X=X=X=X=X=X=XX > I a.B.C.C.m.( W E _ H.U.$X$XH.V.f.` F A g.j.d.d.d.` z g : X =X=X=X=X=X=X=X=X=X=X=X=X=X=X=X=X",
"=X=X=X=X=X=X=X=X=X=X=X=X=X=X=X=XX > ~ z.C.Z.Z.C.Q E ! ) B.H.+X+XL.C.j.` z z ` d.d.d.d._ z g - X =X=X=X=X=X=X=X=X=X=X=X=X=X=X=X=X",
"=X=X=X=X=X=X=X=X=X=X=X=X=X=X=X=XX 1 b.C.Z.Z.Z.Z.B.F.oXoXS.x.I.I.G.Z.C.N.Z z ` d.d.` F Z l g - X =X=X=X=X=X=X=X=X=X=X=X=X=X=X=X=X",
"=X=X=X=X=X=X=X=X=X=X=X=X=X=X=X=XX 1 b.Z.Z.Z.Z.Z.Z.I.&X%XS.f.C.Z.Z.Z.Z.B.Z z ` d.d.` z k l g - X =X=X=X=X=X=X=X=X=X=X=X=X=X=X=X=X",
"=X=X=X=X=X=X=X=X=X=X=X=X=X=XX > B P C.Z.Z.Z.Z.L.XXOX}.|.C.m.Z.Z.G.C.c.j.) ! F F F G l k k g : X =X=X=X=X=X=X=X=X=X=X=X=X=X=X=X=X",
"=X=X=X=X=X=X=X=X=X=X=X=X=X=XX > ^ j.Z.Z.Z.Z.Z.P.*X*XP.Z.Z.Z.G.Z.Z.C.j.d.d.` x k k k k k l g - X =X=X=X=X=X=X=X=X=X=X=X=X=X=X=X=X",
"=X=X=X=X=X=X=X=X=X=X=X=X=X=XX > R ` C.Z.Z.C.f.j.E.W.C.Z.Z.G.Z.Z.Z.C.j.d.d.` z k k k k h u . =X=X=X=X=X=X=X=X=X=X=X=X=X=X=X=X=X=X",
"=X=X=X=X=X=X=X=X=X=X=X=X=X=XX : e E C.Z.Z.A.E e e Q C.Z.Z.Z.Z.G.Z.C.j.d.j.` z k k l l j - X =X=X=X=X=X=X=X=X=X=X=X=X=X=X=X=X=X=X",
"=X=X=X=X=X=X=X=X=X=X=X=X=X> m M R ` f.z.C.C.z.f._ ) ] a.C.Z.m.m.m.x.j.d.T K l h p u u u : =X=X=X=X=X=X=X=X=X=X=X=X=X=X=X=X=X=X=X",
"=X=X=X=X=X=X=X=X=X=X=X=XX > ~ d.d.g.e E C.Z.K.A.j.` l Z V.C.j.d.d.d.d.` z k l g - X X X =X=X=X=X=X=X=X=X=X=X=X=X=X=X=X=X=X=X=X=X",
"=X=X=X=X=X=X=X=X=X=X=X=X7 m l.c.x.c.D.D.x.N.C.C.x.j.K K h.k.d.d.d.d.! T z k a p - X X X =X=X=X=X=X=X=X=X=X=X=X=X=X=X=X=X=X=X=X=X",
"=X=X=X=X=X=X=X=X=X=XX > ~ j.C.Z.Z.P.&X%X[ t C.Z.G.C.j.` z z ` d.d.` z k l g : X =X=X=X=X=X=X=X=X=X=X=X=X=X=X=X=X=X=X=X=X=X=X=X=X",
"=X=X=X=X=X=X=X=X=X=X6 7 h.z.Z.C.m.F.OXoXk.` C.Z.B.B.j.` F A ! ) ) ! l k f a - X =X=X=X=X=X=X=X=X=X=X=X=X=X=X=X=X=X=X=X=X=X=X=X=X",
"=X=X=X=X=X=X=X=XX > ~ j.C.Z.Z.C.Q Q G.G.Z.C.Z.C.j.d.d.d.d.` Z l l l l g : = =X=X=X=X=X=X=X=X=X=X=X=X=X=X=X=X=X=X=X=X=X=X=X=X=X=X",
"=X=X=X=X=X=X=X=XX > ^ f.B.C.Z.C.` ( n.V.C.C.C.V.j.d.` ) ` ! z k j d d s : X =X=X=X=X=X=X=X=X=X=X=X=X=X=X=X=X=X=X=X=X=X=X=X=X=X=X",
"=X=X=X=X=X=X=X=XX > ^ d.f.z.C.Z.C.M.A G g.f.f.f.j.` Z z z z l h , - - - =X=X=X=X=X=X=X=X=X=X=X=X=X=X=X=X=X=X=X=X=X=X=X=X=X=X=X=X",
"=X=X=X=X=X=X=X=X- 6 a.f.f.f.C.C.J.V.A z ) d.` g.` _ z l h h h d - X o X =X=X=X=X=X=X=X=X=X=X=X=X=X=X=X=X=X=X=X=X=X=X=X=X=X=X=X=X",
"=X=X=X=X=X=XX > D U V.C.C.B.z.z.j.j.` [ F z Z z Z z l g 4 : : : =X=X=X=X=X=X=X=X=X=X=X=X=X=X=X=X=X=X=X=X=X=X=X=X=X=X=X=X=X=X=X=X",
"=X=X=X=X=X=X; > S ( V.C.Z.C.f.d.d.d.d.` z k k k k h k d - X X X =X=X=X=X=X=X=X=X=X=X=X=X=X=X=X=X=X=X=X=X=X=X=X=X=X=X=X=X=X=X=X=X",
"=X=X=X=XX > P I m.x.Y Y C.C.f.d.d.` H Z l k k h 5 4 4 4 =X=X=X=X=X=X=X=X=X=X=X=X=X=X=X=X=X=X=X=X=X=X=X=X=X=X=X=X=X=X=X=X=X=X=X=X",
"=X=X=X=XX > a.f.Z.V.Z Z V.C.j.d.d.` z k k k l g : X X X =X=X=X=X=X=X=X=X=X=X=X=X=X=X=X=X=X=X=X=X=X=X=X=X=X=X=X=X=X=X=X=X=X=X=X=X",
"=X=XX > V P n.B.Z.A.) T Y Y H H F F l h y     5 =X=X=X=X=X=X=X=X=X=X=X=X=X=X=X=X=X=X=X=X=X=X=X=X=X=X=X=X=X=X=X=X=X=X=X=X=X=X=X=X",
"=X=XX > ^ z.C.Z.G.C.j.` z k k k l l l g - X X X =X=X=X=X=X=X=X=X=X=X=X=X=X=X=X=X=X=X=X=X=X=X=X=X=X=X=X=X=X=X=X=X=X=X=X=X=X=X=X=X",
"=X=XX > R _ f.f.x.x.d.` z k l h u y y y - =X=X=X=X=X=X=X=X=X=X=X=X=X=X=X=X=X=X=X=X=X=X=X=X=X=X=X=X=X=X=X=X=X=X=X=X=X=X=X=X=X=X=X",
"=X=XX - e e e W ` d.d.` z l l h : X X X =X=X=X=X=X=X=X=X=X=X=X=X=X=X=X=X=X=X=X=X=X=X=X=X=X=X=X=X=X=X=X=X=X=X=X=X=X=X=X=X=X=X=X=X",
"=X=Xc n s.g._ ( T T T L a i i i - X X X =X=X=X=X=X=X=X=X=X=X=X=X=X=X=X=X=X=X=X=X=X=X=X=X=X=X=X=X=X=X=X=X=X=X=X=X=X=X=X=X=X=X=X=X",
"X > ~ j.A.C.j.` z k l g : X X X =X=X=X=X=X=X=X=X=X=X=X=X=X=X=X=X=X=X=X=X=X=X=X=X=X=X=X=X=X=X=X=X=X=X=X=X=X=X=X=X=X=X=X=X=X=X=X=X",
"X > h.c.l.l.) T v a s p - X o X =X=X=X=X=X=X=X=X=X=X=X=X=X=X=X=X=X=X=X=X=X=X=X=X=X=X=X=X=X=X=X=X=X=X=X=X=X=X=X=X=X=X=X=X=X=X=X=X",
"X 1 b.C.A k l g : X = = =X=X=X=X=X=X=X=X=X=X=X=X=X=X=X=X=X=X=X=X=X=X=X=X=X=X=X=X=X=X=X=X=X=X=X=X=X=X=X=X=X=X=X=X=X=X=X=X=X=X=X=X",
"X 2 p.p.v d d s : X X X =X=X=X=X=X=X=X=X=X=X=X=X=X=X=X=X=X=X=X=X=X=X=X=X=X=X=X=X=X=X=X=X=X=X=X=X=X=X=X=X=X=X=X=X=X=X=X=X=X=X=X=X",
"X = ; ; = = - = =X=X=X=X=X=X=X=X=X=X=X=X=X=X=X=X=X=X=X=X=X=X=X=X=X=X=X=X=X=X=X=X=X=X=X=X=X=X=X=X=X=X=X=X=X=X=X=X=X=X=X=X=X=X=X=X",
"X X X X X X X X =X=X=X=X=X=X=X=X=X=X=X=X=X=X=X=X=X=X=X=X=X=X=X=X=X=X=X=X=X=X=X=X=X=X=X=X=X=X=X=X=X=X=X=X=X=X=X=X=X=X=X=X=X=X=X=X"
};
