/* XPM */
static char *_89a60fcce7a4f09dd8080a2a72e1e2aYU3H4G4b7USJq87b[] = {
/* columns rows colors chars-per-pixel */
"64 64 132 2 ",
"   c None",
".  c #000000",
"X  c #0B0602",
"o  c #060B05",
"O  c #080F06",
"+  c #140A04",
"@  c #1B0D05",
"#  c #081107",
"$  c #0B1509",
"%  c #0E1A0B",
"&  c #241204",
"*  c #2D1606",
"=  c #221108",
"-  c #2B150A",
";  c #2F180C",
":  c #371B07",
">  c #391C07",
",  c #341A0D",
"<  c #3C1E0B",
"1  c #12230E",
"2  c #142A0F",
"3  c #132510",
"4  c #172C13",
"5  c #1B3515",
"6  c #1B3814",
"7  c #1F3B19",
"8  c #422108",
"9  c #4C2609",
"0  c #5A2D0B",
"q  c #412110",
"w  c #482412",
"e  c #542A15",
"r  c #5F3018",
"t  c #64320C",
"y  c #72390E",
"u  c #7C3E0F",
"i  c #603018",
"p  c #6B361B",
"a  c #753A14",
"s  c #763B1E",
"d  c #7C3E1F",
"f  c #7E3F20",
"g  c #23451C",
"h  c #25491D",
"j  c #27501D",
"k  c #2A581F",
"l  c #294E21",
"z  c #2B5323",
"x  c #2C5A22",
"c  c #336B26",
"v  c #34642A",
"b  c #376A2D",
"n  c #396C2E",
"m  c #39772A",
"M  c #3C7C2C",
"N  c #3C7231",
"B  c #417C34",
"V  c #864310",
"C  c #8A4411",
"Z  c #934912",
"A  c #9B4D13",
"S  c #A35114",
"D  c #AC5615",
"F  c #B45916",
"G  c #BE5E17",
"H  c #B85C1F",
"J  c #854321",
"K  c #8B4623",
"L  c #904824",
"P  c #994D26",
"I  c #9E4F28",
"U  c #9F5028",
"Y  c #A35229",
"T  c #AC562B",
"R  c #B35A2D",
"E  c #BC5E2F",
"W  c #BF6030",
"Q  c #C66318",
"!  c #CC6519",
"~  c #D56A1A",
"^  c #DA6C1B",
"/  c #E6721C",
"(  c #ED761D",
")  c #DC6F22",
"_  c #C46231",
"`  c #C96532",
"'  c #CF6834",
"]  c #D46A35",
"[  c #DA6D37",
"{  c #DF7038",
"}  c #EF7720",
"|  c #EF7821",
" . c #F17825",
".. c #F57A2C",
"X. c #E27139",
"o. c #EC763B",
"O. c #F77B31",
"+. c #F97D35",
"@. c #F57B3D",
"#. c #FD7E3D",
"$. c #FE7F40",
"%. c #3F832F",
"&. c #418730",
"*. c #448D32",
"=. c #468538",
"-. c #488A3B",
";. c #4D933E",
":. c #4C9F38",
">. c #4EA23A",
",. c #50A63B",
"<. c #53AD3D",
"1. c #55B13F",
"2. c #4F9740",
"3. c #519A42",
"4. c #57A647",
"5. c #5BAE4A",
"6. c #57B640",
"7. c #58B741",
"8. c #5BBA44",
"9. c #5EB44D",
"0. c #61B94F",
"q. c #63BD50",
"w. c #65C84F",
"e. c #66C353",
"r. c #68C654",
"t. c #67CA51",
"y. c #6BCC56",
"u. c #6CCF58",
"i. c #6FD35A",
"p. c #70D65B",
"a. c #FF803F",
"s. c #FF8040",
/* pixels */
"                                                                                                          . . . . .             ",
"                                                                              . . . .                 . . . . O . . . .         ",
"                                                                            . . . . . . .         . . . l 2.u.p.e.B $ . .       ",
"                                                                          . o c <.1.%.6 . .     . . 5 5.p.p.p.p.p.p.e.4 . .     ",
"                                                                        . . &.7.7.7.7.7.M . . . . v i.p.p.p.p.p.p.p.p.r.% .     ",
"                                                                      . . k 7.7.7.7.7.7.7.h . . =.i.p.p.p.p.p.p.p.p.p.p.;.. .   ",
"                                                                      . O 1.7.7.7.7.7.7.m . . -.p.p.p.p.p.p.p.p.p.p.p.p.i.O .   ",
"                                                                    . . k 7.7.7.7.7.7.*.o . =.p.p.p.p.p.p.p.p.p.p.p.p.p.i.% .   ",
"                                                                    . . >.6.6.7.7.8.,.# . N p.p.p.p.p.p.p.p.p.p.p.p.p.p.u.o .   ",
"                                                                    . 2 6.8.6.6.7.1.1 o l p.p.p.p.p.p.p.p.p.p.p.p.p.p.p.2.. .   ",
"                                                                  . . c 8.1.8.1.7.j . 4 i.i.p.p.p.p.p.p.p.p.p.p.p.p.p.p.4 .     ",
"                                                                  . . ,.8.1.8.1.%.. O 9.p.p.p.p.p.p.p.p.p.p.p.p.p.p.p.B . .     ",
"                                                                  . 1 1.8.1.8.1.$ . -.p.p.p.p.p.p.p.p.p.p.p.p.p.p.i.4.. .       ",
"                                                                  . x 7.1.8.1.h . h p.p.p.p.p.p.p.p.p.p.p.p.p.p.p.9.# .         ",
"                                                                . . *.7.8.8.*.. O e.i.p.p.p.p.p.p.p.p.p.p.p.p.i.5.O . .         ",
"                                                                . # 7.7.1.1.% . =.i.i.p.p.p.p.p.p.p.p.p.p.p.p.;.o . . .         ",
"                                                                . g 7.7.7.c . 5 p.p.p.p.p.p.p.p.p.p.p.p.p.i.n . . v B . .       ",
"                                                              . . %.7.7.7.4.z q.p.p.p.p.p.p.p.p.p.p.p.p.q.5 . o =.i.i.# .       ",
"                                                              . o 1.7.7.7.w.p.p.p.p.p.p.p.p.p.p.p.p.p.-.O . 1 5.i.p.p.7 .       ",
"                                              . . . . . . . . . 6 1.7.7.7.i.p.p.p.p.p.p.p.p.i.i.p.0.7 . . z y.p.p.p.p.3 .       ",
"                                          . . . X & * + . . . . 6 >.7.7.r.p.p.p.p.p.p.p.p.p.p.y.n o . % 3.p.p.p.p.p.9.. .       ",
"                                      . . . 8 S ( ( ( ( ~ Z < . . . x 7.p.p.p.p.p.p.p.p.p.i.2.# . . v u.p.p.p.p.p.i.5 . .       ",
"                                    . . . 8 ( ( ( ( ( ( ( ( ( Q t X . % 3.p.p.p.p.p.p.p.i.v . . g q.i.p.p.p.p.p.p.b . .         ",
"                                  . . * X . 0 ( ( ( ( ( ( ( ( ( ( ! < . . n p.p.p.p.p.p.u.2.7 3.p.p.p.p.p.p.p.p.v . .           ",
"                                . . 8 / G + . 9 ( ( ( ( ( ( ( ( ( ( } A X . l u.p.p.p.p.p.p.p.p.p.p.p.p.i.i.y.g . .             ",
"                              . . > / ( ( ! @ . 0 ( ( ( ( ( ( } ..+.$.s.` + . 7 i.p.p.p.p.p.p.p.p.p.p.p.p.5.% . .               ",
"                            . . & ^ ( ( ( ( ! @ . y ( ( ( ( ..a.$.s.s.s.s.X.- . l p.p.p.p.p.p.p.p.p.p.p.p.g . .                 ",
"                            . X Q ( ( ( ( ( ( Q + . C ( | #.s.s.s.s.s.s.s.$.{ + . b p.p.p.p.p.p.p.e.b z                         ",
"                          . . C ( ( ( ( ( ( ( ( D X . ) #.s.s.s.s.s.s.s.s.s.s.` X . 4.p.i.i.p.q.x o . .                         ",
"                        . . 8 ( ( ( ( ( ( ( ( ( ( S a $.s.s.s.s.s.s.s.s.s.s.s.$.P . 3 u.i.2.l . . . .                           ",
"                        . + ~ ( ( ( ( ( ( ( ( ( ( ..#.s.s.s.s.s.s.s.s.s.s.s.s.s.$.< . 7 % . . . .                               ",
"                      . . Z ( ( ( ( ( ( ( ( ( (  .$.s.s.s.s.s.s.s.s.s.s.s.s.s.s.s.] . . . .                                     ",
"                      . * ( ( ( ( ( ( ( ( ( ( ..a.s.s.s.s.s.s.s.s.s.s.s.s.s.s.s.s.s.r . .                                       ",
"                    . . F ( ( ( ( ( ( ( ( (  .a.s.s.s.s.s.s.s.s.s.s.s.s.s.s.s.s.s.s.` . .                                       ",
"                  . . 8 ( ( ( ( ( ( ( ( (  .@.s.s.s.s.s.s.s.s.s.s.s.s.s.s.s.s.s.s.s.s., .                                       ",
"                  . . . S ( ( ( ( ( ( ( } #.s.s.s.s.s.s.s.s.s.s.s.s.s.s.s.s.s.s.s.s.s.J . .                                     ",
"                  . & . X A ( ( ( ( ( ( #.a.a.s.s.s.s.s.s.s.s.s.s.s.s.s.s.s.s.s.s.s.s.W . .                                     ",
"                . . Q C . X S ( ( ( ( +.s.s.s.s.s.s.s.s.s.s.s.s.s.s.s.s.s.s.s.s.s.s.s.@.. .                                     ",
"                . 8 ( ( C . . S ( ( +.a.s.s.s.s.s.s.s.s.s.s.s.s.s.s.s.s.s.s.s.s.s.s.s.s.@ .                                     ",
"              . . D ( ( ( C . X ( ..s.s.s.s.s.s.s.s.s.s.s.s.s.s.s.s.s.s.s.s.s.s.s.s.s.s.X .                                     ",
"              . * ( ( ( ( ( A V | a.s.s.s.s.s.s.s.s.s.s.s.s.s.s.s.s.s.s.s.s.s.s.s.s.s.{ . .                                     ",
"            . . Z ( ( ( ( ( ( | #.s.s.s.s.s.s.s.s.s.s.s.s.s.s.$.s.s.s.s.s.s.s.s.s.s.s.K . .                                     ",
"            . @ / ( ( ( ( ( ( +.a.s.s.s.s.s.s.s.s.s.s.s.s.X.q T s.s.s.s.s.s.s.s.s.$.$.= .                                       ",
"            H ! ( ( ( ( ( ( ..s.s.s.s.s.s.s.s.s.s.s.s.s.s.` . X Y s.s.s.s.s.s.s.s.$.J . .                                       ",
"            ( ( ( ( ( ( (  .a.s.s.s.s.s.s.s.s.s.s.s.s.s.s.s.U . . Y s.s.s.s.s.s.s._ X .                                         ",
"          - ! ( ( ( ( ( | #.s.s.s.s.s.s.s.s.s.s.s.s.s.s.s.s.s.Y . . E s.s.s.s.s.{ @ .                                           ",
"        . . S ( ( ( ( ( +.s.s.s.s.s.s.s.s.s.s.s.s.s.s.s.s.s.s.s.L . + [ s.s.s.X.= . .                                           ",
"        . . ^ ( ( ( ( ..s.s.s.s.s.s.s.s.s.s.s.s.s.s.s.s.s.s.s.s.s.p . , $.s.] @ . .                                             ",
"        . < ( ( ( (  .#.a.a.s.s.s.s.s.s.s.s.s.s.s.s.s.s.s.s.s.s.s.@.; . J R X . .                                               ",
"      . . C ( ( ( ( #.s.a._ Y s.s.s.s.s.s.s.s.s.s.s.s.s.s.s.s.s.s.$.' X X . . .                                                 ",
"      . . ~ ( ( ( +.a.s.s., . f s.s.s.s.s.s.s.s.s.s.s.s.s.s.s.s.s.s.` @ . .                                                     ",
"      . : ( ( (  .s.a.a.s._ X . f s.s.s.s.s.s.s.s.s.s.s.s.s.s.$.o.p . . .                                                       ",
"    . . u ( ( ( a.s.s.s.s.s._ X . s s.s.s.s.s.s.s.s.s.s.s.s.$.I + . .                                                           ",
"    . . F ( ( +.a.s.s.s.s.s.s._ X . J s.s.s.s.s.s.s.s.s.$.R , . . .                                                             ",
"    . X ( (  .$.a.s.s.s.s.s.s.s.W X w s.s.s.s.s.s.s.$.T ; . . .                                                                 ",
"    . 8 ( ( #.$.s.s.s.s.s.s.s.s.$.o.@.s.s.s.s.s.@.Y ; . . .                                                                     ",
"    . u ( O.s.s.s.s.s.s.s.s.s.s.s.s.s.$.s.s.{ s + . . .                                                                         ",
"  . . D  .$.s.s.s.s.s.s.s.s.s.s.s.$.s.$.R e X . . .                                                                             ",
"  . . ^ +.s.s.s.s.s.s.s.s.s.s.s.$.` p + . . . .                                                                                 ",
"  . X  .s.s.s.s.s.s.s.s.s.a.` f - . . . .                                                                                       ",
"  . & #.s.s.s.s.$.$.o.T r @ . . . .                                                                                             ",
"  . @ $.#.X._ P r - . . . . . .                                                                                                 ",
"  . . X X . . . . . . .                                                                                                         ",
"    . . . . . .                                                                                                                 "
};
