/* XPM */
static char *result[] = {
/* columns rows colors chars-per-pixel */
"64 64 151 2 ",
"   c #051E2D",
".  c #07202D",
"X  c #0B242E",
"o  c #0F282F",
"O  c #112B2F",
"+  c #0D2630",
"@  c #0F2930",
"#  c #132D31",
"$  c #173031",
"%  c #1B3433",
"&  c #1F3833",
"*  c #233C34",
"=  c #263D3B",
"-  c #274036",
";  c #2A4436",
":  c #2D4638",
">  c #2F4938",
",  c #354E37",
"<  c #334D39",
"1  c #3A5436",
"2  c #365039",
"3  c #3B543B",
"4  c #3F583C",
"5  c #435C3C",
"6  c #46603E",
"7  c #4B653E",
"8  c #516A3F",
"9  c #55703B",
"0  c #5C763E",
"q  c #3B514C",
"w  c #435C40",
"e  c #4F6940",
"r  c #526C41",
"t  c #516848",
"y  c #567041",
"u  c #5B7543",
"i  c #5F7A45",
"p  c #5E734C",
"a  c #627D44",
"s  c #617A48",
"d  c #697C5C",
"f  c #668145",
"g  c #6D8847",
"h  c #678148",
"j  c #698448",
"k  c #6F8948",
"l  c #728D49",
"z  c #7C9643",
"x  c #76914A",
"c  c #7B964B",
"v  c #7E9A4C",
"b  c #6E8750",
"n  c #778E52",
"m  c #7F9850",
"M  c #758674",
"N  c #839C46",
"B  c #829D4D",
"V  c #809C52",
"C  c #849E58",
"Z  c #8FA947",
"A  c #86A14E",
"S  c #8AA54F",
"D  c #8FAB4C",
"F  c #92AD45",
"G  c #92AD4E",
"H  c #97B143",
"J  c #9EB946",
"K  c #9BB54B",
"L  c #9EB94A",
"P  c #87A150",
"I  c #8BA550",
"U  c #8FAA50",
"Y  c #93AD52",
"T  c #96B153",
"R  c #9AB454",
"E  c #9DB954",
"W  c #9CB35C",
"Q  c #A0BB47",
"!  c #A2BD4B",
"~  c #A2BD54",
"^  c #A2BB5A",
"/  c #8F9E78",
"(  c #92A265",
")  c #9FB16C",
"_  c #93A375",
"`  c #9CAD79",
"'  c #AEBF7C",
"]  c #A6C14D",
"[  c #A9C44E",
"{  c #AFC94F",
"}  c #BAD64F",
"|  c #A6C153",
" . c #AAC553",
".. c #AEC954",
"X. c #A7C258",
"o. c #ACC559",
"O. c #AECA59",
"+. c #B1CC56",
"@. c #B3CD5A",
"#. c #B8CC5F",
"$. c #B6D456",
"%. c #BAD555",
"&. c #BCD855",
"*. c #B6D25B",
"=. c #B9D45B",
"-. c #BCD95C",
";. c #B6CD63",
":. c #B8CF65",
">. c #B7CB6A",
",. c #B9CD6C",
"<. c #B7D261",
"1. c #BAD262",
"2. c #BBD16B",
"3. c #B4C473",
"4. c #B7CA76",
"5. c #BACC74",
"6. c #BAC77B",
"7. c #BBCB7B",
"8. c #BED174",
"9. c #C9CE67",
"0. c #CCCA6C",
"q. c #C4CD77",
"w. c #CBCD71",
"e. c #C4CC7D",
"r. c #C2D479",
"t. c #D4D077",
"y. c #BAC386",
"u. c #BCCA81",
"i. c #BECA89",
"p. c #B6C1A3",
"a. c #C1C582",
"s. c #C1CB81",
"d. c #C2CC89",
"f. c #C9CD8C",
"g. c #C9D387",
"h. c #C2D18D",
"j. c #CBD58C",
"k. c #C2CE92",
"l. c #CCCF96",
"z. c #CBD592",
"x. c #CCD49C",
"c. c #CEDA99",
"v. c #D6D997",
"b. c #D0D59B",
"n. c #D0DA98",
"m. c #CDD4A2",
"M. c #D1D6A5",
"N. c #D2DBA3",
"B. c #D4DAAB",
"V. c #D9DFB3",
"C. c #D8E2B5",
/* pixels */
"=.=.=.=.=.=.=.=.=.*.=.=.=.=.=.*.=.$.$.%.%.=.9.=.$.#.%.=.=.=.=.=.*.=.=.=.=.-.$.=.=.=.=.*.=.=.=.=.=.=.=.$.=.=.=.=.$.$.<.$.<.=.=.=.",
"=.=.=.=.*.=.*.=.=.=.=.=.=.=.=.$.&.=.=.1.=.=.=.=.=.=.=.=.=.=.=.=.=.=.=.=.<.i.2.u.,.=.=.=.*.=.=.=.=.*.=.=.*.=.*.=.=.=.=.;.*.$.=.=.",
"=.=.=.=.=.=.=.=.=.%.*.=.=.=.=.=.%.>.>.5.5.#.&.%.=.=.=.=.=.=.=.=.*.=.=.=.>.M.u.C.8.*.=.=.=.$.=.=.=.=.=.=.=.=.=.*.<.<.7.m.C.,.=.=.",
"=.=.*.=.=.=.=.=.*.=.=.=.=.=.=.*.=.u.n.e.k.>.%.%.=.=.1.*.*.1.=.=.=.=.=.=.1.z.r.i.<.=.=.=.=.=.=.=.=.-.=.=.-.=.=.=.$.8.V.8.z.<.%.=.",
"=.=.=.=.=.=.%.$.+.=.=.=.*.=.=.<.%.5.d.7.M.7.$.=.=.$.=.+. .+.1.=.=.O.E U m / / ` T O.=.=.=.=.=.@.E E E E E E E X.=.:.a.v.3.E R E ",
"=.$.%.=.=.[ 9.+.! *.<. . .=.=.=.} :.k.N.4.<.=.=.=.=.=. .[  .*.R s < % @ + . + + $ B -.=.=.=.=.T - % % $ % $ $ 2 o.=.5.c.) - $ % ",
"=.=.=.=.=.! o.~ Q ! o.| J *.=.=.%.%.,.>.=.=.=.*.=.=.=.o.+.~ s %                   j =.=...*. .v . . .         # T %.=.1.^ %     ",
"=.=.#.-.%.! ! { #.....*.[ ..=.=.=.=.=.=.$.=.=.=.=.=.=.=.~ 5 .   .                 a -.*.| X.~ i . . . . .     . V &.%.=. .*   . ",
"%.%.$.1.;.#.$.=.$.%.=.=.=.=.=.%.=.=.1.1.=.=.=.=.=.=.-.o.4   .         .     .     r =.=.o... .1   . .           s =.=.=.#.:     ",
"=.%.%.4.M.,.=.=.1.=.%.=.=.=.=.=.=.=.%.=.=.=.=.=.=.=.=.h .         . .   .     .   5 *.=.$.=.O.>                 5 #.=.:.#.,     ",
":.=.8.e.t.s.5.=.=.=.=.=.$.=.=.=.=.=.$.$.=.=.=.=.=.=.E *   .   .   .     .         3 @.=.=.=.E %       .         *  .=.=.@.5     ",
"} #.h.l.0.g.,.=.=.=.=.=.=.=.=.=.=.=.=.=.=.=.=.=.=.=.k .   . .   .     .           > O.=.=.-.S +     .     .     O G =.=.=.5     ",
"=.} #.7.B.3.=.%.=.=.=.=.=.=.#.=.=.=.=.=.=.=.$.=.=.*.6 .   .           .     + # X -  .=.=.=.g       .       .   . x =.=.%.r     ",
"=.=.=.1.;.1.%.%.=.=.%.=.=.=.=.=.=.=.=.=.$.=.=.=.=.O.;   .     .   .     - s I T Y A @.=.=.=.7         . .     .   r =.=.-.u     ",
"%.=.%.=.9.=.%.=.1.%.=.=.=.=.=.$.=.=.=.=.=.=.=.=.=.X.& . .     .     . 6 ~ =.-.=.=.=.=.=.=.O.<     .   . .         < O.=.=.a     ",
"=.=.=.%.#.=.=.-.#.=.$.=.$.=.=.=.=.$.=.*...*.=.=.=.E % .     .   .   2 o.=.=.=.-.=.-.1.-.-.E #             .       % ~ =.-.j     ",
"=.=.=.*.=.*.=.=.=.*.=.*.=.=.=.$.=.=.=.*.! @.=.=.=.X.&     . .   . + B %.%.#.Y I I I I ~ =.B .   . + %       . .   X A =.-.k     ",
"=.=.=.=.=.=.*.=.=.=.=.=.*.=.=.=.=.=.=.*.] O.=.=.=.o.;             % ^ %.%.#.2 + o o X a -.u       < l +         .   f =.-.x .   ",
"=.=.=.=.=.=.=.=.=.=.=.=.=.*.*.=.=.*.*.@.| O.=.=.O. .5   .     .   % ~ %.#.%.5         a #.3     . f o.:     .   .   4 =.=.c . . ",
"=.=.=.=.*.=.*.=.=.=.=.=.<.] ..@.$.*.1.@. ...=.<.X. .k .   . .     + N %.=.=.r         z ~ *     # T %.s   .         * X.-.v . . ",
"=.=.=.*.=.=.1.=.=.#.=.=.=.{  .! | | O.O.@.O.<.<.X...E &   . . .     , ^ -.-.a       o B B +     2 O.-.G O .   . . . @ Y -.S X . ",
"=.=.=.=.%.$.>.;.7.f.:.=.=.+.@.O.| L H ! *.L |  .o.] *.h . . . .       5 B ^ a +     + F a       4 v h 5 X . .   . . X k 1.I X . ",
"*.=.=.=.*.;.N.b.e.b.#.=.=.@.+.1.*... .] =...] J O.J L E 5 . . .           = *       # G 5       X .       .       .   e <.U o . ",
"=.=.*.=.=.;.j.l.l.e.%.=.=.#.=.=.=.=.=.=.=.1.=...*... .] E e + .                     $ S *     * 2     . $ .   .     . > @.U @   ",
"=.=.=.=.=.*.7.y.x.q.%.=.*.=.1.=.=.=.=.=.$.=.=.=.=.=.<.*.*.@.c < X                   % b +     5 A o % g v o           # R T @   ",
"=.=.=.=.;.5.x.f.3.:.=.=.=.=.=.=.=.=.=.=.*.=.=.$.=.=.=.=.$.=.=.O.B y , * $ $ $ $ & = t m e e e S @.i I %.O.8 7 e 7 6 6 r E X.y e ",
"=.=.%.=.5.M.9.w.m.;.$.=.=.=.=.=.=.*.=.*.=.=.=.=.*.=.=.=.=.=...$.=.=.#. .~ ^ R W ' i.>.=.=.=.-.=.*.$.%.=.$.! *.=.=.] [ =.<.=.=.1.",
"=.=.=.=.1.>.j.j.>.=.%.=.=.=.=.=.=.=.=.=.=.=.=.=.=.=.=.*.$.$.....=.=.%.#.#.=.=.=.2.8.<.%.$.=.=.=.*.*.=.=.[ | *.=...] *.=.| *.=.=.",
"=.=.=.=.1.#.7.e.#.=.1.=.=.=.=.=.=.*.$.=.=.=.=.=.=.=.*.=.=.$.=.*.=.=.=.=.%.=.=.%.<.*.=.=.=.=.=.*.] *.<.*. . .<.*. . .=...] =.<.=.",
"=.#.=.=.=.%.#.:.-.=.=.=.=.=.=.=.=.=.=.=.*.=.=.=.=.*.=.=.=.=.=.=.=.=.=.%.#.=.=.%.=.*...O.*.=.$.=.] [ .. .O.|  ...*.o.O.| O.=.=.=.",
"=.=.=.%.%.=.%.%.=.=.=.=.=.=.$.=.=.=.=.=.=.=.$.=.=.=.=.=.=.*.=.*.=.=.=.=.=.1.=.%.=.$.] | O.$.=.=.@.] K ] *.L J | @.K | ..X.] *.<.",
"=.=.=.=.=.=.#.=.=.#.*.=.=.=.$.=.*.$.=.=.=.=.=.=.=.*.=.*.=.=.=.=.=.=.%.#.=.=.=.=.=.=.@.*.*.<.<.=.*. .[ ..=.O. . .=.| O.[ J !  .=.",
"=.=.=.=.*.*.! *.=. . .1.=.=.%.=.=.=.=.=.=.$.=.=.=.=.=.=.=.=.=.=.=.=.=.=.*.=.*.=.=.=.=.<.<.-.=.<.*.*.<.=.=.=.=.*.=.*.=.*.*.[  .<.",
"=.=.=.=.=.*.! @.1. . ...<.=.=.=.=.=.=.=.=.=.=.=.=.=.=.=.=.=.*.=.=.=.=.=.=.=.=.=.=.=.=.=.=.=.=.=.=.=.=.=.=.$.=.=.=.$.=.$.$.=.=.=.",
"=.=.=.=... .|  .@. .~ ! O.O.[ ..=.=.$.*.*.=.=.=.=.=.$.=.=.*.=.*.=.*.=.$.=.=.*.=.=.=.=.=.=.=.=.*.*.=.=.=.=.=.=.=.=.=.=.=.$.=.=.=.",
"=.=.=.=.+.] ! L H | ! L L !  .+.=.=.=.$.] ..=.$.=.=.=.=.=.=.=.=.=.=.=.=.=.=.=.=.=.=.$.=.=.=.=.=.=.=.=.=.=.=.=.=.=.=.=.=.=.=.=.=.",
"=.=.=.*.=...| @.] | ..@.@.@.#.=.=.%.-.=...$.=.-.=.=.*.=.=.%.-.=.=.=.=.=.=.%.=.=.=.=.1.=.1.=.=.-.=.-.=.-.=.=.=.=.=.=.=.*.=.-.=.=.",
"*.=.=.=.=.*.$.=.=.=.o.T W R R R T R T R R R T R O.=.=.=.@.Y k u 7 7 r f B  .=.=.=.5.d.;.2.#.~ U v c v v Y O.=.=.=.=.=.*.~ R R R ",
"*.=.=.*.=.$.=.%.=.=.j # # % % # $ # $ $ $ # $ & U =.=.U 4 o             . g -.=.1.i.M.' n w * o X X . . @ v -.$.*.=.=.$.e # $ $ ",
"=.=.=.=.=.=.=.=.=.%.j                   . . . O Y -.v %       .           u %.9.7.M.( q .       . . . . X x -.*...=.=.*.5 . . . ",
"=.=.=.=.=.<.=.=.=.-.l .       .   .   .       # E E *     . .             r $.1.,._ %       . . .     . . g =.+.] $.=.=.r . . . ",
"=.$.<.=.=.=.=.=.=.-.v . .   .         . .     & | h . . .                 e =.=.Y $                 .   . j 1. .! O.=.-.u .   . ",
"=.=.<.*...$.=.=.=.=.B .   .     . .           * X.4           . .     .   5 =.o.2             +   . .   . i 1.<.O.*.=.-.f   .   ",
"=.$.=...] ..=.=.=.-.I +       .     .         ; ~ <       . .       .     5 1.v +               .   . .   u =.<.<.<.<.-.k   .   ",
"=.=.=. .] ..=.=.=.=.G +   . .   .   . .       > o.3       . .     .       2 *.5                         . e *.=.=.<.=.-.x X . . ",
"=.=.<.=.@.$.=.$.=.-.K #       .     . $ $ # . 3 *.r           . .     . X 2 ~ *                     . @ X e *.$.=.=.=.1.v .     ",
"=.=.=.=.=.=.=.=.-.1.E $           . o v E T B z =.I O   .           # s v B Y #                 @ e v I S T =.=.=.=.=.-.v X .   ",
"=.=.=.=.=.-.%.$.=.1.E $     .       $ E -.-.=. . .| 7     .         7 @.! ! I X               $ k ..=.-.-.=.=.=.$.=.=.-.I X   . ",
"*.=.$.=.=.=.=.=.=.=.~ %   .   .     @ u h h i x | L Z 2         .   5 | K H c @   . .         u ]  .=.=.=.=.=.=.=.=.=.-.U o . . ",
"=.=.=.=.=.=.=.=.=.=.| *         .   .     .   u  .*.*.X.5       . . # A .. .z @             # Y  ...=.=.=.=.=.=.=.=.=.=.T @   . ",
"=.=.=.=.=.=.;.;.9.-.X.*   . .     .         @ I =.=.*.=.o.7 .     .   2 o.-.E &       .     & ~ 1.=.=.=.=.=.=.=.=.=.=.=.T @     ",
"=.=.=.=.#.;.z.z.#.=.o.;     .   . . . % % $ & ~ =.$.$.=.=.@.t       . X v -.O.2             & X.-.=.=.| @.=.=.=. ...=.-.E $     ",
"=.=.%.=.1.q.q.u.4.$. .;             & D E E T *.=.=.=.=.=.&.L %         6 =.=.f     .   .   + V -.*.#.[  .*.=.*.L *.<.=.E % . . ",
"=.=.=.=.#.N.b.N.m.<.*.<             - O.1.-.%.=.=.=.=.=.-.1.o.=         ; O.%.E %   .         2 o.+.!  .] [ +.@.] @.=.=.E &   . ",
"=.=.=.-.#.,.6.4.>.*.O.<         .   - T R Y A v @.%.=.P C _ p +         > O.=.=.f .   .   . . . 3 S K K A N ] [ ] J @...Z &     ",
"=.=.=.#.%.%.*.#.%.=.*.2         . . o % $ o . 3 @.%.1.y + #             r =.=.=.O.6     .         @ & * O 0 Q !  .H ! [ ! *   . ",
"=.=.=.=.=.$...[ =.=.*.3                       i =.%.=.c               * G =.=.=.=.X.e       .     . . . X v $...=.*.+... .- . . ",
"=.=.=.=.=.<.*.! *.*.@.1                     . B %.=.=.R o           * B =.=.=.=.=.=.3.M #         . . . $ E =.=.=.=.*.$.O.;     ",
"=.=.=.=.=.X.O.| ~ ~ X.f 7 8 6 r y y y y 8 y u X.=.=.=.o.9 , = ; , a E =.=.=.=.=.=.1.;.5.p.d < & @ # $ * r O.*.=.*.=.*.=.*.k 8 y ",
"=.$.=.=.$.| H L L L | L J ! ! =.-.=.=.=.*.=.=.=.=.9.=.=.#.+.O.@.+.=.-.1.*.=.*.=.=.%.=.;.m.5.O.~ T T E X.*.=.=.=.=.=.=.=.=.%.=.=.",
"=.=.=.=.*.+. .@.@.$.$.....O. .#.=.*.=.$.=.*.=.=.=.=.%.=.=.=.=.=.=.=.=.=.=.*.=.=.=.$.<.1.#.1.=.-.=.-.%.=.=.=.=.=.*.=.=.=.=.=.=.=.",
"=.=.=.=.=.=.=.=.=.=.$.=.=.=.<.=.=.=.=.=.=.=.=.$.=.=.=.=.=.=.=.1.=.=.=.$.=.=.*.=.=.=.=.=.=.%.=.=.=.=.=.=.=.=.=.*.=.=.=.=.=.=.=.=.",
"=.=.=.=.*.=.*.=.=.=.*.=.=.=.=.=.=.=.=.=.=.=.=.=.=.=.=.=.*.=.=.=.=.=.=.=.=.=.=.=.=.=.=.*.=.=.=.=.=.=.=.=.*.$.*.=.=.=.*.=.=.=.=.=.",
"=.*.=.=.=.=.=.=.=.=.=.=.=.=.=.=.=.=.=.=.=.=.*.=.=.=.=.=.=.=.=.=.=.=.=.=.=.*.=.%.*.=.=.=.=.=.=.*.=.=.=.=.=.=.=.=.=.*.=.=.=.$.=.=."
};
