/* XPM */
static char *_5cf5a4c83334ae0b157b9d7961a18b1rizpHymEKAojIWX6[] = {
/* columns rows colors chars-per-pixel */
"64 64 172 2 ",
"   c #051E2D",
".  c #07202D",
"X  c #0B242E",
"o  c #0F282F",
"O  c #112A2F",
"+  c #1F382F",
"@  c #0F2732",
"#  c #0F2930",
"$  c #132C31",
"%  c #162D39",
"&  c #182F3B",
"*  c #163031",
"=  c #1A3332",
"-  c #1F3932",
";  c #1B333B",
":  c #233C35",
">  c #253C3D",
",  c #2A3E3F",
"<  c #274036",
"1  c #2B4436",
"2  c #2F4937",
"3  c #2E4739",
"4  c #364F36",
"5  c #324B39",
"6  c #37513A",
"7  c #3B553B",
"8  c #3E583C",
"9  c #445D3C",
"0  c #47613E",
"q  c #4A643E",
"w  c #4E693F",
"e  c #516A3F",
"r  c #56703D",
"t  c #5A743C",
"y  c #627C3F",
"u  c #203640",
"i  c #2F4446",
"p  c #324744",
"a  c #354A42",
"s  c #3B5051",
"d  c #445B42",
"f  c #44584E",
"g  c #4A5F4C",
"h  c #4B6441",
"j  c #4F6940",
"k  c #4C6248",
"l  c #526C41",
"z  c #57664E",
"x  c #567041",
"c  c #5A7443",
"v  c #5D7844",
"b  c #5C6E5B",
"n  c #627D45",
"m  c #63784C",
"M  c #6E883E",
"N  c #678146",
"B  c #6B8547",
"V  c #6E8945",
"C  c #6B8549",
"Z  c #6F8948",
"A  c #728C49",
"S  c #7D9747",
"D  c #76904A",
"F  c #7A944B",
"G  c #7E994B",
"H  c #748954",
"J  c #819B46",
"K  c #829D4D",
"L  c #859E52",
"P  c #81935B",
"I  c #86A14E",
"U  c #8AA44E",
"Y  c #8EA94D",
"T  c #92AD4C",
"R  c #97B246",
"E  c #9BB545",
"W  c #9DB64A",
"Q  c #9EB94B",
"!  c #8BA551",
"~  c #8EA950",
"^  c #92AD52",
"/  c #91A75E",
"(  c #93AB5A",
")  c #96B152",
"_  c #9AB553",
"`  c #9DB954",
"'  c #9FBB5F",
"]  c #A2BD4C",
"[  c #A0B756",
"{  c #A2BD54",
"}  c #A3BB58",
"|  c #8C9D6F",
" . c #8DA262",
".. c #8DA168",
"X. c #93A66B",
"o. c #9FB36E",
"O. c #9AAA77",
"+. c #A3AE6B",
"@. c #A2B265",
"#. c #A6B46C",
"$. c #A4AB76",
"%. c #A4B672",
"&. c #A0B17A",
"*. c #A9B27F",
"=. c #ADBE7D",
"-. c #B1B77E",
";. c #A6C14E",
":. c #A9C44D",
">. c #ACC84E",
",. c #BAD44A",
"<. c #A6C154",
"1. c #AAC553",
"2. c #AEC954",
"3. c #A7C458",
"4. c #AAC45A",
"5. c #AEC959",
"6. c #B1CD55",
"7. c #B3CD5A",
"8. c #B5D356",
"9. c #BAD556",
"0. c #BAD857",
"q. c #B6D25B",
"w. c #B9D45B",
"e. c #BDD95C",
"r. c #ADC369",
"t. c #B6CD64",
"y. c #B9CE63",
"u. c #B2C66D",
"i. c #B6CB6B",
"p. c #B9CC6B",
"a. c #B6D261",
"s. c #BAD362",
"d. c #BBD964",
"f. c #BAD06A",
"g. c #B1C571",
"h. c #B4C870",
"j. c #BBCC74",
"k. c #B6C478",
"l. c #BAC77A",
"z. c #BCCD7C",
"x. c #BDD173",
"c. c #BED17B",
"v. c #CACF6C",
"b. c #C7CB73",
"n. c #C4CC7C",
"m. c #C4D67A",
"M. c #889781",
"N. c #A9B68B",
"B. c #A6B29C",
"V. c #B5BF9A",
"C. c #B0C082",
"Z. c #B9CA80",
"A. c #B6C388",
"S. c #BDC788",
"D. c #BFD082",
"F. c #C4CC82",
"G. c #C2C58C",
"H. c #C1D383",
"J. c #C4D28B",
"K. c #CBD58A",
"L. c #C5CC96",
"P. c #C8CF9A",
"I. c #CCD693",
"U. c #CBD998",
"Y. c #D7DF97",
"T. c #D1DB99",
"R. c #CED4A3",
"E. c #D3D9A4",
"W. c #D9DBAF",
"Q. c #D8E2B5",
"!. c #DEE8B1",
"~. c #EBEDCB",
/* pixels */
"w.w.w.w.w.w.w.q.w.w.w.w.w.w.w.q.w.9.9.w.9.w.e.w.w.w.9.w.w.w.w.q.w.w.w.w.w.w.q.w.9.w.w.w.w.w.w.w.w.w.w.8.w.w.w.w.q.8.a.8.a.w.w.w.",
"w.w.w.q.w.q.w.w.w.q.q.w.w.w.w.9.9.w.w.w.w.w.w.w.w.y.w.w.w.w.w.w.w.q.w.w.t.H.i.Z.p.w.w.w.w.w.w.w.w.q.w.w.w.w.w.w.q.0.w.7.q.8.w.w.",
"w.w.w.w.w.w.w.w.w.w.q.w.w.w.q.w.9.p.h.p.j.w.9.w.w.w.w.w.w.w.w.w.w.q.w.w.i.E.c.Q.c.q.w.w.q.w.w.w.w.w.w.w.w.w.w.w.a.w.z.R.Q.i.w.w.",
"w.0.w.w.w.w.w.q.q.w.9.w.w.w.0.a.w.F.T.F.L.t.9.9.w.w.y.w.w.s.w.w.w.w.w.w.t.I.n.S.s.w.w.w.w.w.w.w.0.w.0.w.w.w.w.w.0.c.W.m.I.t.w.w.",
"` ` ` ` q.w.w.9.6.w.q.` ` ` ` ` Q %.Z.+.V.o.` ` [ ] [ ) T _ [ ` 3.w.w.q.t.J.G.k._ ` ` ` ` W [ [ ` ` ` ` ` q.` ` ` [ $.N.o.w.w.w.",
"= = * = G 2.w.2.] q.L = = = = = O f | > ; = = = = = = = = $ * = N w.q.w.q.q.5.a $ * = = = = = + = = = $ 7 3.7 $ = * = ; : G w.w.",
"        7 W 1.{ ] W 8             7  .$                         N w.q.w.w.w.5.6                 . .     5 3.5             * G w.",
".       O J 1.1.q.K #             9 ` *     .                   Z w.w.w.w.w.q.8                 . .     4 W 7         . . . = Z ",
"          q 8.9.9.9               q { =   .     .               F e.w.w.w.w.w.9           X             8 ;.7           . .   @ ",
".         O T v.L O               e 1.:             . . . .   . I w.q.w.w.w.w.q                         e w.w       .           ",
"            d 4.9                 x 2.<           .       .   @ ~ 0.w.w.w.w.w.r                         v e.c   . .             ",
"  .         $ 9 X                 n 7.2                       $ ^ w.w.w.w.w.w.m                     .   N e.n         . . .     ",
"    .                             N q.5       . .     $ * $ . * ` 9.y.9.w.w.e.n                 O O o . A e.B .   . .         . ",
".   .     X           X X         A w.7     .     .   l ` ^ K K 5.e.w.w.w.w.e.n               1 ) _ ! F ` e.A .           .     ",
"      .                         . D q.7               Z e.e.e.e.w.w.w.w.w.w.w.Z           X   9 w.e.e.e.w.e.G   @     .   . .   ",
". .               X         X   . G w.9               h Z Z Z H u.w.9.w.w.w.e.D               , Z Z Z B ` e.K         .       . ",
"          .                     X L w.h .     .   .   .       f l.p.y.9.w.w.s.J .               . .   $ ) e.! o               . ",
"  .           .                 X U w.j   . .                 m b.p.v.9.w.w.w.K .   . .         . .   2 7.s./ o                 ",
"        .   .                   o ! w.x   .         . $ = $ $ | ~.b.9.9.9.w.e.K X .     .     X = = X q ,.y.N.%       : =   .   ",
".   : o     .         : $       o ~ v.x       .     @ A { _ ~ #.j.t.,.y.e.w.s.L o   .     .   9 ) ` T ` y.n.N.;       x ) 7 .   ",
"    v j             o A 1       O J 7.n             o ^ e.e.0.d.w.w.w.w.w.9.t.X.$             m d.e.e.e.n.!.O.=       c e.5.c $ ",
"    Z } 3           w 2.6       O J E r         .   o G ` ) ~ G } w.w.9.y.y.w...@             c { ) ^ K ^ z.%.;       c e.w.q.U ",
"    Z e.! *       : } 7.6       O Y 6.t             . * * * o = [ e.w.y.I.G.K.O.&             O = * $ . A s.4.:       c w.w.w.w.",
"  . Z e.w.C .   % P e.7.6       * W e.B         .   .       . 2 2.w.w.h.F.v.I.X.%   .                 # ^ w.5.<       N s.w.w.w.",
"    D e.w.7.g   b j.9.7.9       * ` w.D .               . .   q 9.w.y.n.Y.b.P.&.;                     : 3.w.5.1       n w.w.q.w.",
"l w ^ w.y.j.*.z #.t.w.w.A w q q c 3.w.) l j h j h j j q w j q U w.9.w.p.j.l.J.=.b k k q w q j j q w q B q.:.5.Z q 9 9 ! e.w.w.w.",
"e.e.9.s.p.E.v.b.R.t.9.w.w.w.w.w.w.w.w.w.w.0.0.w.w.w.w.0.0.w.6.8.w.w.w.9.w.w.9.t.D.I.i.w.9.w.e.w.0.w.w.0.6.;.7.w.w.:.:.s.a.w.a.w.",
"w.w.9.w.y.u.K.K.i.w.w.w.w.w.w.w.w.w.w.w.w.w.w.w.w.w.w.w.w.q.2.>.w.w.w.7.w.w.w.q.p.x.s.w.9.w.w.w.w.w.w.w.:.1.q.w.6.] 6.w.1.q.a.w.",
"w.w.9.w.y.w.n.z.q.w.w.w.w.w.w.q.w.w.q.w.w.q.w.w.w.w.w.w.q.w.w.q.q.w.q.w.w.q.9.9.w.q.w.w.w.w.w.w.:.q.q.7.1.2.q.7.2.1.q.2.] q.w.a.",
"w.w.w.w.w.w.y.y.w.w.w.w.w.w.w.w.w.w.w.w.w.w.0.q.w.w.q.w.q.w.q.w.w.w.w.w.w.v.9.9.w.q.2.5.w.w.8.w.;.1.1.2.7.{ 1.5.7.4.5.1.5.w.w.w.",
"w.w.y.w.9.9.y.9.w.w.y.w.w.w.w.8.q.q.w.q.q.w.w.w.w.q.w.w.w.q.w.0.w.w.w.q.w.w.q.9.w.q.;.<.5.q.w.w.2.;.W ;.7.Q E <.7.W <.1.<.;.q.w.",
"w.w.9.w.w.q.7.w.w.q.q.w.w.w.9.w.w.w.w.w.0.q.q.w.w.w.w.q.w.w.w.q.w.w.w.q.w.w.q.q.w.q.7.7.q.w.a.w.q.1.1.2.q.2.2.2.q.<.2.:.] ] 2.a.",
"w.w.w.w.w.q.] q.w.1.1.w.w.w.9.w.w.q.w.w.w.w.w.q.q.w.q.w.w.q.w.w.w.w.w.w.q.q.w.w.w.w.w.a.a.w.w.a.w.w.w.a.0.w.w.q.0.w.q.8.w.>.>.w.",
"w.w.w.w.w.y.] 7.s.1.1.1.y.w.w.w.w.w.q.w.q.q.w.w.0.q.0.w.w.w.w.w.9.w.w.q.w.w.w.q.w.w.w.w.a.w.w.w.w.a.w.w.q.q.q.q.w.q.q.q.w.q.a.w.",
"w.w.w.w.>.1.] 1.7.4.{ ] 5.7.2.6.w.q.w.q.q.w.q.w.w.w.q.w.q.w.w.w.q.w.w.w.q.w.w.q.w.w.w.w.w.w.w.w.q.w.w.w.w.q.q.w.q.q.0.w.w.w.w.w.",
"w.q.w.9.7.] ] ] E { ] E ] ] ] 7.w.0.w.8.>.>.w.w.w.w.w.w.q.w.w.w.w.w.q.w.w.w.w.9.w.w.8.w.w.w.w.8.w.w.w.w.w.w.w.w.w.w.w.w.w.w.0.q.",
"w.w.w.w.w.2.] 7.:.1.2.6.7.7.q.w.0.q.5.1.] 7.0.w.w.w.w.w.w.w.w.e.e.w.e.9.w.9.e.e.0.a.a.w.s.9.8.q.w.q.w.w.q.w.w.w.q.w.w.q.5.3.3.5.",
"_ _ _ _ [ ) _ [ _ { w.w.w.w.y.[ Z 9 3 < 2 h D 3.w.w.w.w.w.` ! G A V m m n B D ! { u.J.a.f.a.w.w.w.w.q.w.q.w.w.w.w.3.D 9 < : : 2 ",
"* * * * * % * * * Z e.w.w.7.C :         .   . 1 G 0.w.q.q.q . . . .           O = f M.C.f.a.w.w.w.w.q.q.w.0.q.w.U 1 .       . . ",
"      .           n w.w.7.c X       .   . . . . $ A q.q.w.h                         X s  .w.w.w.q.w.w.0.w.q.0.G * .       . . . ",
".     .     .   . D e.w.V             .       .   $ I w.w.x     . .     .       . .     = U w.w.w.w.w.w.w.w.) =         . .     ",
".     .   . .     K e.[ :       .     .   .         5 2.w.v           .     .             3 3.w.w.w.w.w.w.q.9     . .         . ",
"                . ! e.n                   . .       X G e.N   .       .   .     .         . D w.q.w.w.w.w.~ #     .     .     . ",
"  . .   . .     $ ^ 5.5           . .         .       0 w.Z .   . .     .           .       q w.w.w.w.w.w.v   . .     .   .     ",
"          .     $ ` ) O   . .       . . .         .   < 4.V . .   .     .         .   .     5 5.w.w.w.w.5.8     .     .         ",
". .     . $ # @ - { K .         .     .     .     .   $ T M . .     .   .             .     1 4.w.q.q.0.5.<         . .         ",
"  .     6 _ ) U K t.Z     . . .   X q B 0 X           o K S . . . .       = n j %   .       1 2.w.q.8.0.` -       . . . 3 B v - ",
"        q w.w.9.9.d.N       . . . j q.w.q.h     .     X S ! .         .   : 4.q.A X   .     0 q.2.7.w.w.` *   .     . - _ w.w.^ ",
". .     l w.w.w.w.e.B     .     X U w.w.0.L X . .     X G ~ #             + [ 1.T *       . J 7.{ 1.w.w.[ =   .       e w.w.w.w.",
"        l w.q.q.w.9.A           * ` w.w.w.) $     . . X Y ( $             : R ] M o       5 } y.1.2.w.w.{ :       .   N w.w.w.w.",
"        < l d 7 A e.U @ .   .   * ` 8.2.0._ $ .   .   = { ) $     X       : U y +       = U e.e.w.a.q.q.7.5           N w.w.w.w.",
"                A v.` =         # Y >.2.w.I X . . . . 3 7._ *             o $ X     X , U w.9.y.w.w.w.>.6.w     .     q w.w.w.w.",
"    . .       @  .0.2.7           N 2.2.w.l   .     . x 0.] =                       , ] y.e.9.9.a.w.q.{ 6.F     .   . < 1.w.w.` ",
".   . . - p > i N.a.0.A     .     : ` w.! *         o Y 0.' =       X     X         o D 9.9.9.y.w.2.] 2.] R +     . . . B w.3.q ",
"      . A r.%.@.t.w.w.3.<           1 l :       .   d 6.f.A.u             5 :         = T 9.w.w.w.w.:.] ] ] t   .   .   $ q 7 X ",
"  . . . F 0.q.q.9.w.w.w.F o   . .         .       * ( 0.a.L.i             9 V           , _ e.w.w.a.7.1.] [ T 1     . . .   . . ",
"    . X G e.6.:.w.s.w.6.7.c .                   O D w.9.y.-.p     X       9 1.1           : ) w.w.w.w.2.7.7.6.I -     .   .     ",
"      X I a.q.Q q.7.6.] q.7.c @               = A w.w.w.y.g.p             9 w.G o       @ a ! w.w.w.w.w.w.w.0.0.~ <             ",
"e x x x _ 2.5.<.{ { 3.[ 1.7.] L 7 = o . X = h ^ w.w.y.w.w.7.A x r r x x l G w.7.l   O d B.k.w.w.w.w.w.w.w.w.q.w.0.3.n 1 * # o - ",
"w.w.w.w.w.<.R Q W ] { E R ] ] w.7.` I K Y { q.w.w.w.w.w.w.w.w.e.9.w.v.w.w.w.w.w.{ n T t.U.z.w.w.e.w.w.w.w.w.q.w.w.w.w.5.) ~ ~ K ",
"w.w.w.w.w.2.2.2.q.8.8.2.2.5.1.a.w.w.w.w.w.w.q.w.w.w.9.w.q.w.w.s.w.w.w.w.w.w.w.w.w.w.e.s.7.s.w.w.w.w.w.w.w.w.w.w.q.w.w.w.w.w.w.3.",
"w.w.q.w.w.w.w.w.q.w.8.w.w.w.a.w.w.w.w.w.w.q.9.w.w.w.w.w.q.w.w.w.w.w.w.w.w.w.w.w.w.s.w.w.w.9.w.w.w.w.q.w.w.w.w.w.w.w.q.w.w.w.w.w.",
"q.w.w.w.q.w.w.w.q.w.w.q.w.w.w.q.w.w.w.w.w.w.w.q.w.w.w.w.w.w.w.w.w.w.w.q.w.w.w.w.w.q.w.w.w.w.w.w.w.w.w.w.0.w.q.w.w.q.q.w.w.w.w.w.",
"w.w.w.q.w.w.w.w.w.w.w.w.w.w.w.w.w.w.w.w.w.w.w.q.w.w.w.w.w.w.w.w.q.w.w.q.w.w.w.w.w.w.q.w.w.w.7.w.w.w.w.w.q.w.w.w.q.0.w.w.q.q.w.w."
};
