/* XPM */
static char *_41e76a934a947599c61bb67484811ccyTI9uJIcKFyfVZyF[] = {
/* columns rows colors chars-per-pixel */
"64 64 203 2 ",
"   c #000F1E",
".  c #000726",
"X  c #000C27",
"o  c #000F28",
"O  c #001325",
"+  c #001429",
"@  c #041E2C",
"#  c #06202C",
"$  c #09232D",
"%  c #0E292F",
"&  c #122B2F",
"*  c #1A332E",
"=  c #17322F",
"-  c #0D2630",
";  c #0F2836",
":  c #132D30",
">  c #152B3C",
",  c #173131",
"<  c #1B3432",
"1  c #1E3933",
"2  c #1D353A",
"3  c #21382A",
"4  c #223C34",
"5  c #263C3A",
"6  c #243B34",
"7  c #28422E",
"8  c #264135",
"9  c #2A4436",
"0  c #274139",
"q  c #2A4338",
"w  c #2E483A",
"e  c #2E4837",
"r  c #324735",
"t  c #324B36",
"y  c #334D39",
"u  c #394F38",
"i  c #375239",
"p  c #3A543A",
"a  c #3C573A",
"s  c #425C3C",
"d  c #425B36",
"f  c #47613C",
"g  c #4B653D",
"h  c #4E693E",
"j  c #556F3D",
"k  c #5A753C",
"l  c #5B763E",
"z  c #637D3D",
"x  c #273E40",
"c  c #455A4F",
"v  c #4C6540",
"b  c #4F6940",
"n  c #556E41",
"m  c #5B7543",
"M  c #5A7048",
"N  c #5B7050",
"B  c #637D45",
"V  c #668146",
"C  c #6B8546",
"Z  c #6D8946",
"A  c #6B8449",
"S  c #6E8948",
"D  c #728C44",
"F  c #728D4A",
"G  c #7A9543",
"H  c #7F9944",
"J  c #77914B",
"K  c #7A954B",
"L  c #7E9A4B",
"P  c #718950",
"I  c #7C9752",
"U  c #8EA73D",
"Y  c #92AC3D",
"T  c #829D4D",
"R  c #859F52",
"E  c #87A24F",
"W  c #8AA44C",
"Q  c #8EA94C",
"!  c #8AA544",
"~  c #91AD4C",
"^  c #96B142",
"/  c #9AB445",
"(  c #9EB946",
")  c #96B24D",
"_  c #9CB64A",
"`  c #9EB94B",
"'  c #8CA653",
"]  c #8EAA51",
"[  c #88A057",
"{  c #93AE52",
"}  c #90A35D",
"|  c #96B152",
" . c #9AB553",
".. c #9EBA55",
"X. c #9EBA58",
"o. c #A1BC47",
"O. c #A2BD4C",
"+. c #A2BD54",
"@. c #A2BC59",
"#. c #869761",
"$. c #9FB466",
"%. c #95A56B",
"&. c #ACBF63",
"*. c #A2B667",
"=. c #A8B877",
"-. c #B4BD6A",
";. c #A6C14D",
":. c #A9C44E",
">. c #AECB4E",
",. c #B2CD4D",
"<. c #B7D64E",
"1. c #BAD64E",
"2. c #BBDB4F",
"3. c #BDD943",
"4. c #A6C155",
"5. c #AAC453",
"6. c #AEC954",
"7. c #A7C259",
"8. c #ABC658",
"9. c #AEC959",
"0. c #B2CD55",
"q. c #B3CD5B",
"w. c #B8CF5F",
"e. c #B5D356",
"r. c #B9D455",
"t. c #BEDA56",
"y. c #B6D25B",
"u. c #B8D45B",
"i. c #BDD95C",
"p. c #B7D85E",
"a. c #BFE255",
"s. c #AFC563",
"d. c #B4CC64",
"f. c #BACE62",
"g. c #B2C26B",
"h. c #B7CC6B",
"j. c #B9CD6B",
"k. c #B5C563",
"l. c #B6D261",
"z. c #BAD462",
"x. c #BDD962",
"c. c #BCD26A",
"v. c #B5D468",
"b. c #AEC076",
"n. c #B6C274",
"m. c #BACC74",
"M. c #BDC37F",
"N. c #BCCB7D",
"B. c #B5C379",
"V. c #BED272",
"C. c #BDD078",
"Z. c #C2DD5D",
"A. c #C3C852",
"S. c #C5E15E",
"D. c #C9E35D",
"F. c #CAE457",
"G. c #C9CC6A",
"H. c #C2DC63",
"J. c #C2D66C",
"K. c #C8D465",
"L. c #C3CA79",
"P. c #C3CC74",
"I. c #C7DA7D",
"U. c #C4D67D",
"Y. c #C5E161",
"T. c #C9E361",
"R. c #CEEB62",
"E. c #CAE36A",
"W. c #D3EB67",
"Q. c #748487",
"!. c #9AA786",
"~. c #AAB391",
"^. c #C1BD98",
"/. c #B6C383",
"(. c #BBC783",
"). c #BCCD82",
"_. c #BAC88B",
"`. c #BECAA3",
"'. c #C6CA85",
"]. c #C2D484",
"[. c #C4D48A",
"{. c #C9D489",
"}. c #C4CB9A",
"|. c #C7CA95",
" X c #CBD595",
".X c #CFD993",
"XX c #C9D696",
"oX c #D5DD9E",
"OX c #D2D697",
"+X c #DAE49A",
"@X c #CDD2A1",
"#X c #CCD1AF",
"$X c #D1DAA5",
"%X c #DCDFA3",
"&X c #D6DAAB",
"*X c #D6DAB6",
"=X c #D5E0A3",
"-X c #D9E2B8",
";X c #E2ECA5",
":X c #E3E7B8",
">X c #DBDEC2",
",X c #E1E6C8",
"<X c #EAF1C4",
/* pixels */
"u.u.u.u.u.u.u.u.u.u.u.u.y.u.u.u.u.r.r.u.r.u.c.u.r.u.r.u.u.u.u.u.u.u.u.e.p.e.r.p.r.u.u.u.u.u.y.u.u.y.u.u.u.u.u.p.y.e.v.<.z.u.u.u.",
"u.u.u.u.u.u.u.u.e.u.u.y.u.u.u.e.r.u.u.u.r.u.r.r.u.w.u.u.u.u.u.u.u.u.u.u.d.[.v.B.v.u.u.u.e.u.u.u.u.u.u.u.u.y.u.u.p.e.u.q.,.r.u.u.",
"u.u.y.y.y.u.u.u.u.u.y.y.y.y.y.y.r.d.g.m.N.y.1.r.r.u.u.z.u.y.y.y.y.u.y.u.k.*Xm.,XC.e.y.u.u.u.u.u.u.u.y.p.u.p.u.u.u.e.n.#X,Xs.p.u.",
"u.u.i.i.i.i.u.u.i.i.S.S.a.S.S.x.t.[.oXN.}.d.r.u.u.u.z.u.u.x.i.i.i.p.i.i.q.OXL./.d.u.u.u.u.u.y.u.u.u.u.e.u.u.u.u.0.U.>Xf.OXd.e.u.",
"u.6.+.7.7.+.q.8.| E K S A A S I ^ b..XP.*Xm.r.z.z.r.z.4.) +.7.7.4.7.4.9.d. X|.].e.u.p.u.u.u.u.u.p.u.u.u.u.u.u.u.u.f.L.oXg.u.u.u.",
"S.m @ : & $ @.h + @ + + + + + + @ & c !.m.x.e.u.r.q.Z.z @ % % % % % # V Y.0.y.9.u.u.u.y.i.u.u.u.6.e.u.u.e.u.u.u.u.w.m.&XC.u.u.u.",
"H.B O @ @ +  .g + $ $ $ $ $ $ # # @ + + y X.i.u.u.q.H.L O # @ @ @ # O E Z.y.u.u.u.u.u.u.:.u.5.z.o.9.w.z.z.y.z.u.u.r.u.q.u.p.u.u.",
"D.Z + $ @ # _ h + @ @ # @ @ # @ # # $ # + - ] S.u.w.i.@.$ @ # @ # @ % 7.i.y.u.u.u.u.u.z.O.7.` 7.9._ ..7.4.( 6.u.f.r.1.u.r.e.y.u.",
"~ G + $ @ % u.B + $ @ @ @ @ @ $ @ # @ # # + $ ..i.y.u.y.1 + # @ # + 8 i.u.u.u.u.y.r.y.u.6.9.5.` 9.4.+.` 8.;.( e.c.u.r.u.z.r.u.u.",
"% i @ # + & u.S + @ $ @ $ @ @ @ # @ # @ # $ + y i.y.y.i.p + # # # O f S.y.u.u.u.u.u.u.u.e.e.u.z.u.u.i.u.u.p.u.y.u.r.u.j.u.r.u.u.",
"@ @ # # @ 2 V.J + $ @ @ @ $ @ $ @ # # @ # # # + T Z.y.S.m + $ # $ + C S.y.u.u.u.u.u.y.u.u.u.u.e.u.u.u.u.u.y.u.u.r.u.u.u.u.u.u.u.",
"@ @ # $ + 5 J.H + $ @ @ @ @ @ @ # $ # @ # # # + s S.y.S.K + # # # + ' Z.q.u.u.u.u.u.u.u.u.u.u.u.u.u.u.u.u.u.u.u.u.u.y.u.u.u.u.u.",
"@ @ @ $ + 0 Y.W @ # # @ @ @ @ @ + + @ # # @ @ @ < y.u.i.| # # # @ $ +.Z.q.r.u.u.u.u.u.u.u.u.u.u.u.u.u.u.u.u.u.u.u.u.u.y.u.u.u.u.",
"@ $ @ $ + y D.~ @ # @ # # $ @ & V g $ @ # @ # @ $ 4.i.u.8.: + $ + 8 u.u.u.u.u.u.u.u.u.u.u.u.u.u.u.u.u.u.u.u.u.u.u.u.u.u.u.y.y.u.",
"@ $ @ $ + a D.{ @ @ # @ # # + 1 i.Y.| : @ @ # @ # | i.y.i.8 + $ + f S.y.u.u.u.u.u.y.u.y.u.u.u.u.u.u.u.y.u.u.u.u.u.u.u.u.u.u.u.u.",
"@ @ @ @ + s T. .# @ @ # # # + 4 e.y.T.C + # @ # @ Q x.l.Z.d + $ + Z F.y.u.u.z.u.y.u.z.u.y.u.u.u.u.u.u.e.u.u.u.y.y.u.y.u.u.y.u.u.",
"@ $ @ $ + g T.+.$ # # @ # # + 9 r.u.i.| @ # # @ @ { Z.w.Z.m + $ + } Z.u.Z.u.u.r.u.u.u.u.u.u.e.6.u.u.u.l.u.u.z.u.r.u.u.u.u.u.y.u.",
"@ @ @ $ + g Y.+.$ @ # # # # @ 8 p.y.x.| @ # # @ % 8.Z.0.Z.P O $ % $.J.r.u.u.r.r.r.r.r.r.r.u.y.5.p.u.u.u.u.c.9.w.u.u.u.u.u.u.u.u.",
"@ @ $ $ + m D.8.% @ # @ @ # + 8 u.y.x.[ @ # # @ 3 +.u.r.Z.} . X > -.r.r.u.w.u.u.K.q.u.r.u.z.q.o.0.u.y.u.3.q.-X).r.u.u.y.u.u.u.u.",
"$ @ @ $ + m D.8.% @ # # # # + 8 e.y.Y.v + # # + d q.u.w.Z.+.Z T Q d.r.A.r.u.z.q.k.d.w.u.r.K.9./ q.u.u.z.f.B.$XB.w.u.u.u.u.u.u.u.",
"@ # @ $ + m E.0.1 @ # @ # # @ 7 ,.0.T # @ @ # @ W q.u.z.u.F.Z.v.D.z.u.u.u.r.d.XX{. Xk.z.u.r.w.q.z.u.r.r./.<X-.$Xh.u.u.u.u.u.u.u.",
", + # $ o C J.&.< + # @ # # + 8 Q g @ @ @ $ + f u.+.q.z.e.m = : u ..Z.r.6.K.,._.'.L./.<.y.z.u.u.u.u.u.u.d.m.B. Xd.p.l.l.u.u.u.y.",
"7.u + $ + z :X$X3 @ # @ # @ # # @ + # # $ + 9 / y.^ / e.j X @ @ X 6 u.q.@X^.{.`.&X|.>X6.u.z.u.u.u.u.u.1.r.u.z.r.u.u.u.u.u.u.u.u.",
"i.i.n + O C +X|.6 @ # # # # # $ $ $ $ + o i q.e.0.8.8.O.y + $ # - @  .m.L.K..Xb.M.-.5.i.u.r.u.u.u.u.u.u.u.u.u.r.u.u.u.y.p.u.y.u.",
"y.u.Z.K + Z I./.5 o @ + @ + @ + + + + < Z i.i.u.e.u.y.x.m O @ @ o 4 q.).+XG.}.|.@X@X=Xd.v.r.u.u.u.u.u.u.u.u.l.u.y.l.u.u.l.u.u.u.",
"u.u.y.T.[ #.%XOXN 5 4 , : : , < e h T q.S.e.y.y.p.u.u.i.u.m < , t  .x.d.m.(.[._.@X/.XXq.u.z.u.u.u.u.u.u.p.;.y.l.u.y.( i.u.p.u.u.",
"z.r.r.u.j.:XA.G.*Xy.<.q.6.8.8.y.i.S.S.u.y.u.u.u.u.u.u.u.e.S.6.O.Z.i.u.r.r.u.e.w.).oX9.u.r.r.u.u.e.u.e.u.e.( y.u.u.( :.z.l.y.u.u.",
"f.r.u.z.c.&..X.Xg.u.u.u.u.i.u.u.y.y.y.u.u.u.e.u.y.u.u.u.u.p.6.>.q.y.u.u.u.u.u.y.c.P.f.u.r.z.u.u.i.u.u.u.:.4.y.u.9.;.q.u.;.p.u.l.",
"u.r.r.w.u.y.).).u.u.u.y.u.y.y.u.u.u.u.u.u.u.u.u.u.u.p.u.u.u.y.y.u.u.u.e.u.u.r.r.u.y.y.u.u.u.u.u.;.y.z.y.:.6.z.y.:.8.y.8.` u.u.u.",
"u.u.K.u.r.u.w.w.u.r.u.u.u.u.u.u.y.u.y.u.u.y.p.y.u.u.y.u.u.u.u.u.y.u.u.u.u.f.r.r.u.p.6.9.u.y.u.i.( :.8.5.9.+.9.6.9.8.w.;.q.z.y.u.",
"u.u.u.r.u.r.u.r.r.z.u.u.u.u.u.u.u.u.y.u.u.y.u.u.y.u.u.u.u.u.e.u.u.u.u.u.r.c.z.r.l.e.O.` 6.p.u.u.q.;./ ( y._ ^ 4.u.^ 4.6.4.:.l.u.",
"u.u.u.u.u.u.w.w.z.w.u.u.y.u.r.e.u.u.u.u.u.u.u.u.u.u.y.u.u.u.u.u.u.u.u.u.u.u.u.u.u.y.y.y.w.y.l.u.y.:.6.9.l.6.6.6.z.O.q.:./ ( 5.z.",
"u.u.u.u.y.y.o.y.z.:.5.x.y.u.r.u.u.u.u.u.u.u.u.u.u.u.u.u.u.u.u.u.y.u.u.u.y.u.u.u.u.u.z.z.u.z.u.l.u.u.l.i.u.u.u.u.u.u.u.y.i.;.:.l.",
"u.u.u.u.u.z.( q.x.;.5.6.z.z.u.u.u.u.e.u.u.e.u.u.y.u.y.u.u.u.e.u.u.u.u.u.u.u.u.u.u.u.u.u.u.u.u.u.l.u.u.u.e.u.u.u.i.u.e.u.y.i.i.u.",
"u.u.u.z.:.8.4.5.z.8.7._ 9.q.5.5.u.u.u.u.p.u.u.u.p.e.u.u.u.u.u.u.u.u.u.u.u.u.u.u.u.u.y.u.u.u.u.u.u.u.u.u.u.u.u.u.u.u.e.u.u.y.u.u.",
"y.u.u.u.e.o.O.` Y +.O./ ^ ` O.q.p.u.u.u.( >.u.u.u.u.u.y.y.u.u.u.y.y.y.u.u.u.y.e.e.u.e.y.u.u.y.e.y.y.u.y.y.u.u.u.u.u.u.u.u.u.y.u.",
"S.i.u.y.u.6.O.z.;.>.0.u.u.u.i.Z.u.u.u.Z.>.i.i.i.i.i.i.i.i.i.i.i.i.u.Z.u.u.i.u.Z.t.i.x.u.c.t.i.i.i.i.i.i.i.u.u.u.e.u.u.u.u.u.u.u.",
"h | S.p.y.y.u.9.+.X.+.@.@.+.@.+.u.u.0.+.@.4...X.X.9.6...X.+.+...+.+...q.6.+.+.+.+.$.=.X.*.@.+.+.........4.u.u.u.u.u.u.u.u.y.y.u.",
"+ @ g e.u.e.S.V + % $ $ $ $ $ < +.Z.5., $ $ $ % + J Z + % $ % $ $ : + B S + % $ $ % ; $ % % $ $ $ $ % @ h a.y.u.u.u.u.u.u.u.p.u.",
"$ @ + e y.r.Z.Z + @ @ @ # # + < w.Z.q.< + @ # # O T F o # @ @ @ @ @ X B J o @ @ @ @ @ @ @ @ @ @ # # # O n S.l.y.6.u.p.u.u.e.u.u.",
"@ @ $ + f i.H.J + $ # # # # @ < q.A.u.4 + $ # # + E K o $ @ # # # $ o S F + - $ @ $ @ $ # # # # @ @ $ + m S.y.9.;.e.i.u.u.u.u.u.",
"@ @ @ # + E R.K + # # # # # + 4 u.z.c.0 + $ # # O E T O $ @ @ @ @ $ + J T + @ @ @ @ @ @ @ # @ # @ @ $ + V Y.l.4.( 9.l.u.e.u.u.u.",
"# @ # $ + u D.E + # @ # @ # + 0 c.r.H.u + # # # + | E + # # @ # @ $ + T E + $ @ @ # @ $ # @ # @ # @ # + Z Y.l.w.9.p.y.u.e.e.u.u.",
"@ # @ # # $ 4.| @ @ # @ # # @ 5 h.r.t.p + # # # + ] ] + # @ # @ @ @ + L H + # # # @ @ @ @ # @ # @ # # @ S Z.y.u.z.u.u.u.u.u.u.u.",
"# @ # @ # + T 7.# @ # # # $ + 0 d.r.i.f + $ # # @ | { + # @ # @ @ $ + H H @ # @ @ @ # @ # @ @ @ # @ $ + L Z.u.u.p.u.u.u.u.u.u.u.",
"@ # @ # # + B e.$ @ # @ # $ + y J.e.Y.v + $ @ # @ | E + # # @ @ @ @ + ~ W o @ # # # @ # @ # @ @ $ # @ + L S.e.u.y.u.p.u.u.u.u.u.",
"# @ # @ $ + h i., @ # @ # # + e u.y.Z.m + $ # @ @ X.Q + # @ @ # $ @ @ { ` D { +.K @ @ @ # @ # + C 8.~ T 7.u.y.u.y.y.y.u.y.u.u.u.",
"@ # @ @ $ O s Z.4 + # # @ # + 8 u.y.Z.m + # # @ # ` ) @ @ # # @ @ @ $ { +.O.H.Y.| @ @ # @ # # @ G Z.i.Z.i.y.u.u.u.u.u.u.u.u.u.p.",
"1 @ # @ # + f D.t + # # @ # + 9 u.y.Y.V + # @ @ $ T Y $ @ # @ # @ @ - ) ( U 4.6.W $ @ # # @ # @ G 6.y.y.u.u.u.u.u.u.u.u.u.u.u.u.",
"u + # # $ + n W.s + # # # # @ 8 y.y.S.m + $ @ @ # X.8.% @ # # @ # @ : ` 6.6.^ ( ) $ @ # @ # @ @ E 0.y.y.u.u.u.u.u.u.u.u.u.u.u.u.",
"p + # @ $ O C E.M O $ @ # $ + q u.y.a.k + $ @ @ $ 7.0.: @ # @ # # @ , 4.u.z.9.9.9.: # # # # @ $ @.H.y.u.u.u.u.u.u.y.u.u.u.u.u.u.",
"< + # # # O ~.;XZ + # # # $ + 4 y.y.,.k + # # @ % 5.e., + # # @ @ @ , 9.i.u.u.i.9., + # @ # @ % +.u.u.5.q.r.u.H.5.0.u.u.e.u.u.u.",
"# # @ # @ 2 n.'.%.+ @ @ @ # + , 9.i.e.z + # # @ % 5.u.4 @ @ @ # @ @ : d.u.u.u.u.y.1 @ # # # @ % q.q.u.O.8.u.q.u.( q.l.p.u.u.u.u.",
"# # @ $   Q.oX%X#X= @ # # @ # # X.i.x.F + # # + $ 5.z.0 + $ # @ # @ 4 u.u.u.u.u.y.4 + # @ @ + < q.6.o.9.+.O.0.q.( w.u.u.e.u.u.u.",
"# @ # @ $ $.N.n.J.z + # # # # + v x.R.F + $ # @ % ;.Z.9 + $ # # $ + 1 r.u.u.y.p.i.9 + $ @ $ + 4 q.u.O.5.O.O.O.5.:.^ u.6.( u.y.u.",
"# # # O V F.9.y.2.7.% @ # # # # @ 9 f 1 @ # # @ : +.K.w + $ # @ # + 0 K.y.u.u.u.i.i + $ @ @ @ 6 u.K.e.O.O.O.^ O.9.Y ( :.9.u.u.u.",
"# # o b i.p.>.;.i.H.T @ + # # # # + O @ # # # # % +.Z.u + % $ $ $ @ e r.u.u.u.q.Z.p + $ $ $ @ e Z.u.u.6.y.y.9.>.i.y.q.6.e.u.u.u.",
"# + S Z.y.z.y.( x.9.u.D < + + @ @ # # @ @ + + + * 9.Z.u . + X + + X r Z.u.u.u.u.H.u X O   O . r Z.u.r.u.u.e.u.p.u.u.u.e.y.u.u.u.",
"% + g u.i.+.d.+.4.+.7.o.+.S y < % # # $ , 8 g J 5.u.H.K h n n n j h D Z.y.u.u.u.u.I h n Q.N g J K.q.u.u.u.u.y.p.u.p.y.u.u.u.u.u.",
"$ $ O 9 ..;.U O._ _ +./ / ;.;.y.4.......8.i.S.S.u.u.w.Z.D.D.D.Z.D.H.H.c.u.y.u.u.r.Z.T.H.-XI.F.Z.q.u.u.u.u.u.u.u.u.u.y.u.y.u.u.y.",
"# # $ + -  .6.q.u.q.0.e.5.9.+.u.i.i.i.i.u.u.y.q.u.u.r.u.q.u.q.u.w.w.u.u.u.u.y.u.e.r.l.l.6.w.w.w.r.u.u.u.y.u.u.u.u.u.u.u.u.y.u.u.",
"C + + $ J i.u.u.u.u.r.u.i.u.z.y.y.y.u.u.u.u.u.u.u.u.r.u.u.y.u.u.u.u.r.e.u.u.u.u.u.l.z.e.u.r.r.u.u.u.u.u.u.u.e.u.u.u.y.u.u.u.u.u.",
"Y.V i  .a.y.u.u.u.u.u.y.u.u.u.u.y.u.u.u.u.u.u.u.u.u.z.u.u.u.u.u.u.y.u.u.u.u.u.y.u.u.u.u.u.u.u.u.u.u.u.r.u.u.u.u.y.p.u.u.u.u.y.p.",
"u.i.i.Z.y.u.u.u.u.u.u.u.u.u.u.u.u.u.u.u.u.u.u.u.u.u.u.u.u.u.u.u.u.u.u.u.u.u.u.u.u.u.u.u.u.u.u.u.u.u.u.u.u.u.u.u.u.e.u.u.u.u.u.e."
};
