/* XPM */
static char *c785f4b31e2e4c82cb2e76326ad4f4a1GwqluDR0Yr3VHaIh[] = {
/* columns rows colors chars-per-pixel */
"64 64 100 2 ",
"   c #1D1D1D",
".  c #21211F",
"X  c #1F1F21",
"o  c #242424",
"O  c #292A25",
"+  c #2A2A2A",
"@  c #353535",
"#  c #36353A",
"$  c #38373F",
"%  c #3D3D3D",
"&  c #41413F",
"*  c #3F3E43",
"=  c #403F44",
"-  c #414142",
";  c #434248",
":  c #4D4D4E",
">  c #545454",
",  c #585856",
"<  c #575759",
"1  c #59595A",
"2  c #666666",
"3  c #6C6C6C",
"4  c #717171",
"5  c #9CBB44",
"6  c #9DBD4E",
"7  c #9DBE54",
"8  c #9EBD5C",
"9  c #A1BD4F",
"0  c #A2BE54",
"q  c #A1BE5A",
"w  c #A1BD60",
"e  c #9CC04B",
"r  c #9EC155",
"t  c #9FC058",
"y  c #A3C14E",
"u  c #A2C255",
"i  c #A3C25B",
"p  c #A9C25A",
"a  c #B0CA5F",
"s  c #A4C263",
"d  c #ABC366",
"f  c #AFC963",
"g  c #ADC56B",
"h  c #AFC86D",
"j  c #B0CA67",
"k  c #B1CA6D",
"l  c #B2CB72",
"z  c #B4CC78",
"x  c #818181",
"c  c #8A8A8A",
"v  c #949493",
"b  c #969698",
"n  c #9C9C9C",
"m  c #A0A0A0",
"M  c #BDBDBD",
"N  c #BACE86",
"B  c #BBCF8A",
"V  c #BBD284",
"C  c #BDD28C",
"Z  c #BED191",
"A  c #C2D584",
"S  c #C3DA88",
"D  c #C0D696",
"F  c #C2D699",
"G  c #C4DA99",
"H  c #CAE193",
"J  c #C5CEA1",
"K  c #CEDCA7",
"L  c #CBD2A8",
"P  c #D3E1AA",
"I  c #C0C0C0",
"U  c #CACBC6",
"Y  c #CDCDCB",
"T  c #D7DBC2",
"R  c gray82",
"E  c #DDDDDD",
"W  c #DDE0CF",
"Q  c #E3E8C8",
"!  c #E1E3D6",
"~  c #E2E4DE",
"^  c #EFF5D9",
"/  c #EFF9DE",
"(  c #F1F5DC",
")  c #F3F9DF",
"_  c #E5E5E5",
"`  c #E8E9E4",
"'  c #E7E7E9",
"]  c #EAEAEA",
"[  c #EFF4E5",
"{  c #EDF4EB",
"}  c #F4FBE3",
"|  c #F8FDE6",
" . c #F2F6EA",
".. c #F4FAED",
"X. c #FAFCEE",
"o. c #F4F5F4",
"O. c #F5FAF4",
"+. c #FCFDF5",
"@. c #F7FAFF",
"#. c #FFFEFE",
/* pixels */
"#.#.#.#.#.#.#.#.#.#.#.#.#.#.#.#.#.#.#.#.#.#.#.#.#.#.#.#.#.#.#.#.#.#.#.#.#.#.#.#.#.#.#.+.#.#.#.#.#.#.#.#.o.#.#.#.#.#.#.#.#.#.#.#.",
"#.#.#.#.#.#.#.#.#.#.#.#.@.+.#.#.#.#.#.#.#.#.#.#.#.#.#.#.#.#.#.#.#.#.#.@._ _ _ _ +.@.@.#.#.#.#.#.#.o.#.#.#.#.#.#.#.#.#.#.#.#.#.#.",
"#.#.#.#.#.#.#.#.#.#.#.#.#.#.#.#.#.#.#.#.#.#.#.#.#.#.#.#.#.#.#.#.#.#.#._ > % % % v o.#.#.#.#.#.#.#.#.#.#.+.#.#.#.#.#.#.#.#.#.#.#.",
"#.#.#.#.#.#.#.#.#.#.#.#._ _ E _ _ _ _ ` _ _ _ _ _ _ _ _ ' _ _ _ _ _ #._ % O   o O b #.@.o._ E ] _ _ _ ] @.#.#.#.#.#.#.#.#.#.#.#.",
"#.#.#.#.#.#.#.#.#.#.#._ 1 $ & - $ % % % % % % % % % % % % % % % - < ] ] %   + o o + v +.o.n % % % % & 1 _ @.#.#.#.#.#.#.#.#.#.#.",
"#.#.#.#.#.#.#.#.#.#.#._ % o o . o o o o o o o o o o o o o o o o   % ` _ ; o o O o + + v o.o.x X X + o # ] #.#.o.#.#.#.#.#.#.#.#.",
"#.#.#.#.#.#.#.#.#.#.#._ - o o O o o o o o o o o o o o o o o o o o $ _ ] $ o O o + X X + b o.o.x o X o & ~ #.+.#.#.#.#.#.#.#.#.#.",
"#.#.#.#.#.#.#.#.#.@.#._ % o o o % % % % % % - % & * % % & % % % & > ] _ & o o o X + o o + v +.o.c O X = _ #.#.#.#.#.#.#.#.#.#.#.",
"#.#.#.#.#.#.#.#.#.#.#._ % o o % Y _ _ _ _ _ _ _ _ _ _ _ _ _ _ _ _ ] #._ = o o o o + . +   + v @.+.c o & _ #.#.#.#.#.#.#.#.#.#.#.",
"#.#.#.#.#.#.#.#.#.#.#._ % o o % _ #.#.#.#.#.#.#.#.#.#.#.#.#.#.#.+.#.#._ % o o o + o o o + o O b @.E % % _ #.#.#.#.#.#.#.#.#.#.#.",
"#.#.#.#.#.#.#.#.#.#.#._ % o o % _ #.#.#.#.#.#.#.#.#.#.#.#.#.#.#.#.#.#._ % o + o o . + o o + o & ] ] $ & _ #.#.#.#.#.#.#.#.#.#.#.",
"#.#.#.#.#.#.#.#.#.#.#._ % o o % _ #.#.#.#.#.#.#.#.#.#.#.#.#.#.#.#.#.#._ - o o o o + o o o o O $ _ _ @ ; ~ #.#.#.#.#.#.#.#.#.#.#.",
"#.#.#.#.#.#.#.#.#.#.#._ - o o % _ #.#.#.#.#.#.#.#.#.#.#.#.#.#.#.#.#.#._ % o o o o + X o + o   - ` ] % # _ #.#.#.#.#.#.#.#.#.#.#.",
"#.#.#.#.#.#.#.#.#.#.#._ % o o % _ #.#.#.#.#.#.#.#.#.#.#.#.#.#.#.#.#.#.E % X o o o o + + X o + % _ ] % # _ +.#.#.#.#.#.#.#.#.#.#.",
"#.#.#.#.#.#.#.#.#.#.#._ % o o % _ #.#.#.#.#.#.#.#.#.#.#.#.#.#.#.#.#.#.' % o o o o o o O o o o % ` _ & - _ @.#.#.#.#.#.#.#.#.#.#.",
"#.#.#.#.#.#.#.#.#.#.#._ % o o % _ #.#.#.#.#.#.#.#.#.#.#.#.#.#.#.#.#.#.~ % o o o + o o o o + X & ] _ & % _ #.#.#.#.#.#.#.#.#.#.#.",
"#.#.#.#.#.#.#.#.+.#.#.E ; O   & _ #.#.#.#.+.#.#.#.#.#.#.#.#.#.+.#.#.#._ % o + o o o o o o o o & _ _ % % _ #.#.#.#.#.#.#.#.#.#.#.",
"#.#.#.#.#.#.#.#.#.+.#.' % X o ; _ #.#.#.#.#.#.#.+.#.#.#.#.#.#.+.#.#.#._ % o o o + o o o o o o * ] _ % % _ #.#.#.#.#.#.#.#.#.#.#.",
"#.#.#.#.#.#.#.#.#.#.#._ % o o $ ~ #.+.#.#.+.#.+.#.+.#.#.#.#.#.#.#.#.#._ % o o o o o o o o o o % _ ] % % ' #.#.#.#.#.#.#.#.#.#.#.",
"#.#.#.#.#.#.#.#.#.#.+._ ; o X : ] #.#.#.#.#.#.#.#.#.#.#.+.#.#.#.#.#.#._ % o o o o o o O o o o % _ _ % % E #.#.#.#.#.#.#.#.#.#.#.",
"#.#.#.#.#.#.#.#.#.@.#.` % o 4 U +.#.+.#.#.#.#.#.#.#.#.#.#.+.#.#.#.#.#._ % o o o o o o o o o o & ] _ % % _ #.#.#.#.#.#.#.#.#.#.#.",
"#.#.#.#.#.#.#.#.#.#.+.` # 1 ~ +.o....... . .o.#.#.#.#.#.#.#.#.#.#.#.#._ % o o o + o o o o o o - ] _ % % ~ #.#.#.#.#.#.#.#.#.#.#.",
"#.#.#.#.#.#.#.#.#.#.+._ ; v +.T g g k l h l V G ( +.#.+.#.#.+.#.#.#.#._ & o o + o o o o o o o & _ ' % % _ #.#.#.#.#.#.#.#.#.#.#.",
"#.#.#.#.#.#.#.#.#.+.#.] $ b X.Q i 0 7 7 7 u i i L ( #.#.#.#.@.#.#.#.#._ * o o o o o o + o o o % ` ' % % _ #.#.#.#.#.#.#.#.#.#.#.",
"#.#.#.+.#.#.#.#.#.#.#._ @ 1 ] #.K d 7 s w e u i 6 Z } #.@.#.#.#.#.#.#._ & . o o o o o + o o o % ` _ % % _ #.#.#.#.#.#.#.#.#.#.#.",
"#.@.#.#.#.O.#.#.#.o.#.] , % v o.O.P q 5 p s 8 u i w Z | #.#.#.#.#.#.#._ % o O o + o o o + o o % _ _ % % _ #.#.#.#.#.#.#.#.#.#.#.",
"#.#.#.#.#.#.#.#.#.#.#.#._ _ _ #.#.+.P p y w q u q y u Z ..#.@.#.#.#.#._ % o + o o o o o o o o - ] _ % % _ #.#.#.#.#.#.#.#.#.#.#.",
"+.@.#.#.......o.[ O. . .{ O. ...[ @.{ F 0 0 i r u u i q C ) #.#.#.#.#.' - o o o o o o o o o o = ' ` % $ _ #.#.#.#.#.#.#.#.#.#.#.",
"#.#.#.} V h f f h h d k k d h d f d k j u 7 i t u q 8 i u C | #.#.#.#._ - X o o o O O + + o o % _ ' % % _ #.#.#.#.#.#.#.#.#.#.#.",
"#.#.#.{ h q 7 i u u u 7 7 i u u w 0 6 i i t r t q s 8 7 u 9 Z X.+.@.#._ - o o o o o o   o o o - ] _ % % _ #.#.#.#.#.#.#.#.#.#.#.",
"#.#.+.o.j q u t 7 u i q i i 7 i 7 i u 7 t u i s i t i 8 u u w G  .#.+._ ; o O o o o o o o o o % _ _ % % _ #.#.#.#.#.#.#.#.#.#.#.",
"#.#.#.o.f q 0 t q i 0 i 0 0 q q q 0 u i i q 0 u r i i u u q s 5 ! X.#._ = o o o @ $ % - & @ + % ] _ % % _ #.#.#.#.#.#.#.#.#.#.#.",
"#.#.#.O.f i r t 0 i 0 i q 0 q 0 i u 0 i i q 0 u t t 7 u i 8 i e W +.+.' * o X + n E ] ' ' R # & ` _ % % _ #.#.#.#.#.#.#.#.#.#.#.",
"#.#.+.{ f i u t q q i 0 i i 7 i 7 u u 7 7 u u s u i i 8 u y q C X.+.#._ * X o % E #.@.+.] R % % _ ] % % _ #.#.#.#.#.#.#.#.#.#.#.",
"#.#.#. .k 8 0 i u u u 7 7 u r u s 7 7 t s t u t 7 s w 8 u u B [ #.#.+.' & o o # _ +.#.E : % + = ` _ % % _ #.#.#.#.#.#.#.#.#.#.#.",
"#.#.#...A g s f h h d l k d h d f d l f u 7 i u u t q u 0 A } #.+.#.#._ % o o + n _ ] n + o   % ' _ % % _ #.#.#.#.#.#.#.#.#.#.#.",
"#.o.#.#.|  .O.o.[ O...{  .O.....[ @.{ F 0 0 i 0 u 0 u u N ) #.#.#.#.#._ @ o o o + - % @ o o o - _ ] % % _ #.#.#.#.#.#.#.#.#.#.#.",
"#.+.#.#.#.+.#.#.#.#.#.#._ _ _ #.#.+.P p u s q q q u 9 N ( #.#.#.#.#.#._ & o o O o o o X o o o % ] _ % % _ #.#.+.#.#.#.#.#.#.#.#.",
"#.+.#.#.#.@.#.#.#.O.#.] , & v o.+.P 0 5 i s 7 0 i q V ) #.@.#.#.#.#.#.' & o . O +   X O + o o = _ _ % % _ @.#.#.#.#.#.#.#.#.#.#.",
"#.#.#.#.#.#.#.#.#.#.#._ @ , ] #.L d 7 s t e u i e C [ #.#.#.o.+.+.#.#._ % o o o o + o . o o . & _ ] % % _ #.#.#.#.#.#.#.#.#.#.#.",
"#.#.#.#.#.#.#.#.#.O.#.` $ b X.Q i u 7 6 r t 7 i J ^ +.#.#.#.+.#.#.#.#._ & X o o o + o o O o o = ` _ % % _ #.#.#.#.#.#.#.#.#.#.#.",
"#.#.#.#.#.#.#.#.#.#.+._ ; b +.T g g k k h d z S ( +.#.@.+.#.#.#.#.#.#._ % o o O o o o o o o o % _ _ % % _ #.#.#.#.#.#.#.#.#.#.#.",
"#.#.#.#.#.#.#.#.#.#.+.] # > ` +. . . .[ [ [ O.#.+.#.#.#.#.#.#.#.#.#.#._ & X o o + o o o o o o % ] _ % % _ #.#.#.#.#.#.#.#.#.#.#.",
"#.#.#.#.#.#.#.#.#.#.#.~ = o 3 Y #.#.#.#.#.#.@.#.#.@.#.#.#.#.#.+.#.#.#._ = o o O o o o o o o o = ' ` % $ _ #.#.#.#.#.#.#.#.#.#.#.",
"#.#.#.#.#.#.#.#.#.+.#._ * o o : ] #.#.#.#.#.#.#.#.#.#.#.#.#.#.#.#.#.#._ % o o o o o o o o o X & _ ' % % _ #.#.#.#.#.#.#.#.#.#.#.",
"#.#.#.#.#.#.#.#.@.#.#._ % O X $ ~ +.#.#.#.+.#.#.#.#.#.+.#.#.#.#.#.#.#._ = X o o o o o + o o o & ] _ % % _ #.#.#.#.#.#.#.#.#.#.#.",
"#.#.#.#.#.#.#.#.#.O.#.' % . o - _ #.#.#.#.#.#.#.#.+.+.#.#.#.#.+.#.#.#._ & X o O + o o o + o o % _ _ % % _ #.#.#.#.#.#.#.#.#.#.#.",
"#.#.#.#.#.#.#.#.#.#.#._ - o   & _ #.#.#.#.+.#.#.#.#.#.#.#.#.#.#.#.#.#._ % o o o o o o o o o o = ] _ % % _ #.#.#.#.#.#.#.#.#.#.#.",
"#.#.#.#.#.#.#.#.#.#.#._ % o o $ _ #.#.#.#.#.#.#.#.#.#.#.#.#.#.#.#.#.#._ & X o o o o o o o o X & ] _ % % ' #.#.#.#.#.#.#.#.#.#.#.",
"#.#.#.#.#.#.#.#.#.#.#._ % o o % _ #.#.#.#.#.#.O.#.#.#.#.#.#.#.#.#.#.#._ % o o + o o + o O o o & _ _ & $ ~ #.@.#.#.#.#.#.#.#.#.#.",
"#.#.#.#.#.#.#.#.#.#.#._ & o o & _ #.#.#.#.@.#.#.#.#.#.#.#.#.#.#.#.#.#._ = + . X o o o o o o o = ] ] % @ ] #.+.#.#.#.#.#.#.#.#.#.",
"#.#.#.#.#.#.#.#.#.#.#._ % o . % ] #.#.#.#.#.#.@.#.#.#.#.#.#.#.#.o.#.+._ & o o + o o + o o o X & _ _ % % ] #.#.#.#.#.#.#.#.#.#.#.",
"#.#.#.#.#.#.#.#.#.#.#._ - o o - E #.#.#.#.#.#.#.#.#.#.#.#.#.#.#.#.#.#._ & X O o o o o o o o o & ` ] - % _ #.#.#.#.#.#.#.#.#.#.#.",
"#.#.#.#.#.#.#.#.#.#.#._ % . o % ~ #._ _ _ _ _ _ _ _ _ _ _ _ _ ~ ] ~ #._ % o + X + o + o o o o & ] _ % % _ #.#.#.#.#.#.#.#.#.#.#.",
"#.#.#.#.#.#.#.#.#.#.#._ % o   % ] _ , % $ % & % % % % % % % % % # 1 ~ ' = o o o o o o o o o X & _ ~ % % _ #.#.@.#.#.#.#.#.#.#.#.",
"#.#.#.#.#.#.#.#.#.#.#.] > & % > '  .: % & @ & $ % % $ % % % % $ % : ] ' % o X + o + o o o o o = ] ] > > ] #.#.#.#.#.#.#.#.#.#.#.",
"#.#.#.#.#.#.#.#.#.#.#.o.] _ _ ' #.o.] _ _ _ _ _ _ _ _ _ _ _ _ _ _ ] #._ * o o o o o o O o + 3 M +.O.] ` +.#.#.#.#.#.#.#.#.#.#.#.",
"#.#.#.#.#.#.#.#.#.#.#.#.#.#.#.#.#.#.#.#.#.#.#.#.#.#.#.#.#.#.#.#.#.#.#.~ % o o o o O o + 2 M o.#.#.#.@.@.#.#.@.#.#.#.#.#.#.#.#.#.",
"#.#.#.#.#.#.#.#.#.#.#.#.#.#.#.#.@.#.#.#.#.#.#.#.#.#.#.#.#.#.#.#.#.#.#._ % X o o . + 2 I o.#.#.#.#.#.#.#.#.#.#.#.#.#.#.#.#.#.#.#.",
"#.#.#.#.#.#.#.#.#.#.#.#.#.#.#.#.#.#.#.#.#.#.#.#.#.#.#.#.#.#.#.#.#.#.#.] < % % % 3 M o.@.#.#.#.@.#.#.#.#.#.#.#.#.#.#.#.#.#.#.#.#.",
"#.#.#.#.#.#.#.#.#.#.#.#.#.#.#.#.#.#.#.#.#.#.#.#.#.#.#.#.#.#.#.#.#.#.o.#._ ` _ _ o.#.#.#.#.#.#.#.#.#.#.#.#.#.#.#.#.#.#.#.#.#.#.#.",
"#.#.#.#.#.#.#.#.#.#.#.#.#.#.#.#.#.#.#.#.#.#.#.#.#.#.#.#.#.#.#.#.#.#.#.#.#.#.#.#.#.#.#.#.@.#.#.#.#.#.#.#.#.#.#.#.#.#.#.#.#.#.#.#.",
"#.#.#.#.#.#.#.#.#.#.#.#.#.#.#.#.#.#.#.@.#.#.#.#.#.#.#.#.#.#.#.#.#.o.#.#.o.#.#.#.#.O.#.#.#.#.#.#.#.#.#.#.#.#.#.#.#.#.#.#.#.#.#.#.",
"#.#.#.#.#.#.#.#.#.#.#.#.#.#.#.#.#.#.#.#.#.#.#.#.#.#.#.#.#.#.#.#.#.#.#.#.#.#.#.#.#.#.#.@.#.#.o.#.#.#.#.#.#.#.#.#.#.#.#.#.#.#.#.#."
};
