/* XPM */
static char *_47b159338554500d972f357220fd07dXOadOBHjGXtWtW5F[] = {
/* columns rows colors chars-per-pixel */
"64 64 160 2 ",
"   c None",
".  c #000000",
"X  c #090604",
"o  c #060907",
"O  c #0D0906",
"+  c #0D0F0D",
"@  c #100A07",
"#  c #150E09",
"$  c #180F0B",
"%  c #0E130E",
"&  c #17110A",
"*  c #1B110C",
"=  c #101010",
"-  c #1E1D1E",
";  c #22160E",
":  c #23180F",
">  c #251A11",
",  c #2B1D14",
"<  c #331F17",
"1  c #1E291F",
"2  c #2D2115",
"3  c #312217",
"4  c #362319",
"5  c #3B2618",
"6  c #372819",
"7  c #3F281A",
"8  c #2C2C2C",
"9  c #232E23",
"0  c #273327",
"q  c #293629",
"w  c #2D3D2E",
"e  c #313031",
"r  c #402E1D",
"t  c #4B301E",
"y  c #482F21",
"u  c #463220",
"i  c #4C3722",
"p  c #4F3924",
"a  c #523523",
"s  c #543C26",
"d  c #5D3C26",
"f  c #334433",
"g  c #354F3C",
"h  c #5D432A",
"j  c #64412E",
"k  c #6E472D",
"l  c #664A2F",
"z  c #694C2F",
"x  c #6C4632",
"c  c #6A4D30",
"v  c #744B35",
"b  c #7F4E3B",
"n  c #745335",
"m  c #795737",
"M  c #7E513A",
"N  c #7E5B39",
"B  c #415641",
"V  c #445A44",
"C  c #43644B",
"Z  c #4B644B",
"A  c #4F694F",
"S  c #516B51",
"D  c #567256",
"F  c #547A5C",
"G  c #605F60",
"H  c #607F60",
"J  c #885737",
"K  c #885837",
"L  c #86563E",
"P  c #835D3B",
"I  c #8C5A39",
"U  c #845536",
"Y  c #915D3B",
"T  c #8A643F",
"R  c #86613D",
"E  c #8D5941",
"W  c #8B5641",
"Q  c #935F43",
"!  c #8E6641",
"~  c #956044",
"^  c #956B43",
"/  c #9B6E45",
"(  c #9F6749",
")  c #9D7247",
"_  c #9F7348",
"`  c #AC6F4F",
"'  c #A86C44",
"]  c #A27549",
"[  c #A7794C",
"{  c #AB7B4D",
"}  c #AD7349",
"|  c #BE7A4D",
" . c #BC7956",
".. c #BE7558",
"X. c #C47E50",
"o. c #C17959",
"O. c #5C8967",
"+. c #598464",
"@. c #668464",
"#. c #6B8E6B",
"$. c #61916D",
"%. c #6F926F",
"&. c #759A75",
"*. c #6CA179",
"=. c #7DA67D",
"-. c #B48251",
";. c #BB8654",
":. c #BD8956",
">. c #C08B57",
",. c #CB835D",
"<. c #C38C58",
"1. c #C98453",
"2. c #D18655",
"3. c #D68957",
"4. c #DA8C59",
"5. c #CB925C",
"6. c #D1975F",
"7. c #D9975F",
"8. c #E5935D",
"9. c #D69A61",
"0. c #DA9E63",
"q. c #E69760",
"w. c #E79A62",
"e. c #E89F64",
"r. c #DEA065",
"t. c #DEA065",
"y. c #E1A266",
"u. c #E8A266",
"i. c #E9A366",
"p. c #E9A266",
"a. c #E8A266",
"s. c #E5A668",
"d. c #E9A669",
"f. c #E9A86A",
"g. c #EAA96A",
"h. c #EAA86A",
"j. c #EAA869",
"k. c #EAA96A",
"l. c #E6AD70",
"z. c #74AE83",
"x. c #87B387",
"c. c #89B589",
"v. c #80BA8C",
"b. c #82C292",
"n. c #8ACE9B",
"m. c #94C494",
"M. c #97CC9A",
"N. c #9CCE9C",
"B. c #8DD09C",
"V. c #92D29E",
"C. c #9FD39F",
"Z. c #ACD59D",
"A. c #9FD9A4",
"S. c #9BD6A2",
"D. c #A2D7A2",
"F. c #A7DDA7",
"G. c #A7DDA7",
"H. c #E2DFE2",
"J. c #E5E3E5",
"K. c #F4F2F4",
/* pixels */
"                                                                                                                                ",
"                                                                                                                                ",
"                        . . .                               . . .                                 . . .                         ",
"                      . . . . .                           . . . . . .                           . . . . .                       ",
"                    . . I 7.t . .                         . # 1.X.$ .                         . . i 8.U . .                     ",
"                  . . s g.e.4.; .                       . . { d.8.' . .                       . : t.u.8.a . .                   ",
"                  . > t.g.g.8.X.X .                   . . n g.g.d.8.k . .                   . X :.g.g.w.4.: .                   ",
"                . X :.g.g.g.i.8.J . .               . . 6 d.g.g.g.u.8.5 . .               . . T g.g.g.g.w.| X .                 ",
"              . . ^ g.g.g.g.g.u.8.a . .             . & 9.g.g.g.g.g.w.2.$ .             . . p g.g.g.g.g.d.8.I . .               ",
"            . . s g.g.g.g.g.g.g.w.4.; .           . . { g.g.g.g.g.g.d.8.' . .           . ; t.g.g.g.g.g.g.u.8.a . .             ",
"            . . 6.g.g.g.g.g.g.g.u.8.I . .         . 7 g.g.g.g.g.g.g.g.w.8.5 .         . . ^ g.g.g.g.g.g.g.g.8.2.. .             ",
"            . . 9.g.g.g.g.g.g.g.u.8.Y . .         . 7 g.g.g.g.g.g.g.g.w.8.r .         . . ^ g.g.g.g.g.g.g.g.8.2.. .             ",
"    . . . . . . 9.g.g.g.g.g.g.g.u.8.Y . . . . . . . r g.g.g.g.g.g.g.g.w.8.r . . . . . . . / g.g.g.g.g.g.f.f.8.2.. . . . . .     ",
". . . . . . . . 9.g.g.g.g.g.g.g.u.8.Y . . . . . . . r g.g.g.g.g.g.g.g.w.8.r . . . . . . . ^ g.g.g.g.g.g.f.f.8.2.. . . . . . . . ",
". @ L L L L * . 9.g.g.g.g.g.g.g.u.8.Y . r L L L v . r g.g.g.g.g.g.g.g.w.8.< . v L L L r . ^ g.g.g.g.g.g.g.d.8.2.. * W L b U @ . ",
". * ,.,.,.,., . 9.g.g.g.g.g.g.g.u.8.Y . j ,.,.,.` . r g.g.g.g.g.g.g.g.w.8.r . ` ,.,.,.j . ^ g.g.g.g.g.g.g.g.8.2.. , ,.,...o.$ . ",
". * ,.,.` x * . 9.g.^ > 9.g.{ > ;.8.Y . 4 v  .,.` . r g.g.u h g.g.l r w.8.r . ` ,.o.M 4 . ^ g.<.> [ g.0.> ! 8.2.. $ x ` ....* . ",
". * ,.,., . . . 9.g.h . >.g.N . ] 8.Y . . . x ,.` . r g.g.O 2 g.g., O q.8.r . ` ,.E . . . ^ g._ . P g.>.. h 8.2.. . . , o...$ . ",
". $ ,.,.` x $ . 9.g.5._ g.g.0./ w.8.I . 3 v  .,.` . r g.g.{ >.g.g.>.;.w.8.r . ` ,.,.v 4 . ^ g.s.) r.g.g._ 9.8.2.. $ x ` o...$ . ",
". * ,.,.,.,., . 0.g.g.g.g.g.g.g.u.8.Y . j ,.,.,.` . r g.g.g.g.g.g.g.h.8.8.< . ` ,.,.,.j . ^ g.g.g.g.g.g.g.g.8.2.. , ,.,.....$ . ",
". @ ~ ~ Q ~ * . 9.g.g.g.g.g.g.g.u.8.Y . y ~ ~ ~ M . r g.g.g.g.g.g.g.g.w.8.r . M ~ ~ ~ y . ^ g.g.:.s.g.g.g.g.8.2.. * ~ ~ E W @ . ",
". . . . . . . . 9.g.g.g.g.g.g.g.u.8.Y . . . . . . . r g.g.g.g.g.g.g.g.w.8.7 . . . . . . . ^ g.[ . T g.g.g.g.8.2.. . . . . . . . ",
"    . . . . . . 9.g.g.g.g.g.g.g.u.8.Y . . . . . . . r g.g.g.g.g.g.g.g.w.8.7 . . . . . . . ^ g.^ . n g.g.g.g.8.2.. . . . . .     ",
"            . . 9.g.g.g.g.g.g.g.u.8.Y . .         . r g.g.g.g.g.g.g.j.w.8.7 .         . . ^ g.^ . m g.g.g.d.8.2.. .             ",
"            . . 9.g.g.g.g.g.g.g.u.8.Y . .         . r g.g.g.g.g.g.g.g.w.8.r .         . . ^ g.0.c 5.g.g.g.g.8.2.. .             ",
"            . . 9.g.g.g.g.g.g.g.u.8.Y . .         . r g.g.g.g.g.g.g.j.w.8.r .         . . ^ g.g.g.g.g.g.g.g.8.2.. .             ",
"            . . 9.g.g.g.g.g.g.g.u.8.Y . .         . r g.g.g.g.g.g.g.g.w.8.r .         . . ^ g.g.g.g.f.f.g.d.8.2.. .             ",
"            . . 9.g.g.g.g.g.g.g.u.8.Y . .         . r g.g.g.g.g.g.g.g.w.8.r .         . . ^ g.;.X ) f.f.f.f.8.2.. .             ",
"            . . 9.g.g.g.g.g.g.g.u.8.Y . .         . r g.g.g.g.g.h.h.j.w.8.< .         . . s r.s . ^ g.g.g.g.8.2.. .             ",
"  . . . . . . . 9.g.g.g.g.g.g.g.u.8.Y . . . . . . . r g.g.g.g.g.h.h.h.w.8.r . . . . . . . . . . * t.g.g.g.s.8.2.. . . . . . .   ",
". . * * * * X . 9.g.g.g.g.g.g.g.u.8.Y . O * * * $ . r g.g.g.g.g.h.h.j.w.8.r . $ * * * O . 2 2 s 5.g.g.g.g.g.8.2.. X * * $ * . . ",
". * ,.,.,.,., . 9.g.g.g.g.g.g.g.u.8.Y . j ,.,.,.` . r g.g.g.g.g.g.h.j.8.8.r . ` ,.,.,.j . ^ g.g.g.g.g.g.g.d.8.2.. , ,.,.o...* . ",
". * ,.,.,.,., . 9.g.0.{ g.g.y.{ e.8.Y . j ,.,.,.` . r g.g.:.5.g.g.6.;.w.8.5 . ` ,.,.,.j . ^ g.s.{ y.g.g.{ 9.8.2.. , ,.,.o...$ . ",
". $ ,.,.x * . . 9.f.l . :.g.P . / 8.Y . O ; Q ,.` . r g.g.O > g.g.3 X w.8.r . ` ,.` : O . ^ g.] . N g.>.. h 8.3.. X * j o...$ . ",
". * ,.,.a . . . 9.g.R * 9.g.[ @ ;.8.Y . . . L ,.` . 7 l.g.3 h g.g.h 6 w.8.r . ` ,.( X . . ^ g.>.& { g.9.* T 8.2.. . . a o...$ . ",
". $ ,.,.,.,., . 9.g.g.g.g.g.g.g.u.8.Y . j ,.,.,.` . 7 g.g.g.g.g.g.g.g.w.8.r . ` ,.,.,.j . ^ g.g.g.g.g.g.j.d.8.2.. , ,.,.....$ . ",
". $ ,.,.,.,., . 9.g.g.g.g.g.g.g.u.8.Y . j ,.,.,.` . r g.g.g.g.g.g.g.j.w.8.5 . ` ,.,.,.j . ^ g.g.g.g.g.g.g.g.8.2.. , ,.,.o...$ . ",
". X 4 4 4 4 X . 9.g.-.h s.g.g.g.u.8.Y . * 6 4 4 3 . r g.g.g.g.g.g.g.g.w.8.r . < 4 4 4 * . ^ g.g.g.g.g.g.g.f.8.2.. X 4 4 4 < X . ",
"  . . . . . . . 9.g.s . -.g.g.g.u.8.Y . . . . . . . r g.g.g.g.g.g.g.g.w.8.r . . . . . . . ^ g.g.g.d.g.g.g.f.8.2.. . . . . . .   ",
"            . . 9.g.s . -.g.g.g.u.8.Y . .         . r g.g.g.g.g.g.g.d.8.8.r .         . . ^ g.;.P l s h m { 7.2.. .             ",
"            . . 9.g.s . -.g.g.g.u.8.Y . .         . r g.g.g.g.g.g.g.g.w.8.r .         . . i : . . . . . . . O h . .             ",
"            . . 9.g.s . -.g.g.g.u.8.Y . .         . r g.g.g.g.g.g.g.g.w.8.7 .         . . . . 0 D &.=.&.F w . . . .             ",
"            . . 9.g.l . 5.g.g.g.u.8.Y . .         . r g.g.g.g.g.g.g.g.w.8.7 .         . . 0 x.F.F.F.F.F.F.F.z.B . .             ",
"            . . 9.g.t.>.g.g.g.g.u.8.Y . .         . r g.g.g.g.g.g.g.j.w.8.7 .       . . S G.F.F.F.F.F.F.F.F.G.V.O.o .           ",
"            . . 9.g.g.g.g.g.g.g.u.8.Y . .         . r g.g.g.g.g.g.g.g.w.8.5 .     . . S F.F.F.F.F.F.F.F.F.F.F.G.V.$.. .         ",
"            . . 9.g.9._ g.g.g.g.u.8.Y . .         . r g.g.g.g.g.g.g.y.} I ; .     . q G.F.F.F.F.F.G.%.N.F.F.F.F.A.B.C . .       ",
"            . . 9.g.h . ;.g.g.g.u.8.Y . .         . r g.g.g.g.g.0.c O . . . . . . . x.F.F.F.F.F.F.&.. A F.F.F.F.F.V.b.% .       ",
"            . . 9.g.s . -.g.g.g.u.8.Y . .         . r g.g.g.g.g.5 . X f A D B % . 0 F.F.F.D.&.G.F.S . @.F.F.F.F.F.S.n.C .       ",
"            . . 9.g.h . :.g.g.g.u.8.Y . .         . r g.g.g.g.l.H Z m.F.F.F.F.G.&.m.F.F.F.#.. w D.w . x.F.F.F.F.F.G.n.*.. .     ",
"            . . 9.g.5.! g.g.g.g.u.8.Y . .         . r g.g.d.>.Z.F.F.F.F.F.F.F.F.G.F.F.F.F.N.1 . w % X D.F.F.F.F.F.F.n.b.. .     ",
"            . . 9.g.g.g.g.g.g.g.u.8.Y . .         . r g.g.[ . +.F.F.F.F.F.F.F.F.G.F.F.F.F.F.N.1 . . 9 F.F.F.F.F.F.F.n.n.X .     ",
"            . . 9.g.g.g.g.g.g.g.u.8.Y . .         . r g.g.s . &.F.F.F.C.m.F.F.F.F.F.F.F.F.F.F.N.1 . V F.F.F.F.F.F.F.n.n.. .     ",
"            . . 9.g.g.g.g.g.g.g.u.8.Y . .         . 7 l.g.* . G.F.F.F.f o m.F.F.F.F.F.F.F.F.F.F.S . @.F.F.F.F.F.F.G.n.z.. .     ",
"            . . 9.g.g.g.g.g.g.g.u.8.Y . .         . 7 g.g.O % F.F.F.F.S . V F.F.F.F.F.F.F.F.F.F.w . x.G.F.F.F.F.F.S.n.F . .     ",
"            . . 9.g.g.g.g.g.g.g.u.8.Y . .         . r g.g.& % F.F.F.F.N.o X m.F.F.F.F.F.F.F.F.F.% . G.G.F.F.F.F.F.S.n.1 .       ",
"            . . 5.0.0.0.0.0.0.0.7.3.K . .         . 7 0.r.2 . c.N.N.N.N.Z . V N.N.N.N.N.N.N.N.c.. 9 N.N.N.N.N.N.M.b.+.. .       ",
"  . . . . . . . . . . . . . . . . . . . . . . . . . . . . . . . . . . . . . . . . . . . . . . . . . . . . . . . . . . . . . .   ",
". X e e e e e e e e e e e e e e e e e e e e e e e e e e e e e e e e e e e e e e e e e e e e e e e e e e e e e e e e e e 8 8 X . ",
". - K.K.K.K.K.K.K.K.K.K.K.K.K.K.K.K.K.K.K.K.K.K.K.K.K.K.K.K.K.K.K.K.K.K.K.K.K.K.K.K.K.K.K.K.K.K.K.K.K.K.K.K.K.K.K.K.K.K.J.H.- . ",
". - K.K.K.K.K.K.K.K.K.K.K.K.K.K.K.K.K.K.K.K.K.K.K.K.K.K.K.K.K.K.K.K.K.K.K.K.K.K.K.K.K.K.K.K.K.K.K.K.K.K.K.K.K.K.K.K.K.K.J.H.- . ",
". . = = = 8 H.K.G = = = = = = = = = = = = = = = = = = = = = = = = = = = = = = = = = = = = = = = = = = = = = = = = = = = = = . . ",
"  . . . . .     . . . . . . . . . . . . . . . . . . . . . . . . . . . . . . . . . . . . . . . . . . . . . . . . . . . . . . .   ",
"                                                                                                                                ",
"                                                                                                                                "
};
