/* XPM */
static char *_d39881d150c4939a97c07c0e05bf2ddCICtpvULbCYnG63Y[] = {
/* columns rows colors chars-per-pixel */
"64 64 110 2 ",
"   c #1C791E",
".  c #266E15",
"X  c #296F16",
"o  c #296F19",
"O  c #257316",
"+  c #2B7416",
"@  c #2B7915",
"#  c #25741C",
"$  c #2B751B",
"%  c #267B1D",
"&  c #2C7B1D",
"*  c #337516",
"=  c #3C7115",
"-  c #357B17",
";  c #33761C",
":  c #3C751B",
">  c #327C1D",
",  c #3B7C1D",
"<  c #1D7624",
"1  c #1E7A26",
"2  c #1C772D",
"3  c #1D7C2C",
"4  c #1D7D32",
"5  c #1F7B38",
"6  c #237623",
"7  c #2B7722",
"8  c #247B25",
"9  c #2C7D23",
"0  c #23772B",
"q  c #247D2B",
"w  c #2A7E2A",
"e  c #347521",
"r  c #3D7720",
"t  c #327D22",
"y  c #3B7D22",
"u  c #327D29",
"i  c #3F7D28",
"p  c #227E32",
"a  c #297D32",
"s  c #227D38",
"d  c #417216",
"f  c #467A17",
"g  c #43761A",
"h  c #4C751C",
"j  c #447C1D",
"k  c #4B7B1D",
"l  c #517B17",
"z  c #517D1C",
"x  c #5B7D1C",
"c  c #487520",
"v  c #457D21",
"b  c #4B7D22",
"n  c #447E29",
"m  c #527E22",
"M  c #5B7F25",
"N  c #2D811E",
"B  c #32821E",
"V  c #3C821E",
"C  c #378A1E",
"Z  c #3D881F",
"A  c #1E812E",
"S  c #1E8233",
"D  c #1F8931",
"F  c #1F8438",
"G  c #1E883D",
"H  c #258224",
"J  c #2D8224",
"K  c #2D8924",
"L  c #24822D",
"P  c #2C832B",
"I  c #2C892C",
"U  c #338324",
"Y  c #3B8323",
"T  c #348925",
"R  c #3C8926",
"E  c #338429",
"W  c #3A8429",
"Q  c #34892B",
"!  c #3B892A",
"~  c #238333",
"^  c #2A8433",
"/  c #248935",
"(  c #2B8932",
")  c #248539",
"_  c #2A863C",
"`  c #258A39",
"'  c #2A8A3B",
"]  c #348732",
"[  c #308834",
"{  c #44811D",
"}  c #4B811E",
"|  c #53811E",
" . c #438324",
".. c #4C8324",
"X. c #438925",
"o. c #4C8A26",
"O. c #44842A",
"+. c #4C8529",
"@. c #45882A",
"#. c #4A892A",
"$. c #538324",
"%. c #598525",
"&. c #548A25",
"*. c #5A8926",
"=. c #538429",
"-. c #58862A",
";. c #548A2A",
":. c #59892A",
">. c #258442",
",. c #2E8840",
/* pixels */
"T J P < p 3 ( P 9 y , j z ..v y t U E J 9 U T 9 q p 3 D I % T B k f =.v y 7 J K U $ , ! & w 0 p q P H N Y {  .$.b j e t T B & 9 ",
"R B 9 L q ~ ^ q w J >  . .O.$ . $ U U & & W U N w q 3 ~ ^ w 9 9  . . .y $ . , T J N T B % P L 4 F / L 8 7 e Y R O.* + 7 N B t > ",
"o.V > J L / L L 8 8 % E & U 7 7 + ! Y , , @.V V 9 I ^ / p q q 0 9 9 9 U $ $ Y V V , X.#.Y Y 8 P ) ~ w w 9 t t & J & # > O.X., j ",
"&.f - & J H L A P 8 8 7 # $ t Y { o.o...| *.} , @ 9 J L 8 P 7 w 9 @ O U ; y +.;.=.| $.%.j * > E w w w w 7 w 7 . J @ t #.+.} =.b ",
"*.o..., , , Y Y ! e e e e r n g =.b } m %.%.%.{ v , > B Y Y > ; e * , O. .+.b z | $.*.$.} { V & B B T E & 9 e ; ,  .v k $.| z *.",
"m %.m =.j  .......v j n g +.b k %.g b z m k =.+.=.=.v +.o.} j j =.g v v g m k $.z z | $.*.+. ., { } +.b b c v v $.h m m l k $.f ",
": g r n : v j ....+...$.g $.k k m b $.v v = , r g r ,  ...k ....b b m m m b m f m c d = v : v v  ...b $.m m m b k z h b $.k g j ",
"> & 7 9 7 # N T j j f f $.-.b g b b j ,  .v ; ; e 7 # & V V @. .j b m m b c =.v r O.! 9 e # e $ & t Y Y V , g =.=.k v ..j g n O.",
"J U & W t > $ U T W 9 t t > U y V T N U > t 9 E U > > & & U ! E t e t , Y Y t Y U U & > Y U J E $ B T T T > > ; Y t T T t W U # ",
"$ t > U 7 U J J & T & J t > B , B > & B e & & & & U & t & U 9 % t U > B B B B > 9 t t @ t & 7 & t & 7 U @ > U U Y t - B - > > E ",
"@ t > 7 & U U & % % N U T T T T J T Y t E N J e 9 9 9 U & U 9 U C N T J T T N B t 9 w 7 9 & > > W 7 t E 9 U I N U ! T T T > & Q ",
"w P 9 9 t t & t U U T U J J J J I J e 7 P H J w 9 9 U % Y > t t B J N I I P J J 9 E P ( w u & y 9 & t t U U K N H P J 9 t 9 w J ",
"( L q P U & > Y & > t t J L A / A 8 w w / D L w U J t $ & $ t U T % ^ L q / 8 0 8 ^ L / q P 9 t @ B - $ t t J J L L L q 0 q ^ L ",
"F ~ ~ 8 P 7 9 U $ $ 9 J J L S F ~ ~ ^ ~ / / ~ ~ 6 w w E E E $ & 9 Q L q p s ) 2 L / ) D ~ q q w % ! t $ 9 e & P ~ 3 ~ ' p 4 ` ' ",
"F ~ / 3 L 8 8 q w w E U J P 8 3 ^ ~ 3 F S / / D ~ L 8 6 8 7 7 ] 9 U ] q q / ) s ~ ~ ` S ` q ~ L # w w 8 w E E ! w 0 L ) ~ 4 F / ",
"L ~ ~ q ~ 3 q p 0 < J & 9 E 7 w p 4 A ~ q ~ L A 5 F p 3 ^ 0 1 q & U 9 J 8 3 L F s ~ ~ ~ / ~ p p 4 s 0 0 6 9 J & U P 3 1 S / 3 L ",
"4 4 s 5 >.4 4 L I H 7 y J N U J 3 ~ ' 4 F 3 5 F 1 / F 3 / q P 7 > T N N E w L / L q S 3 ~ 4 L ~ s 4 L P & t U N B U J L / / A ~ ",
"p ~ 8 q L q 8 L % J Q Q U & U t P [ P L ^ ~ q 3 w ^ 0 3 q J J T Q % > B J P I I ~ ~ p ~ p ^ q p 0 8 J J E Q U % B > J P P L L ~ ",
"q P % J H P w E U W Q J - Y t ; T N J H I I w 8 7 w w ] U U & B ! >  .V $ T T N 0 ( ( P 6 8 7 w I U U N J Q N , Y B J E U 9 H L ",
"P E B U 9 J 7 t & & N B ..;.O.> B N N J E J E P U 9 7 9 t t & Q Y , ;. .@ J T B Q J E N E U U % w 9 Y & & T V =..., N J U Y Q I ",
"J J E w q 0 7 J B N Y ..k %.j t T T T T J J U E w 6 L 8 w t t B  .f *.=.y J T Y R N B N E J P 0 < 9 t > Y T j %.M j N K N T ! J ",
"B & w 0 2 p ^ I J N , $.f $.v U J U T N @ 9 J J 2 2 ~ p I U V B o.} $.j y U 9 T U & B T % 0 4 s S P U U y Y } z M v U K K B & @ ",
"! T U q 3 F ~ L 9 U e #.X.X.; . & U Y B & W T & a p 4 / q J U e j X.X., * 7 J B W > > R t w q 5 ~ ~ 8 w t t #...y ; $ 7 E T > > ",
"R C & P 3 / / q 8 u # J - T 9 e $ Y W B - R R > > P 3 ` ~ q w 6 Y & Y U $ X > T U & R Z C N J 8 ~ / A J 7 $ W & Q > O e W Y & Y ",
"*.j , t J w 8 P L 8 8 E $ 7 ; ; - +...} j &.{ V & J P   L L q L J 7 % 9 $ -  .+.} f &..., , % I L 8 q q w u e X 7 $ >  .+.b ..k ",
"&.{ , > t t J Q J t e 7 $ y Y y +.+.$.%.%.:...j , t Y U t U 7 e $ + e r  .....$.$.m :.-.j , > Y J E Q U & 7 > $ Y y j ..$.$.%.$.",
"%.-.%...v  . . . .j , g g v j } b k z z %.m -.;.+.j : X. .#. .= v j v b b b z h m m m =.;.+...: V { +. ., , : , b k ..z z z $.z ",
"g c b v v v b ..$.| h $.m m k h -.k $.h k = g j v j j +...k $.k b j b m h z $.$.m z d g j v ..: { ..b b m m k $.m h h $.z k k k ",
"> $ > & ; & B X.j &. .k b -.m g } j j j  .Y Y > * , > - Y ,  ...b ..$.$.k k v j v i y y ; * e * , Y v  ...b k ..$.k g b b v v n ",
"E U 9 J 9 & & U B T B , > O. ., y  ., Y , Y & % 9 t @ O ! Y T , * ; ,  .j y  .n > U T E t 9 U 7 % J Q Y Y , - , n  .y Y y Y y > ",
"$ e t t t t t t T & % J & & B U > T t B % & J t 9 U U 9 9 U 9 U Y > B B - > t > E & & $ 8 t U U % 9 J J N N & > > t T Y Y > 9 & ",
"$ 9 t & & 9 9 9 t & Y W t U E T J J J t 9 e e > t $ 7 U $ U 7 9 E J J Q J E Q J B & t t & t $ & Y , > & 7 U Q U Q N B T N % N E ",
"8 P t U t U 9 U t U J Q I % T E T t e t H J J t 7 J t > > U t 9 C T J J I J N C & u J P 9 U & B w U U t B Y J J N K Q B U 7 J ( ",
"L P 7 9 & > $ > & > & E J H P ~ 8 q w w L L ^ w E U & & & & 9 U 9 9 P L ^ ^ 6 7 w L L L L 9 & t @ & > & 7 U J P ( L P 8 8 9 P L ",
"~ ~ q w t t U U & $ U 7 J ( 3 F / p p ~ / / ~ q 7 w t U Y & & e w P P A 4 ) s 4 L / / ~ L q w P Y U t e 9 U J H ~ 4 ~ ~ A L L L ",
") ~ / q w 8 7 9 w 9 U 9 t ( 1 4 / ~ ~ D D / ~ ~ q L q 7 w 9 9 U N E P 8 3 / ) ~ / D G D ' q q P 7 9 w 7 7 P E J 0 3 4 ` S A / ` ",
"D F ~ ~ ~ 2 0 ~ 0 q 9 9 E J q q S ~ q A A / L / ~ S L 3 0 q 8 8 N U J J 8 L S 3 ~ p F S ) A A 3 3 0 q q 7 9 U U w P 3 D S S 3 ` ",
"3 L ~ ~ / 4 F ) q P 9 & U B U u 0 ~ ~ F p s 4 ) 4 5 ~ 4 p ~ q 6 U 9 U u w w ~ ~ q ~ 3 4 ~ p S / 5 ~ ~ q w J U > > T 8   L / p 4 ",
"L q 3 q 0 3 1 q P E J T B & U t P ^ ^ ~ / p 3 S p ~ 3 0 0 P J E Q t t U t P ( ( L ^ ~ p 3 p p L 3 0 L 9 J T Y t > J J P ( I ~ 3 ",
"^ ~ 0 0 w P w E > B T T N & Y & E T H H I ( q 3 w 7 q w E J B C T B B B N N K P 3 ( ^ ~ 0 w 7 q P P J T C W t 9 y & E Q E 8 L ' ",
"P t E U % & t t & % E Y V #. .$ T > T & E J J E U t 7 U t t & P T - o. .& J J U J J J J U Q t + J 9 t & J T > X.o.t & E T U J U ",
"J J u P w 8 w 9 U N V  .k %. .> T N T J E J J J P L 8 8 % J B U  .j :.$., U J T ! T U Q P P P q 8 9 Y > J Y v %..., > 9 U T T P ",
"B N w p 4 q P J N Y , $.z | { t N T J E J J J J < 3 / ~ P J B B } h %.b y U U T W & & E q 8 4 4 8 w U U T { k x =.v Y T T T J @ ",
"C B J 0 4 S ~ ~ 7 Y > #.{ { j ; & T T B & U U t w 0 p q P 9 t Y  .j $.n $ & B C T % N T J P a 4 S ~ w t t y { } j , & J T T J @ ",
"R Y 9 P L ~ / p P J # ! Y R t o O Y Y B - Y W t t w ) ) ' w 7 # R Y Y y $ # > V J @ B Y B % P q G ~ q 8 7 t W W i $ O 9 > , , t ",
"o., - U J L ^ 0 L q 0 t * e 7 8 -  .X.{  .o. ., & P ~ 3 3 L L q J @ & t $ 7 Y  .+.v o.o.{ @ N I L q L L 8 w 9 $ U $ $ Y O. . .n ",
":..., - & J J u J 7 w e $ * > y b +.$.| $.&...j + t J P J E 9 8 $ $ + y y n ..$.m $.%.=.{ - & J 9 9 Q J 7 w $ X e , y +.*.$.$.o.",
"| $.=. .t 9 Y Y  .y e $ > Y  .k $.k | z *.| &.$.#.Y - ,  .@.y * i e ,  . .b m l } %.%.%.$.+. .e T B X.y : r e t  . ...b l l | &.",
"k ..b +.b b ..$.b $.$.h z m h h %.k ..b m h b ..b ..v +.$.z z z b b b g j =...m m m h k ..n ..h o...k $.z k m h b c m %.b ..b c ",
": , : e ; , ,  .j ..j k b ..+.h m k j j v d , > ; : ; v  . .+.b k m -...k h h k v v v r , * , : ,  .{  ...j ....;.h h k k j b m ",
"t & & e & > @ ! Y  ., v y v ..v v .., Y y U & J & t $ & t Y Y Y : g j ..j j j j Y , y e 7 & 9 > # Y Y Y O.y , n  .j g j j , , , ",
"t t 9 U 9 J % E Q > U t > Y > > B W > Y > t $ e U U 9 9 9 U T U U t $ Y Y , T J Y & Y % J J 9 U & 9 J U U , > ; > Y Y B U U 9 & ",
"$ t & U t U J & E @ Y t & B B Y J J N & & t e e & 9 J > U U t % Q J % E U J U 9 t & 9 & 9 Y & & E & & N @ U U > U U U U E % % Q ",
"# E % e > & > & N > > T T % T T Q E U t E J J U > & t > & > > > Y N B T T T E N > 9 J w 7 t - > t & B U @ U T T U U T T > > J T ",
"P P 7 U e > & t & T t U J H / P P 7 9 w L L L 8 U 9 t 7 & > & U Y > J I L P 9 & w I L ^ w 9 9 T & > t t U Q 9 J 9 P P J & u U H ",
"/ q q P w U & U $ > U 8 P / A L L 8 0 ^ / / ~ q w & E t t t 7 U J 8 L F S ) 0 q L ` A / L 8 9 9 & U t $ t P 6 P F 3 4 ~ 3 0 ~ / ",
"/ / / 3 L 8 & V & ; t 9 Q L 3 s ~ ) 3 ~ ' / / / 4 L 8 J t , @ B & U P H 4 _ ,.3 / / / / ^ q q J 9 9 Y & @ 9 J Q L 3 4 ' ~ ~ L ` ",
"3 S / q ^ 0 q 9 8 7 J e E J 8 ~ / 3 S S S A 3 / ~ L 8 # 8 0 8 P e E E 8 q p ~ ~ 3 ~ ~ F F ~ q ~ q 8 q 0 7 u U N P q S F S 3 ~ ) ",
"s ~ ~ 3 s 4 4 ~ A 1 w t Y Y J L q q / A S ~ 3 ~ 2 3 / p _ p 0 2 t U U J I q 1 F L ~ S 4 S ) F s 3 4 ~ 0 0 P J B t w L A A q L 4 ",
"4 0 q p ^ s 3 ~ P q E J & t U J P P ~ / A ~ 4 ~ ) ~ 4 2 q p P E P U & > E P H / ~ p L ~ 4 3 4 p 4 p P L J Q u t B 9 P P ( ~ / S ",
"~ q < 8 8 8 w I t U ! T @ > U 9 T I P L ~ L L 0 w w q ^ P J N C Q & B - & U Q I L L P q q q w 8 a w J N J Q U > B & U E Q L L / ",
"L J P P P 9 % B ; > T T - X.Y $ J T H J I L P q B J 9 9 9 t > Y T > o.Y $ U Q t q P Q w 9 9 u 7 U 9 > & J T V V X.> 9 t t 9 J / ",
"E J J P 8 w 9 T > & B  ...;. .7 C N N U Q U E T J w 8 9 & U U t V { ;.+.t T U & T T T J U P P 8 9 9 U t N Y V $.o. .T T T B J Q ",
"B T J P 6 q w % K J Y ..z $., C T B Y T U J % T q 0 a q 9 U T J o.} %.b t Q K Y R B @ J E w 8 q p q t B B Y ..=.m y N K N T T , "
};
