/* XPM */
static char *a8b3a9497b804ef1c64f4cdf7e7ae73ef1MYkGUMNjWZ5yU7[] = {
/* columns rows colors chars-per-pixel */
"64 64 232 2 ",
"   c None",
".  c #464C50",
"X  c #474C50",
"o  c #474D50",
"O  c #464C51",
"+  c #464D51",
"@  c #474D51",
"#  c #474E51",
"$  c #484E51",
"%  c #484D52",
"&  c #494F52",
"*  c #494F53",
"=  c #485051",
"-  c #4A5151",
";  c #495053",
":  c #4A5152",
">  c #4A5352",
",  c #4B5452",
"<  c #4C5653",
"1  c #4B5054",
"2  c #4B5155",
"3  c #4C5255",
"4  c #4C5256",
"5  c #4D5457",
"6  c #4E5457",
"7  c #4E5952",
"8  c #4F5458",
"9  c #4F5558",
"0  c #505B53",
"q  c #505C52",
"w  c #515E52",
"e  c #505659",
"r  c #51575A",
"t  c #53595C",
"y  c #535A5D",
"u  c #54595D",
"i  c #545A5D",
"p  c #555A5E",
"a  c #545B5E",
"s  c #555B5E",
"d  c #555C5E",
"f  c #565C5F",
"g  c #585F5F",
"h  c #536152",
"j  c #586A51",
"k  c #5A6C51",
"l  c #5B6F51",
"z  c #5B675B",
"x  c #59605E",
"c  c #58605F",
"v  c #5A615F",
"b  c #59625F",
"n  c #5A635E",
"m  c #5C695B",
"M  c #5D6B5C",
"N  c #5F6C5D",
"B  c #5C7150",
"V  c #637A4F",
"C  c #637E4F",
"Z  c #606F5B",
"A  c #607353",
"S  c #607454",
"D  c #617A50",
"F  c #60705B",
"G  c #61725B",
"H  c #63745A",
"J  c #62755A",
"K  c #667C58",
"L  c #667D58",
"P  c #667C59",
"I  c #565C60",
"U  c #575D60",
"Y  c #585E60",
"T  c #CC7A2F",
"R  c #CE7B2F",
"E  c #CD7B30",
"W  c #CE7B30",
"Q  c #CF7C30",
"!  c #D07D30",
"~  c #D27E31",
"^  c #7AB52F",
"/  c #7BB62E",
"(  c #7BB72E",
")  c #7CB72E",
"_  c #7BB82F",
"`  c #7CB82F",
"'  c #7CB92F",
"]  c #77AE33",
"[  c #75A936",
"{  c #78AF32",
"}  c #7CB930",
"|  c #7DB930",
" . c #7EBA31",
".. c #7EBB31",
"X. c #7EBC32",
"o. c #7FBC32",
"O. c #7FBD32",
"+. c #7FBC33",
"@. c #7FBB3A",
"#. c #6B8E44",
"$. c #65834F",
"%. c #67864F",
"&. c #69874E",
"*. c #70934D",
"=. c #70974C",
"-. c #729B4C",
";. c #739D4C",
":. c #688255",
">. c #6A8457",
",. c #6C8655",
"<. c #6C8855",
"1. c #6E8B54",
"2. c #6E8C54",
"3. c #6F8E54",
"4. c #6F9153",
"5. c #759951",
"6. c #759B50",
"7. c #769E50",
"8. c #779E50",
"9. c #77A24A",
"0. c #79A74B",
"q. c #78A04F",
"w. c #78A14F",
"e. c #7AA64D",
"r. c #7AA94A",
"t. c #7DAE49",
"y. c #7FAF4B",
"u. c #7AA84E",
"i. c #7EB049",
"p. c #7EB248",
"a. c #93AA2F",
"s. c #94AB2F",
"d. c #80BD33",
"f. c #81BE33",
"g. c #81BF33",
"h. c #80BE34",
"j. c #81BE34",
"k. c #82BF35",
"l. c #82BF36",
"z. c #83BE3E",
"x. c #98BE3B",
"c. c #C78932",
"v. c #D48031",
"b. c #D48032",
"n. c #D58032",
"m. c #D68032",
"M. c #D78132",
"N. c #D88133",
"B. c #D88233",
"V. c #D98233",
"C. c #D98333",
"Z. c #DA8333",
"A. c #DB8433",
"S. c #DA8334",
"D. c #DB8334",
"F. c #DB8434",
"G. c #DC8434",
"H. c #DD8534",
"J. c #DD8535",
"K. c #DE8535",
"L. c #DE8635",
"P. c #DF8635",
"I. c #E08635",
"U. c #E08735",
"Y. c #E08736",
"T. c #E18736",
"R. c #E28836",
"E. c #E38837",
"W. c #E38937",
"Q. c #E48937",
"!. c #E58937",
"~. c #E48A37",
"^. c #E58A37",
"/. c #E68B37",
"(. c #E78C37",
"). c #E78B38",
"_. c #E68D38",
"`. c #E88B38",
"'. c #E88C38",
"]. c #CEA03B",
"[. c #82C035",
"{. c #83C235",
"}. c #81C036",
"|. c #82C136",
" X c #83C136",
".X c #83C037",
"XX c #81C337",
"oX c #83C237",
"OX c #84C135",
"+X c #85C439",
"@X c #85C539",
"#X c #88C83C",
"$X c #89C93D",
"%X c #8ACB3E",
"&X c #8BCC3F",
"*X c #81B847",
"=X c #80B24B",
"-X c #81B54A",
";X c #82B54A",
":X c #83BA49",
">X c #84BA49",
",X c #85BC48",
"<X c #86BF48",
"1X c #87C147",
"2X c #88C246",
"3X c #88C346",
"4X c #8AC645",
"5X c #88C546",
"6X c #89C447",
"7X c #8CCD40",
"8X c #8DCE41",
"9X c #8DCF41",
"0X c #8ECF42",
"qX c #89C945",
"wX c #8AC845",
"eX c #8BCA44",
"rX c #8CCA45",
"tX c #8CCD44",
"yX c #8DCD44",
"uX c #8ECF44",
"iX c #9BC841",
"pX c #8ED042",
"aX c #8ED043",
"sX c #8FD043",
"dX c #8ED143",
"fX c #8FD143",
"gX c #8FD242",
"hX c #8FD243",
"jX c #8FD044",
"kX c #8FD144",
"lX c #90D143",
"zX c #90D243",
/* pixels */
"                                                                                                                                ",
"                                                                                                                                ",
"                                                                                                                                ",
"                                                                                                                                ",
"                                                                                                                                ",
"                                                                                                                                ",
"                                                                                                                                ",
"                                                                                                                                ",
"                                                                                                                                ",
"                                                                                                                                ",
"          fXfXfXfXfXfXfXfXfXfXfXfXfXfXfXfXfXfXfXfXfXfXfXfXfXfXfXfXfXfXfXfXfXfXfXfXfXfXfXfXfXfXfXfX0Xj._ ( ( ( ( ( ' }.          ",
"          fXfXfXfXfXfXfXfXfXfXfXfXfXfXfXfXfXfXfXfXfXfXfXfXfXfXfXfXfXfXfXfXfXfXfXfXfXfXfXfXfXfXfXfXfX0X..( ( ( ( ( ( (           ",
"          fXfXfXfXfXfXfXfXfXfXfXfXfXfXfXfXfXfXfXfXfXfXfXfXfXfXfXfXfXfXfXfXfXfXfXfXfXfXfXfXfXfXfXfXfXfXo.( ( ( ( ( ( ' j.        ",
"        fXfXfXfXfXfXfXfXfXfXfXfXfXfXfXfXfXfXfXfXfXfXfXfXfXfXfXfXfXfXfXfXfXfXfXfXfXfXfXfXfXfXfXfXfXfXlX}.( ( ( ( ( ( ( j.        ",
"        fXfXfXfXfXfXfXfXfXfXfXfXfXfXfXfXfXfXfXfXfXfXfXfXfXfXfXfXfXfXfXlXfXfXfXfXfXfXfXfXfXfXfXfXfXfXlX@X( ( ( ( ( ( ( ..        ",
"        fXfXfXfXfXfXfXfXfXfXfXfXfXfXfXfXfXfXfXfXfXfXfXfXfXfX6Xu.w.e.-XrXfXfXfXfXfXfXfXfXfXfXfXfXfXfXfX$X( ( ( ( ( ( ( '         ",
"        fXfXfXfXfXfXfXfXfXfXfXfXfXfXfXfXfXfXfXfXfXfXfXjX6X,.U U U U U Y L w.6XzXfXfXfXlXfXfXfXfXfXfXfX0X( ( ( ( ( ( ( (         ",
"        fXfXfXfXfXfXfXfXfXfXfXfXfXfXfXfXfXfXfXfXlXsX0X7.v U U U U U U U U U v :.-XfXfXlXfXfXfXfXfXfXfX0X( ( ( ( ( ( ( (         ",
"        fXfXfXfXfXfXfXfXfXfXfX>X4.F F <.w.,XfXfXtX=XH Y U U U U U U U U U U U U Y F 7.qXfXfXfXfXfXfXfXfX..( ( ( ( ( ( ( .X      ",
"      jXfXfXfXfXfXfXfXfX1X5.F U U U Y Y U U v N v Y I I U U U U U U U U U U U U U Y U g Z K K L K 1.<XfXj.( ( ( ( ( ( ( j.      ",
"      lXfXfXfXfXfXtXw.J U U U U U U U U U U U U I Y I Y I Y I Y U U U U U U U U U U U U U U U U f f v 3.@.( ( ( ( ( ( ( o.      ",
"      fXfXfXfXfX:XM U U U U U U U U U U U U U U Y I Y I Y I Y I U U U U U U U U U U U U U U U U U U U U v #.( ..( ( ( ( o.      ",
"      lXfXfXfXfXZ U U U U U U U U U U U U U U U I Y I Y I Y I Y U U U U U U U U U U U U U U U U U U U U f U B { ( ( ( ( '       ",
"      fXfXfXfXfXg U U U U U U U U U U U U U U U Y I Y I Y I Y I U U U U U U U U U U U U U U U U U U U U U U Y S ( ( ( ( (       ",
"      fXfXfXfXfXN f Y U U U U U U U U U U U U U U U U U Y U U I U U Y Y I Y I Y U U U U U U U U U U U U U U f v ( ( ( ( (       ",
"      fXfXfXfXfX3.f U U U U U U U U U U U U U U U U f y a y a a a a a g Y I Y I U U U U U U U U U U U U U U U V ( ( ( ( ( }.    ",
"    fXfXfXfXfXfX-XY U U U U Y f U U f y r 9 ; * . . . . . . . . O . . X * * 4 4 r y U f U U U U U U U U U U z ] ( ( ( ( ' d.    ",
"    fXfXfXfXfXfXfXJ U U U U U a 9 ; . . . . . . . . . . . . . . O . . . . . O O . . . * 9 a U U U U U U U m [ ( ( ( ( ( ) d.    ",
"    fXfXfXfXfXfXfX=XU U a 6 . . . . . . . . . . . . . . . . . . . . . . . . . . . . . . . . * 6 f U U U L z._ ( ( ( ( ( ( ..    ",
"    fXfXfXfXfXfXfXfX:.4 . . . . . . . . . . . . . . . . . . . . . . . . . . . . . . . . . . o o . 9 v 5.fX$X( ( ( ( ( ( ( (     ",
"    fXfXfXfXfXfXfXfXqX< . . . . . . . . . . . . . . . . . . . . . . . . . . . . . . . . . . o o o 7 p.fXfX0X( ( ( ( ( ( ( (     ",
"    fXfXfXfXfXfXfXfXfX3X0 . . . . . . . . . . . . . . . . . . . . . . . . . . . . . . . . . , k t.fXfXfXfXfX' ( ( ( ( ( ( ( OX  ",
"    fXfXfXfXfXfXfXfXfXfX0X&.7 * o o . . . . . . . . . . . . . . . . . . . . . . - w k %.9.6XfXfXfXfXfXfXfXfXo._ ( ( ( ( ( ( }.  ",
"  fXfXfXfXfXfXfXfXfXfXfXfXfXfXfXqX-Xr.;.*.$.B w . . . . . . . . . . . . . . h t.fXfXlXfXfXfXfXfXfXfXfXfXfXfX}.' ( ( ( ( ( ( j.  ",
"  fXfXfXfXfXfXfXfXfXfXfXfXfXfXfXfXfXfXfXfXfXfXfXtX;.j . . . O . . . . o - =.lXfXfXfXfXfXfXfXfXfXfXfXfXfXfXfX@X( ( ( ( ( ( ( o.  ",
"  fXfXfXfXfXfXfXfXfXfXfXfXfXfXfXfXfXfXfXfXfXfXfXjXjXfXfXr.V w - . . - C 0XfXfXfXfXfXfXfXfXfXfXfXfXfXfXfXjXzX@X( ( ( ( ( ( ( ..  ",
"  fXfXfXfXfXfXfXfXfXfXfXfXfXfXfXfXfXfXfXfXfXfXfXfXfXfXfXfXfXfXfXfXtXfXfXfXfXfXfXfXfXfXfXfXfXfXfXfXfXfXfXfXfX&X( ( ( ( ( ( ( (   ",
"  fXfXfXfXfXfXfXfXfXfXfXfXfXfXfXfXfXfXfXfXfXfXfXfXfXfXfXfXfXfXfXfXfXfXfXfXfXfXfXfXfXfXfXfXfXfXfXfXfXfXfXfXfX0X_ ( ( ( ( ( ( (   ",
"  fXfXfXfXfXfXfXfXfXfXfXfXfXfXfXfXfXfXfXfXfXfXfXfXfXfXfXfXfXfXfXfXfXfXfXfXfXfXfXfXfXfXfXfXfXfXfXfXfXfXfXfXfXfX..( ( ( ( ( ( ( }.",
"jXfXfXfXfXfXfXfXfXfXfXfXfXfXfXfXfXfXfXfXfXfXfXfXfXfXfXfXfXfXfXfXfXfXfXfXfXfXfXfXfXfXfXfXfXfXfXfXfXfXfXfXfXfXfXg.( ( ( ( ( ( _ }.",
"jXfXfXfXfXfXfXfXfXfXfXfXfXfXfXfXfXfXlXlXlXlXlXlXfXfXfXfXfXfXfXfXfXfXfXfXfXfXfXfXfXfXfXfXfXfXfXfXfXfXfXfXfXfXlX}.( ( ( ( ( ( ( d.",
"jXfXfXfXfXfXfXfXfXfXfXfXfXfXfXfXfXfXlXlXlXlXlXlXfXfXfXfXfXfXfXfXfXfXfXfXfXfXfXfXfXfXfXfXfXlXfXfXfXfXfXfXfXfXfX@X( ( ( ( ( ( _ o.",
"iXiXiXiXiXiXiXiXiXiXiXiXiXiXiXiX&XiXiXiXiXiXiXiXiXiXiXiXiXiXiXiXiXiXiXiXiXiXiXiXiXiXiXiXiXiXiXiXiXiXiXiXiXiXiXx.a.a.a.a.a.a.a.s.",
"'.'.'.'.'.'.'.'.'.'.'.'.'.'.'.'.`.`.`.'.'.'.'.'.'.'.'.'.'.'.'.'.'.'.'.`.'.'.'.'.'.'.'.'.'.'.'.'.'.'.'.'.'.'.`.T.T T T T T T T T ",
"'.'.'._.'.'.'.'.'.'.'.'.'.'.'.'.'.'.'.'.'.'.'.'.'.'.'.(.'.'.'.'.'.'.'.'.'.'.'.'.'.'.'.'.'.'.'.'.'.'.'.'.'.'.'.T.T T T T T T T T ",
"J.J.J.J.J.J.J.L.'.`.'.'.'.R.J.J.J.J.J.J.J.J.(.'.'.'.'.^.H.J.J.J.J.J.J.J.^.'.'.'.'.^.H.J.J.J.J.J.J.J.^.'.'.'.'.^.V.n.V.n.n.V.V.n.",
"T T T T T T T T J.(.'.'.'.~ T T T T T T T T V.'.'.'.'.~ T T T T T T T T n.'.'.'.'.n.T T T T T T T T ~ '.'.'.'.'.'.'.'.'.'.'.'.'.",
"V.V.V.V.V.V.V.A.^.'.'.`.(.J.V.V.V.V.V.V.V.V.^.'.'.'.'.T.V.V.V.V.V.V.V.V.R.'.'.'.'.R.V.V.V.V.V.V.V.V.R.'.'.'.'.^.A.A.F.F.A.A.A.A.",
"'.'.'.'.'.'.'.'.'.'.'.'.'.'.'.'.'.'.'.'.'.'.'.'.'.'.'.'.'.'.'.'.'.'.'.'.'.'.'.'.'.'.'.'.'.'.'.'.(.'.'.'.'.'.'.T.T T T T T T T T ",
"'.'.'.'.'.'.'.'.'.'.'.'.'.'.'.'.'.'.'.'.'.'.'.'.'.'.'.'.'.'.'.'.'.'.'.^.'.'.'.'.'.'.'.'.'.'.'.'._.'.'.'.'.'.'.T.T T T T T T T T ",
"'.'.'.'.'.'.Q T T T T T T T T J.'.'.'.'.n.T T T T T T T T H.'.'.'.'.V.T T T T T T T T V.'.'.'.'.D.T T T T T T T T T T T T T T T ",
"'.'.'.'.'.(.n.Q E E E E Q Q T T.'.'.'.'.V.E E E E E E E T J.'.'.'.'.J.T E E E E E Q T S.'.'.'.'.J.E E E E E Q T T T T T T T T T ",
"_.'.'.'.'.'.'.'.'.'.'.'._.'.'.'.'.'.'.'.'.'.'.'.'.'.'.'.'.'.'.'.'.'.'.'.'.'.'.'._.'.'.'.'.'.'.'.'.'.'.'.'.'.'.T.T T T T T T T T ",
"].'.'.'.'.'.'.'.'.'.'.'.`.'.'.'.'.'.'.'.'.'.'.'.'.'.'.'.'.'.'.'.'.'.'.'.'.'.'.'.`.'.'.'.'.'.'.'.'.'.'.'.'.'.`.n.T T T T T T T c.",
"                                                                                                                                ",
"                                                                                                                                ",
"                                                                                                                                ",
"                                                                                                                                ",
"                                                                                                                                ",
"                                                                                                                                ",
"                                                                                                                                ",
"                                                                                                                                ",
"                                                                                                                                ",
"                                                                                                                                "
};
