/* XPM */
static char *_29f2825285d4087b2364f3548fddc39o4lXwM8hKetXKSJf[] = {
/* columns rows colors chars-per-pixel */
"64 64 109 2 ",
"   c None",
".  c #030404",
"X  c #070708",
"o  c #070808",
"O  c #0B0B0B",
"+  c #0F0F11",
"@  c #0F1010",
"#  c #121313",
"$  c #161718",
"%  c #171819",
"&  c #1B1C1C",
"*  c #232424",
"=  c #262728",
"-  c #272829",
";  c #2A2C2D",
":  c #2E2F30",
">  c #2F3031",
",  c #323435",
"<  c #353638",
"1  c #37393A",
"2  c #3A3C3E",
"3  c #3D3F41",
"4  c #3E4042",
"5  c #424445",
"6  c #444648",
"7  c #47494B",
"8  c #494C4D",
"9  c #4C4F50",
"0  c #4E5152",
"q  c #535456",
"w  c #535658",
"e  c #56595C",
"r  c #595C5E",
"t  c #5C5F61",
"y  c #5D6063",
"u  c #616366",
"i  c #636669",
"p  c #66696C",
"a  c #696C6E",
"s  c #6B6F71",
"d  c #6E7274",
"f  c #707476",
"g  c #727679",
"h  c #76797C",
"j  c #787C7F",
"k  c #7A7E81",
"l  c #7E8285",
"z  c #83878A",
"x  c #868A8D",
"c  c #8A8E92",
"v  c #8F9497",
"b  c #8E9296",
"n  c #909497",
"m  c #92969A",
"M  c #919699",
"N  c #93989B",
"B  c #94989C",
"V  c #969A9E",
"C  c #969B9F",
"Z  c #999DA1",
"A  c #9A9EA2",
"S  c #9A9FA3",
"D  c #999DA2",
"F  c #9DA1A5",
"G  c #9DA1A5",
"H  c #9FA4A8",
"J  c #A0A5A9",
"K  c #A1A6AA",
"L  c #A2A7AB",
"P  c #A6AAAF",
"I  c #A4A9AD",
"U  c #A8ADB1",
"Y  c #AAAFB3",
"T  c #ABB0B4",
"R  c #ACB1B5",
"E  c #AEB3B8",
"W  c #AEB3B8",
"Q  c #B0B5B9",
"!  c #B1B6BA",
"~  c #B4B9BE",
"^  c #B6BBBF",
"/  c #B6BCC0",
"(  c #B7BCC1",
")  c #B8BDC2",
"_  c #B9BEC3",
"`  c #B9BFC4",
"'  c #B8BDC2",
"]  c #BAC0C4",
"[  c #BCC1C6",
"{  c #BCC2C6",
"}  c #BEC4C9",
"|  c #BFC5C9",
" . c #BEC4C9",
".. c #C1C6CB",
"X. c #C1C7CC",
"o. c #C2C8CD",
"O. c #C3C9CE",
"+. c #C5CACF",
"@. c #C4C9CE",
"#. c #C6CCD1",
"$. c #C6CCD1",
"%. c #C8CED3",
"&. c #C9CFD3",
"*. c #C9CFD4",
"=. c #C9CFD4",
"-. c #CAD0D5",
";. c #CBD1D6",
":. c #CCD2D5",
">. c #CBD1D6",
/* pixels */
"            X j l l l k l l #                       X q l l l l l k l l k z k l l l l l o                                       ",
"          X 5 l l l l l l l 9 X                     * l l l l l k z l l z k k z l l l l %                                       ",
"          # k l l l l l l l j X                     2 l l l l l z l l l k z k z l l l l =                                       ",
"        X u l l l l l l l l l < X         . . .     < l l l l l k l l l l k z k l l l l -     .                                 ",
"        & z l l l l l l l l l a X       .           * z l l l l l l l l l l l l l l l l -       . . .                           ",
"      o u l l l l l l l l l z k .                   + l l l l l l l l l l l l l l l l l *                     . . X             ",
"      % l l l l l l l l l l l t o                   X h l l l l l l l l l l l l l l l l *                 X * 4 5 7 4 : $ X o   ",
"      , l l l l l l l l l l g O                     o w l l l l l l l l l l l l l l l l $               # d l l l l l l l k 3 X ",
"      + k l l l l l l l l h $                         * l l l l l l l l l l l l l l l l o             o e l l l l l l l l l l i ",
"      o = j l l l l l l d O X                         . h l l l l l l l l l l l l l l q X             o g l l l l l l l l l l l ",
"        o $ g z l l l 8 X       O o o # O X O         X 6 l l l l l l l l l l l l l i X               . k z l l l l l l l l l l ",
"            o e g e $ X     O ; x ] >.>.>...q O         X d l l l l l l l l l l l q X                 . f k l l l l l l l l l z ",
"              o X o       o 8 >.>.>.>.>.>.>.%.$           X ; a l l l l l l l l : o                   o u l l l l l l l l l l l ",
"                          $ o.>.>.>.>.>.>.-.-.r             . X ; i l l l j 8 f           .           X 8 k l l l l l l l l z k ",
"        . .             2 J >.>.>.>.>.>.>.>.>.S O                 X # 1 < X X             .             : z l l l l l l l k l k ",
"          . .           ( >.>.>.>.>.>.>.>.>.>.-.o                                         . .           o k l l l l l l l z k z ",
"                      o U >.>.>.>.>.>.>.>.>.>.>.;       . .                                             O p z l l l l l l l i % ",
"                      * >.>.>.>.>.>.>.>.>.>.>.>.t                                                         & j l l l l l l 6 X   ",
"                      t >.>.>.>.>.>.>.>.>.>.>.>.z O                                                       X $ r k z k f * X     ",
"o X o # o           O j >.>.>.>.>.>.>.>.>.>.>.>.c #                 O O # O + +         o o o                 o X & $ X X       ",
">.#.^ S a o           0 >.>.>.>.>.>.>.>.>.>.>.>.u X           o % q g b K Q Q h O     X 8 s r # o                               ",
":.>.>.>.>.x O         o l >.>.>.>.>.>.>.>.>.>.( O         O 7 T >.>.>.-.>.>.>.>.n X O a l l l l 7 X                             ",
":.>.>.>.>.>.8 O         O , B #.>.>.-.-.>.-.] &         O s >.>.>.>.>.>.>.>.>.%.p % f z l l l l z f #                           ",
":.>.>.>.>.>...O             O X 1 f N ! { c #           $ -.>.>.>.>.>.>.>.>.>.x $ g l l l l l l l l r O                         ",
":.>.>.>.>.>.>.l O                 o + O X O           O x -.>.>.>.>.>.>.>.>._ O a l l l l l l l l k a o         . .             ",
":.>.>.>.>.>.>.-.*                                     % -.>.>.>.>.>.>.>.>.>.6 5 l l l l l l l l l z 8 o           .             ",
":.>.>.>.>.>.>.>.G O                                 + j >.>.>.>.>.>.>.>.-._ o k l l l l l l l l l l *             .             ",
":.>.>.>.>.>.>.>._ o                                 o o.>.>.>.>.>.>.>.>.>.P $ z l l l l l l l l l l                             ",
":.>.>.>.>.>.>.>.H O     . . .         . . .         q >.>.>.>.>.>.>.>.>.>.@.O f l l l l l l l k l 8 O                           ",
":.>.>.>.>.>.>.>.d O         .         .           # x >.>.>.>.>.>.>.>.>.>.>.a ; l l l l l l l z l +                             ",
":.>.>.>.>.>.>.>.1                                 # c >.>.>.>.>.>.>.>.>.>.>.#.& e z l l l l z k e o                             ",
":.>.>.>.>.>.>.+.o                                 O d >.>.>.>.>.>.>.>.>.>.>.>.A # j l l l l h 9 X                 O . X @ O     ",
">.>.>.>.>.>.*.c #                     . X           ; -.>.>.>.>.>.>.>.>.>.>.>.>.t % 7 7 * % X o                 o z *...K k 6 $ ",
">.>.>.>.>.-.-.,             . $ l ; < 5 6 5 O o     X | >.>.>.>.>.>.>.>.>.>.>.>.>.B e 2 o                     o e -.>.>.>.>.>.>.",
":.>.>.>.>.>.P o         X X 1 s l l l l l l j @     # c >.>.>.>.>.>.>.>.>.>.>.>.>.>.>.5           .           o ^ >.>.>.>.>.>.>.",
":.>.>.>.>.*.-           # f l l l l l l l l l 0 o     % 9 1 1 i @.>.>.>.>.>.>.>.>.>.R o           .           5 >.>.>.>.>.>.>.>.",
":.-.>.%.! e O         o 8 l l l l l l l l l l j X O + , x B C 6 1 -.>.>.>.>.>._ B t +               .       O F >.>.>.>.>.>.>.-.",
"o . . . O O           o u l l l l l l l l l l 8 O f %.>.>.>.>.-.% # & & & # X o #                           X | >.>.>.>.>.>.>.:.",
"                      o d l l l l l l l l l p # _ >.>.>.>.>.>.>.n o                                         O c >.>.>.>.>.>.>.:.",
"                      X j l l l l l l l l l > h >.>.>.>.>.>.>.>.>.;                         o X X . X o       O P >.>.>.>.>.>.:.",
"                      X l l l l l l l l l g O o.>.>.>.>.>.>.>.>.>.M O                   X , e d l j a 5 X       O G -.>.>.>.>.>.",
"                      o y l l l l l l l l 7 0 :.>.>.>.>.>.>.>.>.>.*.#                 o s l l l l l z l ;         O g *.>.>.>.>.",
"        .               o q l z l l l l l % v -.>.>.>.>.>.>.>.>.>.>.a o             X e l l l l l l l l r o         O ; G >.>.>.",
"        .                 X # q k l l e O . | ;.>.>.>.>.>.>.>.>.>.>.U +             7 z l l l l l l l l k X             O ; g r ",
"          . .                 o X & @ X   % -.-.>.>.>.>.>.>.>.>.>.>.{ o           8 l l l l l l l l l l l *                 o   ",
"                                          * ;.-.>.>.>.>.>.>.>.>.>.>.G +           < l l l l l l l l l l l 6 .                   ",
"                                          # -.;.>.>.>.>.>.>.>.>.>.>.5           X p l l l l l l l l l l l t O                   ",
"                  O O 5 & O               o l ;.>.>.>.>.>.>.>.>.>.x o           o z l l l l l l l l l l l h X                   ",
"                o u $.-.>.x # o             o 4 N o.-.-.>.>.>.>.z O             & l l l l l l l l l l l l l .         . .       ",
"            O * U >.>.>.>.>..., O               # . o % * * & @ O               O k l l l l l l l l l l l d X           .       ",
"            * #.-.>.>.>.>.>.-.%.8 O                                             o 3 z l l l l l l l l l l ; X                   ",
"          O j >.>.>.>.>.>.>.>.>.-.5 O                                             X % y l l l l l l l l 6 X                     ",
"          X s -.>.>.>.>.>.>.>.>.>.@.&                                                 o X - q a j z h , X                       ",
"            6 >.>.>.>.>.>.>.>.>.>.>.S O         .                                           o o . X . X                         ",
"            % >.>.>.>.>.>.>.>.>.>.>.{ o         .           o o . . X O                                       . . .             ",
"            o R >.>.>.>.>.>.>.>.-.-.x O       . .       X % w p g h h e o                                     .                 ",
"            O r >.>.>.>.>.>.>.>.-.$.#                   % k l l z l l l e o                                                     ",
"              o u { >.>.>.>.>.>.-.a O                 X s l l l l l l l z O             O o ; * o O o                   .       ",
"                O o 6 M @.-.>.>.! o                 X 2 l l l l l l l l z 7 X           ; ..>.>.>.P p # +             . .       ",
"        . .           # X 2 h a O                   X j l l l k l l l l l h X         X ! ;.>.>.>.>.>.*.b & O                   ",
"          .                 o O                   X 4 l k z k z l l l l l z +         - >.>.>.>.>.>.>.>.;.*.6 O                 ",
"          .                                       X h l k z z k l l l l l h .       O s >.>.>.>.-.>.>.>.;.;.} o                 ",
"                                                  $ l l z k l l l l l l l , o       # c >.>.>.>.;.;.>.>.;.;.>.e                 ",
"                                                  O l l k z k l l l l l e X         O Z >.>.>.>.>.;.*.>.*.>.>.c o               "
};
