/* XPM */
static char *_f9fdb28bec542d09c9add41694e7761pWlcogSKzSx8FTA4[] = {
/* columns rows colors chars-per-pixel */
"64 64 120 2 ",
"   c None",
".  c #844F34",
"X  c #835035",
"o  c #845034",
"O  c #845134",
"+  c #845035",
"@  c #845135",
"#  c #845334",
"$  c #845434",
"%  c #836438",
"&  c #846438",
"*  c #847D3D",
"=  c #72B746",
"-  c #73B746",
";  c #73B747",
":  c #72B846",
">  c #73B846",
",  c #73B946",
"<  c #73B847",
"1  c #73B947",
"2  c #73BA46",
"3  c #73BA47",
"4  c #74B947",
"5  c #74BA47",
"6  c #74BB47",
"7  c #75BB47",
"8  c #75BC47",
"9  c #75BD47",
"0  c #76BC47",
"q  c #75BB48",
"w  c #75BC48",
"e  c #75BD48",
"r  c #76BD48",
"t  c #75BE48",
"y  c #76BE48",
"u  c #76BF48",
"i  c #77BF48",
"p  c #76BE49",
"a  c #76BF49",
"s  c #77BF49",
"d  c #78BF48",
"f  c #77C048",
"g  c #77C049",
"h  c #77C149",
"j  c #78C049",
"k  c #78C149",
"l  c #79C149",
"z  c #78C249",
"x  c #79C249",
"c  c #79C349",
"v  c #78C14A",
"b  c #78C24A",
"n  c #79C24A",
"m  c #79C34A",
"M  c #7AC34A",
"N  c #7AC44A",
"B  c #7AC54A",
"V  c #7BC54A",
"C  c #7AC44B",
"Z  c #7AC54B",
"A  c #7BC54B",
"S  c #7BC64A",
"D  c #7BC64B",
"F  c #7BC74B",
"G  c #7CC64B",
"H  c #7CC74B",
"J  c #7CC74C",
"K  c #7CC84B",
"L  c #7DC84B",
"P  c #7DC94B",
"I  c #7CC84C",
"U  c #7DC84C",
"Y  c #7CC94C",
"T  c #7DC94C",
"R  c #7DCA4C",
"E  c #7DCB4D",
"W  c #7ECA4C",
"Q  c #7ECB4C",
"!  c #7FCB4C",
"~  c #7ECA4D",
"^  c #7ECB4D",
"/  c #7FCB4D",
"(  c #7FCC4C",
")  c #7ECC4D",
"_  c #7FCC4D",
"`  c #7FCD4D",
"'  c #7FCE4E",
"]  c #83843F",
"[  c #80CC4D",
"{  c #80CD4D",
"}  c #80CE4D",
"|  c #80CF4D",
" . c #81CF4D",
".. c #80CE4E",
"X. c #80CF4E",
"o. c #81CF4E",
"O. c #81D04E",
"+. c #81D14E",
"@. c #82D04E",
"#. c #82D14E",
"$. c #82D04F",
"%. c #82D14F",
"&. c #82D24E",
"*. c #83D24E",
"=. c #82D34E",
"-. c #83D34E",
";. c #82D24F",
":. c #83D24F",
">. c #82D34F",
",. c #83D34F",
"<. c #84D34E",
"1. c #84D34F",
"2. c #82D44E",
"3. c #83D44E",
"4. c #82D44F",
"5. c #83D44F",
"6. c #82D250",
"7. c #83D350",
"8. c #82D450",
"9. c #84D450",
/* pixels */
"                                                                                                                                ",
"      4.7.-.8.    1.7.-.    -.7.7.-.    7.-.1.    -.-.7.    -.7.8.-.    -.7.1.    -.7.-.    -.7.8.-.    7.-.1.    4.7.7.7.      ",
"    -.-.-.7.-.7.-.7.-.7.-.7.-.7.7.-.7.-.-.7.-.7.7.-.7.-.7.-.7.-.-.7.-.7.-.7.-.7.-.7.-.7.7.-.7.-.-.7.-.7.-.7.-.7.1.-.7.-.7.-.    ",
"  8.-.7.7.-.7.-.7.-.7.-.7.-.7.-.-.7.-.7.7.-.7.-.-.7.-.7.-.7.-.7.7.-.7.-.7.-.7.-.7.-.7.-.-.7.-.7.7.-.7.-.7.-.7.-.-.7.-.7.-.7.-.  ",
"  -.-.7.-.7.-.7.-.7.-.7.-.7.-.7.7.-.7.-.-.7.-.1.7.-.7.-.7.-.7.-.-.7.-.7.-.7.-.7.-.7.-.7.-.7.-.7.-.7.7.-.7.-.-.7.-.7.-.7.7.-.7.  ",
"  7.7.-.7.-.7.-.7.-.7.-.7.-.7.-.-.7.-.7.7.-.7.5.-.7.-.7.-.7.-.7.7.-.7.-.7.-.7.-.7.-.7.-.7.-.7.-.7.-.-.9.-.7.7.-.7.-.7.-.-.7.-.  ",
"  -.-.7.-.7.-.7.-.7.-.7.-.7.-.7.7.-.7.-.-.7.1.~ m ~ 7.-.7.-.7.-.-.7.-.7.-.7.-.7.-.7.-.7.-.7.-.7.-.-.Z m X.1.-.7.-.7.-.7.-.7.8.  ",
"    7.-.7.-.7.-.7.-.7.-.7.-.7.-.-.7.-.7.-.-.t = = = ~ -.-.7.-.7.7.-.7.-.7.-.7.-.7.-.7.-.7.-.7.-._ q 1 = q X.7.-.7.-.7.-.7.-.    ",
"      -.7.-.7.-.-.7.-.7.-.7.-.7.7.-.7.-.-.3 = = t = 3 -.7.-.7.-.-.7.-.7.7.-.7.-.7.-.7.-.-.7.-.~ = = 4 4 = m -.7.-.7.-.7.-.      ",
"      7.-.7.-.7.7.-.7.-.7.-.7.-.-.7.-.7.t = 1 X.7.1 = ~ -.7.-.7.7.-.7.-.-.7.-.7.-.7.-.7.7.-.X.= = d -.~ = ; -.-.7.-.7.-.7.      ",
"    7.-.7.-.7.-.-.7.-.7.-.7.-.7.7.-.4.~ = = X.-.-.m = m 7.-.7.-.-.7.-.7.7.-.7.-.7.-.7.-.-.7.d = t 7.7.-.3 = P 1.-.7.-.7.7.-.    ",
"  -.-.7.-.7.-.7.7.-.7.-.7.-.7.-.-.7.-.g = m -.7.-.J = t -.7.-.7.7.-.7.-.-.7.-.-.-.7.-.7.7.-.= = _ -.-.7.t = ~ -.7.-.7.-.-.7.-.  ",
"  -.7.-.7.-.7.-.-.X.C ~ -.-.7.-.-.7.-._ m -.7.-.7.B = d 7.-.7.-.-.7.7.-.~ B X.1.7.-.-.7.-.7.J G 7.-.7.-.t ; ~ 1.7.-.7.-.7.-.7.  ",
"  7.-.7.-.7.-.7.X.= = = t X.-.7.7.-.7.-.7.7.-.7.-.J = J -.7.-.7.7.-.-.J = = = m -.7.7.-.7.-.7.-.-.7.-.7.t = X.1.-.7.-.7.-.7.-.  ",
"  -.7.-.7.-.1.1.t = 3 3 = 4 X.-.-.7.-.7.-.7.7.-.7.-.X.-.7.-.7.-.-.7.-.= = t = = t 9.-.7.-.7.-.7.7.-.7.-.7.X.7.-.7.-.7.-.7.-.7.  ",
"    1.7.-.7.-.X.; ; _ -.q = 1 7.7.-.7.-.7.-.-.7.-.7.-.7.-.7.-.7.7.-.B = 4 -.~ = = m 7.-.7.-.7.-.-.7.-.7.-.7.-.7.-.7.-.7.-.4.    ",
"      7.-.7.-.~ = t 9.7.X.4 = B -.7.-.7.-.7.-.7.7.-.7.-.7.-.7.-.-.7.t = Z -.7.~ = 1 X.-.7.-.7.-.7.-.7.-.7.-.7.-.7.-.7.-.7.      ",
"    -.7.7.-.-.B = d 1.-.-.~ 1 1 7.-.7.-.7.-.7.-.-.7.-.7.-.7.-.7.7.-.q = ~ 7.-.-.t = m 7.-.7.-.7.-.7.-.7.-.7.-.7.-.7.-.7.-.-.    ",
"  -.7.-.-.7.7.B = m -.7.-.7.m I -.7.-.7.-.7.-.7.7.-.7.-.7.-.7.-.-.7.t 1 ~ -.-.7.X.m X.-.7.-.7.-.7.-.7.-.7.-.7.-.7.-.7.-.-.7.7.  ",
"  7.-.7.7.-.8._ = t 7.-.7.-.-.7.7.-.7.-.7.-.7.-.-.7.-.7.-.7.-.7.7.-.g = ~ -.7.-.-.-.-.7.-.7.-.7.-.7.-.7.-.7.-.7.-.7.-.7.7.-.7.  ",
"  -.7.-.-.7.-.7.X.-.-.7.-.7.-.7.7.-.7.-.-.7.-.7.-.-.7.-.7.-.7.-.-.7.-._ -.7.-.7.-.7.-.7.7.-.7.-.7.-.-.-.-.7.7.-.7.-.7.-.-.7.-.  ",
"  9.-.7.7.-.7.-.7.-.7.-.7.-.7.-.-.7.-.7.7.-.-.~ m J -.7.-.7.-.7.7.-.9.8.7.-.7.-.7.-.7.-.-.7.-.7.7.-.B m _ -.-.7.-.7.-.7.7.-.4.  ",
"    7.-.-.7.-.7.-.7.-.7.-.7.-.7.7.-.7.-.-.-.t = = = G 7.7.-.7.-.-.7.-.7.-.7.-.7.-.7.-.7.7.-.-.-.~ 1 1 1 1 -.-.-.7.-.7.-.7.-.    ",
"      -.7.-.7.-.7.-.7.-.7.-.7.-.-.7.-.8.' q = 1 8 1 4 -.-.7.-.7.7.-.7.-.7.-.7.-.7.-.7.-.-.7.-.~ 1 = 1 4 = m -.7.-.7.-.7.-.      ",
"      7.7.-.7.-.7.-.7.-.-.7.-.7.7.-.7.-.d = 1 [ -.= = ~ 7.-.7.-.-.7.-.7.-.7.-.7.-.7.-.7.-.7.X.4 = t -.~ = 1 7.-.7.-.7.-.7.      ",
"    7.-.-.7.-.7.-.7.-.7.7.-.7.-.-.7.7._ = ; X.-.-.m = m -.7.-.7.7.-.7.-.7.-.7.-.7.-.7.-.7.-.m = q -.-.7.1 = _ 7.-.7.-.7.-.7.    ",
"  7.-.7.7.-.7.-.-.7.7.-.-.7.-.7.-.7.-.g = d -.7.-.G = m 7.-.7.-.-.7.-.7.7.-.-.7.-.7.-.7.-.7.= = ~ 4.7.-.t = P -.7.-.7.-.-.7.4.  ",
"  -.7.-.-.7.-.7.7.-.~ 7.7.-.7.-.7.-.4.~ t -.7.-.7.G = t -.7.-.7.7.-.7.-.-._ 7.-.7.-.7.-.7.-.m m 7.-.-.-.t = ~ -.-.7.-.7.7.-.-.  ",
"  -.7.-.7.-.7.-.-.4 = 1 B -.-.7.-.7.-.7.-.7.-.7.-.Z = m 9.-.7.-.-.7.4._ = = q _ -.-.-.7.-.7.-.7.-.7.-.7.q = _ -.-.7.-.7.-.7.-.  ",
"  7.-.7.-.7.-.7.m 1 1 1 = g 7.-.7.-.7.-.7.-.7.-.-.7.Z -.-.7.-.7.7.-.1.4 = = = = ~ 4.7.-.7.-.7.-.7.-.7.-.X.P 4.1.7.-.7.-.7.-.4.  ",
"    -.-.7.-.7.-.1 = P B = = m 1.-.7.-.7.-.7.-.7.7.-.7.-.7.-.7.-.-.7.~ = 3 _ g 1 1 ~ -.7.-.7.-.7.-.7.-.7.-.7.-.7.-.7.-.7.-.1.    ",
"      7.-.7.-.~ = 1 -.7.~ = = ~ 7.-.7.-.7.-.7.-.-.7.-.7.-.7.-.7.7.-.m = m -.-.g = 1 7.-.7.-.7.-.7.-.7.-.7.-.7.-.7.-.7.-.7.      ",
"    7.-.7.-.1.G = d -.7.1.m = d -.7.-.7.-.7.-.7.-.7.-.7.-.7.-.7.-.7.t = ~ -.-.-.3 = J 7.-.7.-.7.-.7.-.7.7.-.7.-.7.-.7.-.7.-.    ",
"  7.-.7.-.7.-.B = d 7.-.1.X.= q 7.-.7.-.7.-.7.-.7.-.7.-.7.-.7.-.7.-.q = P 1.-.7.Z = J -.7.-.7.-.7.-.7.-.-.7.-.7.-.7.-.7.-.7.7.  ",
"  7.7.-.7.-.-.J = t -.7.-.7.X.-.-.7.-.7.-.7.-.7.-.7.-.7.-.7.-.7.-.7.t = J -.7.-.7._ 7.-.-.7.-.7.-.7.-.7.7.-.7.-.7.-.7.-.-.7.-.  ",
"  -.-.7.-.7.9.X.t J 7.-.7.-.7.-.7.-.7.-.7.-.7.-.7.-.7.-.7.-.7.-.7.-.~ t X.7.-.7.-.7.-.7.7.-.7.-.7.-.7.-.-.7.-.7.-.7.-.7.7.-.7.  ",
"  7.-.7.7.-.7.-.1.-.7.-.-.7.-.7.-.7.-.7.7.-.7.P d B 7.-.-.7.-.7.7.-.7.-.7.-.7.-.7.-.7.-.7.-.7.-.-.-.m d X.-.7.-.-.7.-.7.-.7.8.  ",
"    7.-.-.7.-.7.1.1.-.7.7.-.7.-.7.-.7.-.-.-.4 = = = G 7.7.-.7.-.-.7.-.7.-.7.-.7.-.7.-.7.-.7.-.7.~ = = = ; X.-.7.7.-.7.-.7.-.    ",
"      -.7.-.7.-.7.-.7.-.-.7.-.7.-.7.-.7.-.4 = 1 t = 4 -.-.7.-.7.7.-.7.-.7.-.7.-.7.-.7.-.7.-.-.~ = = 4 t = m -.-.-.7.-.7.-.      ",
"      7.-.7.-.7.-.7.-.7.7.-.7.-.7.-.7.-.8 = 4 X.1.1 = ~ 7.-.7.-.-.7.-.7.-.7.-.7.-.7.-.7.-.7.-.; = g -._ = ; -.7.7.-.7.-.7.      ",
"    -.7.-.7.-.7.7.-.7.-.7.-.-.7.-.7.1.~ 1 1 _ -.7.m = m -.7.-.7.7.-.7.-.-.-.7.-.7.-.7.-.-.7.m = 4 7.-.7.1 = ~ 7.-.7.-.7.-.7.    ",
"  1.7.-.7.-.7.-.-.7.-.7.-.7.7.-.7.-.8.g = m -.-.-.J = d 7.-.7.-.-.7.-.7.-.1.-.7.-.7.-.7.7.-.= = [ -.7.-.t = ~ -.7.-.7.-.7.-.-.  ",
"  7.-.7.-.7.-.7.-.-.P X.7.7.-.7.-.7.-.~ t -.7.-.-.Z = t -.7.-.7.7.-.7.-.X.~ -.1.7.-.7.-.-.7.B B -.7.1.-.t = ~ -.-.7.-.7.7.-.7.  ",
"  -.7.-.7.-.7.-.-.4 = 1 m -.7.-.7.-.7.-.7.7.-.7.7.J = m 7.-.7.-.-.1.4.~ = 1 1 ~ -.7.-.7.7.-.1.7.7.-.1.1.t = X.-.7.-.7.-.-.7.-.  ",
"    -.7.-.7.-.7.B = = = = t -.-.-.7.-.7.-.7.-.7.7.-.~ -.7.-.7.-.7.-.-.1 = = = = Z 9.7.-.7.-.7.-.-.7.-.7.X.~ 8.7.7.-.7.-.7.7.    ",
"    7.-.7.-.7.-.1 = ~ P 4 = g 1.7.-.7.-.7.-.7.-.-.7.-.7.-.7.-.7.-.7.~ = 1 -.g = = _ -.7.-.7.-.7.7.-.7.-.-.7.1.-.-.7.-.7.-.-.    ",
"      7.7.-.-.~ = 1 -.7._ = = ~ -.7.-.7.-.7.-.7.7.-.7.-.7.-.7.-.7.-.m = m -.7.g = 1 -.-.7.-.7.-.-.7.-.7.7.-.7.-.7.-.7.-.7.      ",
"    -.7.-.1.8.B = g 7.-.1.m = t 7.-.7.-.7.-.7.-.-.7.-.7.-.7.-.7.-.7.t = ~ -.-.7.1 1 Z 9.-.7.-.7.7.-.7.-.-.7.-.7.-.7.-.7.-.-.    ",
"  1.-.7.-.7.-.B = m 7.-.7.X.= t 7.-.7.-.7.-.7.-.7.-.7.-.7.-.7.-.-.7.8 = ~ 7.-.7.Z = J -.7.-.7.-.-.7.-.7.-.7.-.7.-.7.-.7.-.7.9.  ",
"  7.7.-.7.-.7.B = d -.7.-.7.-.7.-.7.-.7.-.7.-.7.-.7.-.7.-.7.-.7.7.-.t 1 ~ -.7.-.7.-.-.7.-.7.-.7.7.-.7.-.7.-.7.-.7.-.7.-.7.-.-.  ",
"  1.-.7.-.7.-.-.t ~ -.-.-.7.-.7.7.-.7.-.7.-.7.-.7.-.7.-.7.-.7.-.-.7.~ t X.-.-.7.-.7.7.-.7.-.7.-.-.7.-.7.-.7.-.7.-.7.-.7.7.-.7.  ",
"  -.7.-.7.-.7.7.9.9.-.7.7.-.7.-.-.7.-.7.-.7.-.7.-.7.-.7.-.7.-.7.7.-.-.7.-.-.7.-.7.-.-.7.-.7.-.7.7.-.7.-.7.-.7.-.7.-.7.-.-.7.-.  ",
"    7.-.7.-.7.-.-.7.-.7.-.7.-.7.7.-.7.-.7.-.7.7.7.-.7.-.7.-.7.-.-.7.-.7.-.7.-.7.-.7.-.7.7.7.7.-.-.7.-.7.-.7.-.7.7.-.7.-.7.7.    ",
"      -.-.7.-.7.7.-.7.-.7.-.7.-.-.7.-.7.-.7.7.7.-.7.-.7.-.7.-.7.7.-.7.-.7.-.7.-.7.-.7.-.7.7.-.7.7.-.7.-.7.-.7.-.-.7.-.7.-.      ",
"      $ & * ] ] ] ] ] ] ] ] ] ] ] ] ] ] ] ] ] ] ] ] ] ] ] ] ] ] ] ] ] ] ] ] ] ] ] ] ] ] ] ] ] ] ] ] ] ] ] ] ] ] ] ] * % $       ",
"  o o o o o o o o o o o o . . . o o o o o o o o o o o o o o o o o o o X o o o o o o o . o o o o . o o o o o o o o o o o o o o   ",
"  . o o o o o o o o o o o o o o o o o o o o o o o o o o o o o o o o o o o o o o o o o o o o o o o o o o o o o o o o o o o o .   ",
"  @ o o o o o o o o o o o o o o o o o o o o o o o o o o o o o o o o o o o o o o o o o o o o o o o o o o o o o o o o o o o o o   ",
"  @ o o o o o o o o o o o o o o o o o o o o o o o o o o o o o o o o o o o o o o o o o o o o o o o o o o o o o o o o o o o o o   ",
"  + o o o o o o o o o o o o o o o o o o o o o o o o o o o o o o o o o o o o o o o o o o o o o o o o o o o o o o o o o o o o o   ",
"  o o o o o o o o o o o o o o o o o o o o o o o o o o o o o o o o o o o o o o o o o o o o o o o o o o o o o o o o o o o o o o   ",
"  X o o o . o o o o o . o o o o o . o o o o o . o o o o o . o o o o o o o o o o o . o o o o o . o o o o o . o o o o o o o o o   ",
"    X o @ + + @ @ + o @ o o o o @ + + @ @ + @ + + @ @ + @ + + @ @ @ o o o o o o @ + + @ @ + @ + + @ @ + @ + + @ @ @ o @ o o     ",
"                                                                                                                                "
};
