/* XPM */
static char *f1e1040691134fbcff178e371799b0cbGUOBJYKRbS8XFQm8[] = {
/* columns rows colors chars-per-pixel */
"64 64 92 1 ",
"  c #000005",
". c #03050A",
"X c #07080D",
"o c #090A0E",
"O c #0C0D12",
"+ c #120D13",
"@ c #0E1015",
"# c #0F1319",
"$ c #111216",
"% c #1B1213",
"& c #13151A",
"* c #19161D",
"= c #16181D",
"- c #1A1A1E",
"; c #201816",
": c #241E1E",
"> c #161A21",
", c #1C1D23",
"< c #1B1E29",
"1 c #211D22",
"2 c #1E2225",
"3 c #1E232B",
"4 c #232226",
"5 c #2D2627",
"6 c #22252C",
"7 c #2A262B",
"8 c #25292E",
"9 c #2B292E",
"0 c #302728",
"q c #302A2D",
"w c #232730",
"e c #252A33",
"r c #2B2D34",
"t c #272E38",
"y c #2B2E39",
"u c #322E33",
"i c #382F32",
"p c #2E3136",
"a c #2E323B",
"s c #323136",
"d c #3A3336",
"f c #32353C",
"g c #39363B",
"h c #36393E",
"j c #393A3E",
"k c #40373A",
"l c #2F3540",
"z c #333641",
"x c #363A43",
"c c #3A3D44",
"v c #373D48",
"b c #3B3E49",
"n c #413E44",
"m c #3D4146",
"M c #3E424B",
"N c #3F4550",
"B c #414246",
"V c #4B4446",
"C c #42454C",
"Z c #48464B",
"A c #45484E",
"S c #49494E",
"D c #504C4E",
"F c #424651",
"G c #454953",
"H c #4A4C54",
"J c #4A4E59",
"K c #4E5156",
"L c #4D515B",
"P c #525155",
"I c #595053",
"U c #52545C",
"Y c #595458",
"T c #55585F",
"R c #515662",
"E c #555963",
"W c #5A5E66",
"Q c #575A69",
"! c #595D69",
"~ c #5D626C",
"^ c #61646C",
"/ c #65686F",
"( c #606372",
") c #666A72",
"_ c #696D75",
"` c #6C727C",
"' c #737782",
"] c #7C7F8E",
"[ c #838695",
"{ c #828892",
"} c #898D98",
"| c #8D919D",
/* pixels */
"KhmmmmABmSmNNKmmCmNNmNMNNNmANmmmmNmmNNNNGmMAmNmMMMNMmMMMNMCCmvzv",
"p&22828828382833828628338388333338828888e28838333et3wwwweee8e36t",
"A8jjjjmhjmmmfmmmMxMzmmmmmxmmmmmmhmmmmmmmCmCbmmhmxlmxxxxzvxvxffxC",
"j2pphhhhjmhx8fhmbfbyhmxmxfhhmatatpplmvmmmjbymmhmMmamMmmhzbxbatfb",
"m2hphjmmTUKKmGLLRJJznJJRmhNNHhhfallmNNNKQLRvJRJRLNzNKGFvxCMFbtxb",
"m-hphmjAAmxx3fmmbvv<vvvbmlNNLflflllmKNNKNbv<vvbbNM8xMmmtpMMCx6zx",
"m=hphmjAKCbMemNMJbbwJbFJmaNMJffthapmNNNKGGGwGnJJGN8xNvNfaFCLMeMM",
"m&h8hmmNHcfx3vGMNnbwJnNnmaNmLtmalapmNNmKbbF<JGnFNNemCxGmtFMGx6xb",
"n1zyznnnMCbMevnbFbbwbFFJFyvFRyvytm8mFvJGFFFtNJbbCMtvMFMMffGHzexm",
"n1zyznJJAFFnyvnbGJJlbJNFFlzbJyzypmelGNLGbFbebJJJCM8xMFMNaaMHftzm",
"n<zyznnRCCMFlbGnvbbwvJNFFzlbJzzltmelFbJFGGbtbNvzFMexMMmMatmGlexb",
"n3zyznJJGGGFlbGFbJnevJbbFvlFGzylllelNbGNGGntnnbbvb8xmMmMztvCztxm",
"b<xyznJJFFFb<llllll3bbbGFbzbFzlllltaMNNMnJbwvvllta2xMCMFbaxCfthb",
"b<zyzFFFFFvbwlvzlllwbNbJFbzvJzyzllazNGFNFFb<llllcbtMCFMFCazCztzb",
"c6zuzFFFFFFFyFJJJJJlGNbGFnzlJzlzllazFJFFbNJlFRJQGGfMMCbMJafMftxM",
"c1zyzFFbFbbnwznvlvbwvbbbFbvyLalltttaFLGGNGblvbvbbbeccbbMJaybftxC",
"h2hrxAmmNNvFwbnvnnvwxbnbMMMwGfafthtpTmNANNMrmCCMCbeNMNbNNvabbyzb",
"j2p8jNNmbNnFwvnvbbvwxbNbMMMtGzffphttKmNNAmm8xCMmCbwbbMbNnzyvvyvb",
"j3p8jNNNvFnFwvnbbbbtvbFnmNMtMaapph88HmNmNmMtmNCCFbebbCCCFblvcrzb",
"j2ppjNNNvNNvwlvzvbvevvNNmCMabatypp8fHNNMmmm8hmbbMxwvcMbbFbzbxyxb",
"m3p8xmmmvFbbyvvvbMbanbFFmmvaxafffftmNMmmNmNpvbbMCMynMCCbbcfczrzb",
"m3p8hmattlywweey6ee<yyyyzaaaaafatpemxfafp3t2ryryrt<pryyyfzyzzrzb",
"m2tpmMmlbbvvnnvvvbMxFbMMxhzzzxftft3mlalamxNfNbvbbCcGMMMCcczbxyxb",
"m2ttmNNNFnbvJFNNmCCbGMCMJFCFMCbtMlwMmMNMmmNmGFbbbGbHCCFCGHCSbycc",
"j2hKNJJNJJLNFNJnCFHMMLJGGGGHLLGbNGNNJNNJGGFvGGLJLnnxUhnZHfJzZzuZ",
"m8mKNNJJNNGNvlFJLLRMMHFGLLJKLLCxNLLJLJNNJNbbRJJJny1<x*6c+>bO1zzx",
"h2tmmmMNvlJvywNFvMFhaMFGMMmvMbfwmMNNFbvzGzyyFbbbbwO+g.$b.&c.+sxd",
"m2pNMMMNlG'JyvFvMMFfambMmmvbMbfwMMMMNbvN'JlyGbbGsw.#nXOC.>n.&uzc",
"m2lNNmNNlR]QtlvwhaxtaCMmMMbmMMxtFFNbNbbG|Eawbyyxe7.OB.+c.$h.*ufc",
"v2pNmmNNlb'RwwvlzaftfGMbMmbvmbf6bbbbNvzb[Re6byfzyu.Xc $j $g #ygz",
"m2lKNNNNvF['ylFJTLJvxCmvNMMMNMxtbNFFGFvF|!zyRJJJxf.+m &c *c $fgx",
"h2lNNNNLvJ|(wlFNmvmaaMMFMMmMMMzebbbbFbvG}Qywbvvbfw.&c &j OhX*9un",
"xefMbFbnxN~RtlLvNNNttNNNNNmmNNlebbMNMNlN'NtlMNMNlpX#m.Om.&c @ppA",
"h8jFFJJHm~{_twFJNNNltMMmMNNNNNltvNNNvNmJ{RllNNNNl2.>p =m.&h @hsj",
"v3fxayzztabxaxcymtmtlmllttlmxaaevllltltmMtetllllj88mm8mB3hm28hjh",
"m3aayeeyr3,,rre133e38t3tt3tt3wttltw33t3323tate3848smjjSpcchmmphm",
"m<llnJJnAKHSDSZJNNLNNNMNNMMmmMMmNxMmMMNmMmvbMFCMmDZZZSSSZCcZh8hm",
"N3lxLJRGASZCYYDSNNNmlmmMmMmlMMa83tNMtlMNMmbMGLUTPYVDPDBPHYHC88hm",
"b<zlGbng,14:11qqxmNlwalNN!NME~xeth~EMME~alxmmxjc;;%::s5pgBmc<amm",
"b<zzJnnx>+++1nIDhmNt28ttE)Nm~)Meam)~JJ)_a33hFGCm$;%%%DYZBjmb<aam",
"b<zznnnn977uukVnmNN8282pH~Km~)mefm/)MK//p==aLACj100qinnnnSZy6yxv",
"bwyyvzzzguii7idiphh33pfhKHHmATHffGEKKKH~prahmpfrkkiuiinzussyryvb",
"v<eyze7ui7sq7qi7p28ppxmmhhhhpmmhhhmfmNamjmCjhrapqqiq1uzqr67aleyc",
"vwynnznnjjBnnnnnj28jmxmmhNmmAmmCAfNmjANjMmCaccmmnnnnnnnnCccnnzvn",
"g6gcnzncgZhjVjjSZhCmmAmmNmjSAjmmmmmmjmmAmpmjCmjmxbnvvvvzzvzlyelx",
"j1r9**f*-g$2g&-jO2ho#j#@m$2m$&m$&m&=j=&B==mcmjpxxnnnbbnvnnnzeyzc",
"B4srO+xXOj =c &B =m @ZX@B $m OZ oC @mXXB @mcmmsjlbbbbFFGbnnlw7yz",
"j-fiX$n $K =B &A Om.-A &jX&jo$m =m 2m =m.$BsjAjalbbbbbbbFbzzlzzn",
"j6gs $j.&go-c &Z &Z 2B =j.$j =jo&jo$j @m.&xpCCafzvnvbCbMCMFyrylx",
"j4pfo,j -c..co&j $B:BB -B9jB ;j -p =ZO#j.=CfmfeatvbnMCcxbxCyyyzv",
"m2rgX&j Xj$&C OZ $msBjX$mjBB 2j -jX=8 #c &bpMmtfuCynjjcbhfCyyyzv",
"j2ss OC4cm $B $S $m=:joom$4j -B.$g &ssjx.&ftNMaaex&z4=rchfnyyuzv",
"g2fg $KhSS2gZ &B $B .mX$Z.$m $m.OZ2gScjj.>vrha3hfC1Pc4jPnznuuyzc",
"c2ss &B&@BcSC &jX$BXoZ -B -m 2Z $KsBbX&m.&zexzthrd$cs1jPnbnyuuyn",
"n4rp &g $j$-jX=m49j.&B &B $B2sm -go-j Ox.@frJJafdg*9sqBDzdnyuudn",
"h2ss =c &B XC XHBPj $B +BoXZSDj @mooj.&j.&bfGMpsrd47jjBsdunuuydn",
"c2sp $Z &c &jo$BOOc.*c =jX*c$&j.=j.&s.$m >fytHyfscqnInPnnnvuz7zn",
"B-ffX@B oB $c.OC.Oc $C $B $c.$m oB $m.@j.>xfxHaasd17u1r179sqiqiz",
"m-fs $m @S &Z.$S.$C.$H -S ,B &A $B -Ao@j &cabCapsc6rp197wunuzuzd",
"j2j9X,B $j =g &j *g.$j -c =g.&j -g &s =p.*ctbbfaucgnZcnnfznyzuzz",
"c=sr2pB=jC4cC4cB1nn7xnwvC6hn9fm4jB2jm2mB28bpmzzh9jjmnvzzzzzyuwzn",
"Z-pjmjBmSmsZmsCmznzvnxcnnjccjmjfBhpZmsAjxmmjmvmmxBmcnvzvnznvnlzv",
"m9jBKZBHKZSSSSSSGJnJHnHHZHUnAKmSDjZKASSmMHMMNFmMCGGCJJFJFnJFJbbz",
"jmPjSKBZmZKmZHjSJnnnnGnFnnHccSmZAmZjmKmAmAjCFJMMCAAmnJbFnFJnJnny"
};
