/* XPM */
static char *_dc6e9a0b4b243e5df51e4be26d2e61cK4LzCOQbdNISDwLK[] = {
/* columns rows colors chars-per-pixel */
"192 64 2 1 ",
"  c None",
". c #A9183B",
/* pixels */
" ................                    ................                  .....................                        ..............                  ..............                              ",
" .................                  ................             .................................                 ...............                  ..............                              ",
"  .................                ................           .......................................              ...............                  ..............                              ",
"    ................              ................          ...........................................            ...............                  ..............                              ",
"     ...............             ................          .............................................           ...............                  ..............                              ",
"      ...............           ................          ...............................................          ...............                  ..............                              ",
"       ...............         ................           ................................................         ...............                  ..............                              ",
"        ...............       ................           .................                ................         ...............                  ..............                              ",
"         ...............     ................            ...............                   ................        ...............                  ..............                              ",
"          ...............   ................             ...............                    ...............        ...............                  ..............                              ",
"           ...............  ...............              ...............                    ...............        ...............                  ..............                              ",
"            ..............................               ...............                    ...............        ...............                  ..............                              ",
"             ...........................                 ...............                    ...............        ...............                  ..............                              ",
"              .........................                  ...............                    ...............        ...............                  ..............                              ",
"               .......................                   ...............                    ...............        ...............                  ..............                              ",
"                .....................                    ...............                    ...............        ...............                  ..............                              ",
"                 ...................                     ...............                    ...............        ...............                  ..............                              ",
"                  .................                      ...............                    ...............        ...............                  ..............                              ",
"                   ...............                       ...............                    ...............        ...............                  ..............                              ",
"                   ...............                       ...............                    ...............        ...............                  ..............                              ",
"                   ...............                       ................                  ...............         ...............                 ...............                              ",
"                   ...............                       .................               .................          ................              ................                              ",
"                   ...............                        ................................................          .............................................                               ",
"                   ...............                        ...............................................           .............................................                               ",
"                   ...............                         .............................................             ...........................................                                ",
"                   ...............                           ..........................................               .........................................                                 ",
"                   ...............                             .....................................                   ......................................                                   ",
"                   ...............                                ...............................                          ...............................                                      ",
"                                                                          ...............                                          ................                                             ",
"                                                                                                                                                                                                ",
"                                                                                                                                                                                                ",
"                                                                                                                                                                                                ",
"                                                                                                                                                                                                ",
"                                                                                                                                                                                                ",
"                                                                                                                                                                                                ",
"                                                                                                                                                                                                ",
" ...............                  ...............                  ..............      ...............          .........................               ..............             .............",
" ...............                 .................                 ..............      ...............          ..........................              ..............             .............",
"  ..............                 .................                ...............      ...............          ...........................             ..............             .............",
"  ...............               ..................                ..............       ...............          ...........................             ..............             .............",
"   ..............               ...................              ...............       ...............          ............................            ..............             .............",
"   ..............              ....................              ..............        ...............          .............................           ..............             .............",
"   ...............             .....................             ..............        ...............          ..............................          ..............             .............",
"    ..............            ......................            ..............         ...............          .............. ...............          ..............             .............",
"    ..............            .......................           ..............         ...............          ..............  ...............         ..............             .............",
"     ..............          ........................           ..............         ...............          ..............   ...............        ..............             .............",
"     ..............          .........................         ..............          ...............          ..............   ...............        ..............             .............",
"      ..............        ............  ............         ..............          ...............          ..............    ...............       ..............             .............",
"      ..............        ............  ............        ..............           ...............          ..............     ...............       .............             .............",
"      ..............       .............   ............       ..............           ...............          ..............      ...............      .............             .............",
"       ..............      ............    ............       .............            ...............          ..............      ...............      .............             .............",
"       ..............      ............     ............     ..............            ...............          ..............       ...............     .............             .............",
"        .............     ............      ............     ..............            ...............          ..............        ...............    .............             ............ ",
"        ..............    ............      .............    .............             ...............          ..............        ...............    .............                          ",
"        ..............   ............        ............   ..............             ...............          ..............         ...............   .............                          ",
"         .............   ............        .............  .............              ...............          ...............         ...............  .............                          ",
"         .............. ............          ............ ..............              ...............          ...............          ............... .............                          ",
"          ..........................          ..........................               ...............          ...............          .............................              ..........  ",
"          ..........................           .........................               ...............          ...............           ............................             ............ ",
"           ........................            .........................               ...............          ...............            ...........................             ............ ",
"           ........................            ........................                ...............          ...............            ...........................             ............ ",
"           .......................              .......................                ...............          ...............             ..........................             ............ ",
"            ......................              ......................                 ...............          ...............              .........................             ............ ",
"            .....................                .....................                 ...............          ...............              .........................             ............ "
};
