/* XPM */
static char *f8291210650243558526bc222e941975pNo1hh7jIbe6X8Ri[] = {
/* columns rows colors chars-per-pixel */
"64 64 195 2 ",
"   c #030100",
".  c #0B0200",
"X  c #0B0904",
"o  c #130200",
"O  c #190B00",
"+  c #141109",
"@  c #220900",
"#  c #271200",
"$  c #261A00",
"%  c #2E1E00",
"&  c #2F2100",
"*  c #312100",
"=  c #3C2B00",
"-  c #372B05",
";  c #3E320A",
":  c #2D2C2A",
">  c #312D24",
",  c #36322F",
"<  c #323232",
"1  c #422E00",
"2  c #492C00",
"3  c #443100",
"4  c #4C3300",
"5  c #4A3800",
"6  c #45380C",
"7  c #533B00",
"8  c #543400",
"9  c #453A19",
"0  c #5E4B03",
"q  c #5C4E1F",
"w  c #5F5017",
"e  c #664F00",
"r  c #664900",
"t  c #65510D",
"y  c #625116",
"u  c #5C502A",
"i  c #4E4838",
"p  c #554E3A",
"a  c #594D27",
"s  c #474746",
"d  c #4A4944",
"f  c #4E4E4E",
"g  c #474749",
"h  c #524E42",
"j  c #535049",
"k  c gray32",
"l  c #5D5D5B",
"z  c #6D6541",
"x  c #716646",
"c  c #6F6F6F",
"v  c #737373",
"b  c #8D6E00",
"n  c #927100",
"m  c #8B731B",
"M  c #84774D",
"N  c #B18D1D",
"B  c #BD971C",
"V  c #9F8621",
"C  c #A58827",
"Z  c #A38A36",
"A  c #A98E33",
"S  c #AA9039",
"D  c #B19736",
"F  c #DDA400",
"G  c #DFA901",
"H  c #DAA70D",
"J  c #E0A500",
"K  c #E5AD05",
"L  c #E8AF08",
"P  c #E7AE09",
"I  c #E7B109",
"U  c #EAB30C",
"Y  c #EFB911",
"T  c #E5B213",
"R  c #F4BD14",
"E  c #C2A12E",
"W  c #D8AE28",
"Q  c #E1B224",
"!  c #EBBE31",
"~  c #F5C316",
"^  c #F6C119",
"/  c #FAC41A",
"(  c #F6C91A",
")  c #FECA1E",
"_  c #F5C817",
"`  c #F6C923",
"'  c #FDCA22",
"]  c #F4C72C",
"[  c #F5C82C",
"{  c #FACB28",
"}  c #F5C727",
"|  c #EDC63A",
" . c #EEC83B",
".. c #EAC431",
"X. c #F2C732",
"o. c #F4CA34",
"O. c #FCCE32",
"+. c #F2C93B",
"@. c #FACC39",
"#. c #FCD032",
"$. c #F6D13C",
"%. c #FBD23D",
"&. c #9F8D45",
"*. c #A38F4A",
"=. c #A08C45",
"-. c #A8954E",
";. c #BDA34B",
":. c #948B6E",
">. c #A0997F",
",. c #D8B74B",
"<. c #C4A845",
"1. c #D3BC6A",
"2. c #EBC545",
"3. c #EECB4C",
"4. c #EFC940",
"5. c #F3CB45",
"6. c #F4CD49",
"7. c #F6D144",
"8. c #F9D344",
"9. c #F5D24C",
"0. c #FAD34A",
"q. c #E7C450",
"w. c #EECC53",
"e. c #EDCE5A",
"r. c #F2CE53",
"t. c #F0CE5B",
"y. c #F5D255",
"u. c #FEDB55",
"i. c #F4D45B",
"p. c #FDDA5A",
"a. c #FFE65C",
"s. c #E6CB68",
"d. c #F6D763",
"f. c #F5D863",
"g. c #F9DB65",
"h. c #FADC69",
"j. c #E8CC71",
"k. c #EED473",
"l. c #F5DB77",
"z. c #FFE56C",
"x. c #FFE86A",
"c. c #FFE466",
"v. c #FFE774",
"b. c #FFE875",
"n. c #FFE77C",
"m. c #FFE97C",
"M. c #FFF17A",
"N. c gray56",
"B. c #99968B",
"V. c gray57",
"C. c #ADA58E",
"Z. c #ADA797",
"A. c #B9B29F",
"S. c #B4AC95",
"D. c #ADADAB",
"F. c #BDB8A9",
"G. c #B4B4B3",
"H. c #BBB9B5",
"J. c #BCBCBC",
"K. c #B8B7B3",
"L. c #C2BFB5",
"P. c #C0BFBA",
"I. c #BFC0BB",
"U. c #FFEC81",
"Y. c #FFF284",
"T. c #FFF48D",
"R. c #FFF694",
"E. c #FFF59E",
"W. c #FFF89C",
"Q. c #C9C5BC",
"!. c #FFF4A5",
"~. c #FFF3AA",
"^. c #BFC1C0",
"/. c #C3C3C3",
"(. c #CCCCCC",
"). c #CAC8C3",
"_. c #D1D1CF",
"`. c LightGray",
"'. c #DDDAD4",
"]. c #DBDBDB",
"[. c #E2E2E0",
"{. c #EDEDED",
"}. c #F0EFEB",
"|. c #F1F1ED",
" X c #EEEEF0",
".X c #F5F5F5",
"XX c #F8F6F7",
"oX c #F6F8F7",
"OX c #FFFFF5",
"+X c #F6F6F8",
"@X c white",
"#X c #FEFEFF",
"$X c #FEFEFD",
"%X c #FDFDFD",
"&X c #F7F9F8",
/* pixels */
".X.X.XoXoXXX.X.XoXXXoXXX.X.XoXXX.X.X.X.XXX.X.X.X.X.X X+X.X.X.X.X.X X.X.X.X.X X.X.X.X X.XoXoX.X.X.X.X.X.X.XoXXXXX.X.X.X.XoX.X.XoX",
".X.XXX.X.X.X.X.X.X.X.X.X.X.X.X.X.XXX.X.XXXOX$X$X%X$X$X%X$X$X$X$X$X$X$X$X%X$X$X$X$X$X$X&X.X.X.X+X.X.X.XXX.XoX.XXX.XoXXX.X.XXX.X.X",
"+X+XoXoXXX.X.XXX.X.XoX.X.X.X.X.X.XXXoX&X{.l f f f f f f f f f f f f f f f f f f f k f ).$X+X.X.X.X.X.XXXoX.X.X.X.XXX.X.X.XoXXX.X",
"+X+X+XoX.XoX.X.X.X.XXX.X.X.X.X.X X.X+X&X[.X                                           D.$X X+X.X.X.X.X.X.X.X.X.XoX.X.XoXXX.X.XoX",
".X.XXX.X.X.X.XoX.X.X.X.X.X%X$X$X$X$X$X$X{.+                                           H.$X$X$X$X$X$X$X.XXX.X.X.X.X.X.X+X.X.X.XXX",
".X.X.X.X.X.X.X.X.X.X.X.XoX[.^././././.Q.L.9 = = = = = = = = = = 1 = = = = = = = = = - >.).^./././.J.`.&X.X.X.X.X.X.X.X.X.XoX.X.X",
"XX.X.X.XoX.X.XXX.X.X.X.X$XV.            O 1.t.5.6.6.5.6.6.5.5.5.5.6.5.5.5.6.6.6.6.w.j.5             f $X.X.X.X.X.X.X.X.X+XXXoX.X",
".X.XXX.X.XXXoX.X.X.X.X XOXV.  X   X   o @ ,.o.) ) ) / ' ) ' ' ) ) ) ) ) ' ' ) ' ) } y.7 o X   . . X j &X.X.X.X.X.X.X+X.XXXXX+XoX",
".X.X.X.X+X+X.X.X.X&X$X$X$XB.. o . . . o @ ,.@.) ' ' ' ' ' ) ' ' ' ) ' ' ' ' ' ' ' { 0.8 o o . o . . p OX$X$X%XoX.X.X.X.X.X.XXX.X",
".X.X.X.X.X+X.X.X$X].j f h x *.Z Z Z Z A N W T I I I I L L P P P P L L L P P L L L P Q B C Z Z Z Z *.M p j g G.$X.X.XXX.X.XoX.XoX",
".X.X.XXX.XXX.X.X%X(.      w g.+.8.%.8.%.O.H F F F F F F F F F F F F F F F F F F F F H ] %.8.8.8.@.f.=..     V.$X}.+X.X.XoX.XoX.X",
".X.X.X.X.X+X$X$X$X'.  . . e 7._ _ ) ( ) / J F F F F F F F F F F F F F F F F F F F F F R ) ) ( ( _ $.C o .   B.OXOX$XXX.X.X.X.XXX",
".XoX.X.XoX.X(.J.).S.= 2 2 b %.( ) ( / ^ ^ K K K K K K K K K K K K K K K K K K K K K K R ' ) ) ) ( #.B 2 4 = :.Q.J./. XXXXX.X.X.X",
".X.X.XXX.XXX:     $ j.r.6.5.{ ) ' I F F G ) ' ) ' ) ' ) ) ' ' ) ) ' ) ) ' ) ' ) / ' ) ' ) ) ) ) ) ' @.6.w.k.q       `.%X.X.X.X.X",
".X.X.XXXoX&X<     & q.O.[ { ) ) ' I F F G ) ' ) ) ) ) ) ) ) ) ) ) ) ) ) ) ) ) ) ' ) ) ) ) ) ) ) ) ' { [ [ y.y .     `.%X+XXXoX.X",
".X.X.X.X.XoX<     * 2.' ) ) ' ' ' I F F F / ) ) ) ) ) ) ) ) ) ) ) ) ) ) ) ) ) ) ) ) ) ) ) ' { } o.o.{ ' ( 9.t .   X `.%X.X.XoX.X",
"XX.X+X.X.X+X:     * 2.' ) R K P P R R ~ R ) ) ) ) ) ' ) ) ) ) ) ) ) ) ) ) ) ) ) ) ) ) ) ) { +.c.v.b.u.[ ` 7.t       `.$X+X.X.X.X",
".XOX.X.X.X.X, . . * 2.' ) R F F F R ' ' ' ) ) ) ) ) ) ) ) ) ) ) ) ) ) ) ) ) ) ) ) ) ) ) ) ` 9.Y.E.W.x.+.` 9.t X . X _.%X{.+X.X.X",
".X.XOX$X$XOX>     $ 5.' ' R F F F R ' ) ) ) ) ) ) ) ) ) ) ) ) ) ) ) ) ) ) ) ) ) ) ) ) ) ) [ 9.Y.E.!.z.| ] 9.0 .     ].$X$X$X.X.X",
".XoX].J.^.L.a 3 1 r ! ^ ^ R K P K R ' ' ) ) ) ) ) ) ) ) ) ) ) ) ) ) ) ) ) ) ) ) ) ) ) ) ) { +.x.n.U.z.y.9.f.m 1 3 6 Z./.J.).&X.X",
".X$Xc     . ;.i.6.+.H F F U ' ' ' ) ) ) ) ) ) ) ) ) ) ) ) ) ) ) ) ) ) ) ) ) ) ) ) ) ) ) ) ) ' ` o. .f.R.R.R.h.3.6.s.$     : %X.X",
" X$Xv     . E O.` / J J F U ' ) ) ) ) ) ) ) ) ) ) ) ) ) ) ) ) ) ) ) ) ) ) ) ) ) ) ) ) ) ) ) ) ) ) [ i.E.~.!.u.] { 2.&     < %X.X",
".X$Xv     . E O.' / J J F U ' ) ) ) ) ) ) ) ) ) ) ) ) ) ) ) ) ) ) ) ) ) ) ) ) ) ) ( ) ) ) ) ) ) ) [ f.E.~.E.p.] { 2.%     < &X.X",
".X$Xv     . E #.' / F F F U ' ) ) ) ) ) ) ) ) ) ) ) ) ) ) ) ) ) ) ) ) ) ) ) ) ) ) ) ) ) ) ) ) ) ) [ f.E.~.E.u.[ { 2.%     < %X.X",
" X$Xv     X E #.' / F F F U ' ) ) ) ) ) ) ) ) ) ) ) ) ) ) ) ) ) ) ) ) ) ) ) ) ) ) ) ) ) ) ) ) ) ) ] d.E.~.E.p.] { 2.*     < %X.X",
".X$Xv   X . E #.' / J J F U ' ' ) ) ) ) ' ) ) ) ) ) ) ) ) ) ) ) ) ) ) ) ) ) ) ) ) ) ) ) ) ) ) ) ) ] d.E.~.E.p.} { 2.%     < &X.X",
".X$Xv     . E #.' / F J F U ' ) ) ) ) ) ) ) ) ) ) ) ) ) ) ) ) ) ) ) ) ) ) ) ) ) ) ) ) ) ) ) ) ) ) [ d.E.~.!.p.] { 3.%     < %X.X",
" X$Xv     . E O.' / F J F U ) ) ) ) ) ) ) ) ) ) ) ) ) ) ) ) ' ) ) ) ) ) ) ) ) ) ) ) ) ) ' ) ) ) ) [ d.E.~.E.p.] { 2.%     < %X.X",
".X$Xv     X E #.' / F J F U ' ) ) ) ) ) ) ) ) ) ) ) ) ) ) ) ) ) ) ) ) ) ) ) ) ) ) ) ) ) ) ) ) ) ) [ f.E.~.!.p.] { 2.%     < %X.X",
".X$Xc     . E O.' / J F F U ' ) ) ) ) ) ) ) ) ) ) ) ) ) ) ) ) ) ) ) ) ) ) ) ) ) ) ) ) ) ) ) ) ) ) [ d.E.~.E.p.[ { 2.%     < oX.X",
" X$Xv     . E #.' / F J F U { ) ) ) ) ) ) ) ) ) ) ) ) ) ) ) ) ) ) ) ) ) ) ) ) ' ) ) ) ) ) ) ) ) ) [ d.E.~.E.p.[ { 2.%     < %X.X",
".X$Xv   X . E O.' / F F F U ' ' ) ) ) ) ) ) ) ) ) ) ) ) ) ) ) ) ) ) ) ) ) ) ) ) ) ) ) ) ) ) ) ) ) [ d.E.~.!.p.[ { 2.%     < &X.X",
".X$Xv     . E { ' / J F F U ' ) ) ) ) ) ) ) ) ) ) ) ) ) ) ) ) ) ) ) ) ) ) ) ) ) ) ) ) ) ) ) ) ) ) [ f.W.~.E.p.] { 2.%     < %X.X",
" X$Xv   X . E #.' / J J F U ' ) ) ) ) ) ) ) ) ) ) ) ) ) ) ) ) ) ) ) ) ' ) ) ) ) ) ) ) ) ) ) ) ) ) [ f.E.~.E.p.] { 2.*     < &X.X",
".X$Xv     . E #.{ / J J F U ' ' ) ) ) ) ) ) ) ) ) ) ) ) ) ) ) ) ) ) ) ) ) ) ) ) ) ) ) ) ) ) ) ) ) [ f.E.~.!.p.] { 2.*     < %X.X",
".X$Xv     X E #.' / J F F U ' ) ) ) ) ) ) ) ) ) ) ) ) ) ) ) ) ) ) ) ) ) ) ) ) ) ) ) ) ) ) ) ) ) ) [ f.E.~.!.p.] { 2.*     < %X.X",
" X$Xv     X E #.' / J F F U ' ) ) ' ) ) ) ) ) ) ) ) ) ) ) ) ) ) ) ) ) ) ) ) ) ) ) ) ) ) ) ) ) ) ) [ d.E.~.!.p.] { 2.%     < %X.X",
".X$Xv     . E O.` ~ G J F Y ' ) ) ) ) ) ) ) ) ) ) ) ) ) ) ) ) ) ) ) ) ) ) ) ) ) ) ) ) ) ) ) / ) ) [ d.E.~.E.p.] { 2.%     < oX.X",
".X$Xv     X E #.' / J F F U ' ) ) ) ) ) ) ) ) ) ) ) ) ) ) ) ) ) ) ) ) ) ) ) ) ) ) ) ) ) ) ) ) ) ) [ f.E.~.E.p.] { 2.%     < %X.X",
" X$Xv     . E #.' / J J F U ' ) ) ) ) ) ) ) ) ) ) ) ) ' ) ) ) ' ) ) ) ) ) ) ) ) ) ) ) ) ) ) ) ) ) [ f.E.~.!.p.} { 2.%     < %X.X",
".X$Xv     . E %./ / F J F U ' ) ) ) ) ) ) ) ) ) ) ) ) ) ) ) ) ) ) ) ) ) ) ) ) ) ) ) ) ) ) ) ) ) ) [ d.E.~.E.p.] { 2.&     < %X.X",
".X$Xv     . E #.' / F J F U ' ) ) ) ) ) ' ) ) ) ) ) ) ) ) ) ) ) ) ) ) ) ) ) ) ) ) ) ) ) ) ) ) ) ) ] d.E.~.E.p.] [ 2.&     < oX.X",
" X$Xv   X . E #.' / J J F U ' ' ) ) ) ) ) ) ) ) ) ) ) ) ) ) ) ) ) ) ) ) ) ) ) ) ) ) ) ) ) ) ) ) ) [ f.!.~.!.u.] { 2.&     < %X.X",
".X$Xc     . ;.y.6.+.H F F U ' ' ) ) ) ) ) ) ) ) ) ) ) ) ) ) ) ) ) ) ) ) ) ) ) ) ) ) ) ) ) ) { [ o. .f.R.R.R.h.3.9.s.$     : &X.X",
"oXoX`.G.G.F.u 3 3 r ! ^ R Y K L L ~ ) ) ) ) ) ) ) ) ) ) ) ) ) ) ) ) ) ) ) ) ) ) ) ) ) ' ) { $.x.m.m.z.y.9.c.m 3 5 6 Z.H.G./.oXoX",
"oX.X%X$X$X$X>   . % 4.' ' R F F F ~ ' ) ) ) ) ) ) ) ) ) ) ) ' ) ) ) ) ) ) ) ) ) ) ) ) ) ' { 3.Y.E.E.v. .] 9.0 . .   '.$X$X$X.XoX",
"oX+X.X.X.X.X, . . * 2.) ' R F F F R ) ) ) ) ) ) ) ) ) ) ) ) ) ) ) ) ) ) ) ) ) ) ) ) ' ) ` X.3.Y.E.W.x.+.[ 0.t . .   _.&X|..XoX+X",
"+X+X.X.X.XoX<     * 2.' ' R L L L R ) ) ) ) ) ) ) ) ) ) ) ) ) ) ) ) ) ) ) ) ) ) ) ' { %.0.u.i.b.m.b.u.[ ` 0.t     X `.$X+X.X+X+X",
"+X+X.X.X.XXX<     * 2.' ) ' ' ) ' ) ) ) ) ) ) ) ) ) ) ) ) ) ) ) ) ) ) ) ) ) ) ) ) { o.x.R.R.Y.3. .X.{ { ( 9.t       `.$X.X.X.X.X",
".X.X.X.XoX&X<     & q.O.] ` ' ) ) ) ) ) ' ' { { { { { { { [ { { { { { { { { { { { o. .b.E.!.M.5.{ ' { ` ] y.y X . X `.$X.X.X.X.X",
".X.XXX.XoXXX:     $ j.r.6.7.{ ) ) ) ) ' { [ +.+.+.+.+.+.+.+.+.+. .+.+.+. .+.+.+. . .2.b.R.T.M.@.{ { @.6.6.k.q .     _.$X+XoXoXoX",
".X.X.X.X.XoX/.K.P.C.5 4 4 n #.( ) ) ) { o.a.z.b.m.b.b.b.b.b.b.v.b.v.b.m.b.b.b.b.m.b.b.g.i.y.9.o.( #.B 8 5 = :.L.K.J.{.oX+X+X+XoX",
"oXoX.XXX.X.X$X$X$X'.. . o e 7._ ( ) ) ` 5.M.E.!.!.!.!.!.~.!.!.!.!.~.!.!.!.!.!.!.!.W.R.i...} ` ` ( @.V o .   B.$X$X$XXX.X+X.X.X.X",
"oXoX.X.X.X.X.X|.%X(.    . w h.@.%.%.@.7.i.T.E.~.~.!.!.!.~.!.!.!.~.!.!.~.!.!.!.~.!.!.R.h.0.@.%.@.$.i.=..     N.%X|.+XoX.X+X+X.X.X",
"oX+X+X.X.X.X.X.X%X].g d i z -.S S S S A D v.m.v.b.b.v.v.v.v.v.v.v.v.v.b.v.v.v.z.b.b.U.;.A S S S S -.M i d s D.%X.X.XXX.X.X.X+X.X",
"oX+X+X+XXX.X.X.XoXoX$X&XOXB.  . . . . o O ,.3. . .+.+.+. . . . .+. .+.+. .+.+.+.+.2.e.5 o . o . . X p OXOX$X%X+X+X+X.X.X.X.X.X.X",
".X.X.X.X.X.X.X.X.XoX.X|.%XV.X .   X X . # ,.@.` ` { { [ { { { ` { { { { { { { ` { X.w.7 X X   X X   j OX}..X.X+X.X.XXX.X.XXXoXoX",
"OX.XXX.X.XXX.X.X.X.XXX X$XN.            O 1.t.6.6.6.6.6.6.6.6.6.6.5.6.6.5.6.6.6.6.w.k.5             f $X.X.X.X+X+X.X.X.X.X.XoXoX",
".X.XXX.X.XXX.XoXoX+X+X.X%X].H.J.J.J.J.P.F.9 3 3 3 3 2 3 3 3 2 3 3 3 1 1 3 3 2 3 1 3 ; >.Q.J.J.J.J.J._.XX.X.X+X+X.X.X.X.X.X.X+X+X",
"oX.X.X.X.X.X.XoXoX+X+X.X.X%X$X$X$X$X$X$X{.+           .           .   .   .           H.OX$X$X$X$X$X$X.X.X+X+X+X.X.X.X.X.X+X+X+X",
"XX.X.XoX.X.X.X.X.X+X+XoX.X.X.X X.X X.X.X[.X                                           D.$X X.X.X.X X.XXX.X.XoXoXoX.X.XXXXX.X.XXX",
".X.X.XXX.X.X.X.X.X+X+X.X.X.X.X.XoXoX.XoX{.k s s s s s s g s s s s g s g s s s s g g s /.%X.X.X.X+X+X.X+X.XXXoXoXXX.X.XoX.X.X.X.X",
".X.X.X.X.X.XXX.X.X.XoX.X.XoXoX.X.X.X.X.XoX$X$X$X$X%X$X$X%X$X$X$X$X$X$X$X$X$X$X$X%X$X$X&X.X.X.X.X.X.X.X.XoXoX.XXX.X.X.X.X.X.X.X.X",
".X.X.X.X.X.X.X.X.XXX.XXX.X.X.XXXoX.XoX.X.X.X.X X.X.X.X.X.X.X.X X.X.X X.X.X.X X.X.X.X+X.X.X.X.XXX.X.XXX.X.X.X.XoX.X.X.X.XXX.X.XXX"
};
