/* XPM */
static char *_d1135ca0b384c29aa5c5a53ed1f27f8laNl6mIncFYXF5l4[] = {
/* columns rows colors chars-per-pixel */
"64 64 134 2 ",
"   c #1F1E24",
".  c #26262C",
"X  c #27282D",
"o  c #2A2A2E",
"O  c #2D2D33",
"+  c #302F33",
"@  c #2F3035",
"#  c #333335",
"$  c #3A3937",
"%  c #34343A",
"&  c #39373B",
"*  c #37383D",
"=  c #3A3A3D",
"-  c #413E3D",
";  c #42403D",
":  c #3C3C42",
">  c #403F44",
",  c #3F4045",
"<  c #434345",
"1  c #494641",
"2  c #44454A",
"3  c #48474B",
"4  c #47484D",
"5  c #4A4A4E",
"6  c #504E4C",
"7  c #52514E",
"8  c #4D4D53",
"9  c #4E4E58",
"0  c #504F54",
"q  c #4F5055",
"w  c #525255",
"e  c #595654",
"r  c #5B5955",
"t  c #55555B",
"y  c #58575C",
"u  c #57585D",
"i  c #5A5A5E",
"p  c #615E5D",
"a  c #62615E",
"s  c #565660",
"d  c #5C5C62",
"f  c #5E5E68",
"g  c #605F63",
"h  c #5F6065",
"j  c #636265",
"k  c #696666",
"l  c #676863",
"z  c #6B6A66",
"x  c #64646A",
"c  c #68676A",
"v  c #67686D",
"b  c #6B6A6C",
"n  c #706E6D",
"m  c #73716E",
"M  c #6D6C71",
"N  c #716F71",
"B  c #747373",
"V  c #797674",
"C  c #7C7976",
"Z  c #767678",
"A  c #797778",
"S  c #7F7B7A",
"D  c #7C7A7B",
"F  c #7D7B7C",
"G  c #7E7C7D",
"H  c #7F7D7E",
"J  c #7C7B7A",
"K  c #807C7B",
"L  c #827F7A",
"P  c #827E7B",
"I  c #817D7C",
"U  c #837F7D",
"Y  c #837F7E",
"T  c #817F7C",
"R  c #83807B",
"E  c #84817C",
"W  c #84807D",
"Q  c #85827D",
"!  c #85817E",
"~  c #84807F",
"^  c #86827F",
"/  c #87847F",
"(  c #83827D",
")  c #817F80",
"_  c #858180",
"`  c #878380",
"'  c #868281",
"]  c #878382",
"[  c #868481",
"{  c #888580",
"}  c #888481",
"|  c #898681",
" . c #8A8782",
".. c #8A8683",
"X. c #8A8685",
"o. c #8B8786",
"O. c #898683",
"+. c #8B8883",
"@. c #8C8984",
"#. c #8C8885",
"$. c #8D8A85",
"%. c #8D8986",
"&. c #8E8B86",
"*. c #8F8C87",
"=. c #8C8985",
"-. c #8D8988",
";. c #8F8C89",
":. c #908D88",
">. c #908C89",
",. c #918E89",
"<. c #928F8A",
"1. c #918E8A",
"2. c #93908B",
"3. c #94918C",
"4. c #95928D",
"5. c #96938E",
"6. c #97948F",
"7. c #94928D",
"8. c #959490",
"9. c #989590",
"0. c #999691",
"q. c #9A9792",
"w. c #999691",
"e. c #9B9893",
"r. c #9C9994",
"t. c #9D9A95",
"y. c #9E9B96",
"u. c #9F9C97",
"i. c #9C9994",
"p. c #A09D98",
"a. c #A19E99",
"s. c #A29F9A",
"d. c #A4A19C",
"f. c #A8A5A0",
/* pixels */
"= 8 2 , 8 4 , @ X % , 8 8 , 8 8 8 q 8 5 q q , o o , 7 7 0 w 6 6 0 i i j l h q $ # 0 g k p k n z K z z K K K r - - K / / L L K 1 ",
"8 d u d h i 8 * , , t h h h h h h h a h v h 8 $ , r z b z b n b i B B N B D b 5 > p K K P U Y Y K P L L 5.5.K 1 1 K / / / / L K ",
"2 u w u h h q , , , t u h u u h i h i i h h w = 1 i l l j k c k i B b c N Z n 5 6 p n V K Y ) Y Y / / / 5./ K p r L / / L L L L ",
"4 u t w s h h u q t h u u u h u h h u u h v a w t h v h p j k p i k j B B N b z g n K K K Y ) >./ 2./ 2./ 9.Y L L / / / L L L K ",
"4 d u u s i h h h h h u h h h h h a i u i h l l l v c j z n b j i l h B B M A F K ) Y Y ) %.%.>./ w.6.6.e.a.a.e./ d./ / L L L L ",
", u u h i t u u h u u t t u u h i d h i i h h h x l l b n N k j t v M n b M A B N K K Y Y ) Y Y / / 3.9.t.u.t.6.d.f./ / L L L K ",
": q q s h u h u h u h u h h h h h h h x h h h l v v n Z B j r e q h x n B Z J N K K Y Y ) ) ) #.<.<.6.e.u.a.u.w./ f./ / Q L L r ",
"o : : 4 u u u u u q u u h h h h h h h i h h h h l x n Z b w < = $ = 2 l Z N Z A K P Y Y Y Y ) %.<.<.<.<.6.r.t.e./ / / / L p r 1 ",
"X , , , t u t d h q h u h h h h h h h h i x h l b g N K g > - - * $ = d Z B B G H Z ( T U #.) 2./ / / / / d./ f.f.d./ / / r 1 1 ",
"* , , , u u u u u h 8 h h u M h i v w h h u m h g B g K N 6 r > = 5 7 h B B Z J Z =.B =.#.K 4.) / f./ f.s.s.f./ f./ f./ / L L r ",
", , q t d u t u h 4 h t u M t h h q v u i v i v c g K g k K g 0 , h l v M B G B H B =.( ) 3.K %./ / f./ / f./ f.f./ f.f./ / L L ",
", d t q u u q t u h t h h u h h i h u h h h z h g V g n n c V e 5 v M n B Z Z B Z H A [ X.U #.../ / / / / / d.f./ f./ / / / Q L ",
"t u t , t t q u d h t h h s h u h h d l j h v j b N c N n g V g e l v B Z Z J Z Z J V Y ' K #.Y / / / / / / / / / d.f./ / s./ / ",
", d u u q u u d h q h u u h q h x u v h h B i c N g B b k N g k i v v B H Z G G J c ) V C o.V } f./ f./ / s./ f.f.f./ / s./ / R ",
", t u t t u u u q v q h h q v d h b u v v i n j g B p N N g A p i v v M Z B J J B S b U Y b Y V / / / / / / f./ / f.f.d./ / / / ",
", t u q q t u u d q h d h h d h j i x j h v g j x j c k g N g s r n z v M M Z Z Z n K C S S n B L L / / / / / d./ / / / d./ / R ",
", u t t u u h d u u h u u h u h h d v h h v h v c x x c M M g g 0 k c N K N M K N x A N N A N A L L K L ( [ [ ;.[ ;.;.8.8.[ [ B ",
", d t t d u d u u h 9 h h q v h d v u v h u M h x x x x c M g f 0 x c M c c M M M ) b A A g K N K L K L L L [ [ [ ;.[ ;.=.[ [ m ",
", h u u d u u u u q h u u v u v v u M h h M u v x c x x x N v g 0 n c c c c M b A g ) M M A g A z z z L J L ( ( ;.;.[ =.=.[ [ l ",
"q h t u u u u u u u u u h u h h h h h h h u v h x v c g g N v g > n N c c M K N N B M A N b N N z L z L L H ( [ [ ;.( [ ( [ =.l ",
", u u u u q u h u h q u h d h h d j i h h i h h x v c g g M c g y c b c c c b c M N c B A M B N L K V L L R ( ( ( [ ( ( ( [ [ l ",
", q u h d q u d h q v u u v q v j t v u t h u v g x x g c x g g y c c c b k b c N g A M N ) g K z z m L C L L L J ( ( [ ( J J l ",
"* , , d u u u d u v q h h u v d d c w j h q M h c x c g g s 3 3 > e y g M c c c c N d N A g K N L K m L C R L L J J J ( C l l r ",
"@ , , , d u h u h q d u d v d h j d j i h l h v M x g g g 5 : & - > > y c g k c M g b M N B c N z z m m C C C J Z m m C l 5 < $ ",
"X @ , q u u h u h u h h h h u h j d g d g c g v g v g v g > > % + - > p c g c k n c N N N B B c m n b B C J J V Z Z B J l , < $ ",
", q 8 d h h h h u h 8 d h q v q t g 0 g g t v g g v g c g s s 3 > 0 y c c g K c c g g c c N N c b b n n m m B V m L C C C m l r ",
"8 q q u u u h u v q h q u v q u y 8 g t t b s c x c g g v c g y e p y k g y g g c c c c c N c c b m B n b N B A m C m m B B Z a ",
"q u u d d u v d u h u u d u u q t i t y d g b c g g s g c g g t y g g g k g c c c b b b c c c g j z b b b n N B Z Z v Z Z m v l ",
", h u d d d h q 4 u u u u u u q w g w d g g g s s g g g g g g t y k g k c c c g p g g c c c c k k j k k b n b j k b v B m v m h ",
"8 h u u u q q , , , v u q h q d y 0 c y g b 5 > 8 g g g c g g g y k g g c g k > 5 w g c c b c b k c k j b b p 6 1 j b l l M m p ",
"q v d u u u q * X 4 4 u u , v u t g 0 g g t w + : t g g g g g y y c c k c g y > > 6 g j j c k j k k k j z k e - < j b l l z M r ",
", q 8 8 q q , @ X , q 4 , q 4 q t 0 0 2 w d > + % > 0 t s 9 t 5 > 0 e y y 0 6 - % 1 t g g p i y e i i p g i 1 # = w t a h a i 7 ",
", q 7 , , 8 , o @ , 4 4 5 5 5 2 4 3 3 5 0 w > % > > 0 0 w e e > > y y y e 0 > > # 5 e i p j j j u p h h d t < # # r a h a a a 1 ",
"q l u u d i q # # , t u i d d t t t w t g g > + > > p y d g p 0 0 g g p g g y > # 5 h j x l l h j b n B B l 7 = ; a v m z l l 7 ",
"t u w q u t q # @ , t u u u i i d d s d s y > > > > y y t e t 0 0 g p g g k g 6 = e c v x j j a h j l v M v r < 1 h l l l a a 7 ",
"q u q t u u i , , w u a h h h d d d t t y y y > w g g p y y t e 0 p y g g g k e y j b c h h j j l j j v n m v a a m b b l a i 7 ",
"u u u u u t h t i i h h h h h s d d d u s y p d g d y p p p y y t c g c c g N g c c x j g g g g v l c v b B B Z M m h l l a a 7 ",
"q u q u t q t t h t q w d d d u t t d d y t t y y w 0 e y y y t e g c M M g b c x x j j x c c g h h j c b v v n l l i a h a i 7 ",
", q q u u t h u h h u h d x h d u u w i y t 0 y d y y g g e 6 6 2 0 t g g g g g g g g g g c g g v j c M n n v n v m l v l a r , ",
"% * , q u t u u u u u h h h d f x d w t d d d y y y p g y > - - & > > g g g g g g g g g d d g g v j d c v b v v h l l l u , ; $ ",
"@ @ , 9 s d d s f s f s s f d f h u i q q i t i y g g p 6 & + + # + : 0 g s g g g s g s g g g g d d f x c l j j l h r l 7 $ @ o ",
", , , 9 s s d s s f s f f s v s s x q i s q j u y y g g y 3 > > > > 5 t g g g g g v w g g 9 v g j g g j x j j j h h u a u , 1 $ ",
", t d d s u u s f 9 f s s v t h h q h q q h q h t y p g g y 0 0 8 0 d g g s g g g y c y g M s M x g g j j j h d h i u h i w u 7 ",
"s f f d s s f h f f s f f s x f d h q t e t i t y s y g g g p 0 w d g d f g g g g g s g g g g g x x j g d d h d i a r i u d a 7 ",
"s s f s f h f h f f s f f f v h s h q u t q i t p s p p p p y 0 y g g s g g x f g v g g g g g g x g f d h i i d u p u r u u a , ",
"s s f f s h h f f s v f f M s v x q h q q h 5 i t p y y y i y 0 s g d s g c v g g y g s s M s x g g d d i h d i u i w u r r a , ",
"s f f f s f f f s v s v f s M s d v q i i 5 h q t t y t y i i e y y g g g x x g g M 9 g g s M g d g d d h i h i i u q u u q i 7 ",
"9 s f f s f f f f f v f f f s h h u h w q u 5 w 0 t t e t y i t s g g g g g g f g s g g s g g g d d t d i h i i i w 7 u u q u 7 ",
"9 s f f f s x f f f x h f v f x s s s t t t 9 w t t t s t t t s u u h h h u h h h u h h h h h h y y t y d d y y y d s y 0 y y > ",
"s h h h f f x f f x 9 x v s v f d d d s t t t t t t t s s s t d h u u s h h h h h h 8 h h t h i d t y t y d d y y y y y 0 y f > ",
"s f f s f f v f f 9 x f s M 9 f d f d d s s t s s t t s d s s s u u u h h h h u h q h u u h q h g y t s s d y y y t t t t s y > ",
"9 f f h f f v s h h s f f s f f d d s s t s s t s t s s d s s s u q t d h h h u u h q d h t s u g s y t y y y t s y t t 0 y s > ",
"9 h f v h h v f h h s h x s h f d d s s u s s s d s t d d s s s q u h h h h h h u h q h h q h u s y t t y y t t d d t t y d y > ",
"9 h f v f f v f M s M s f x s f f f d s s s s f s t u d d s s 9 q q u s d d u h h 8 h u u h 8 h g y t t t y t w s > y s t > s > ",
", , s f v f v f f M s h h w v s h f d s u s d d t s s s t 4 : : , , 4 q u h d h u h q h h 8 h i y y t t t y t t y t y s > > > > ",
": : , s M v v f f f h s f f s f d d s u t u s s s s s t 4 : @ O @ @ , 4 q h h h d q h h i h q s s w t t t y t t s 0 y s > > + + ",
"O : > s v v M g v f h v f s s f d h d s s s d d u s s 9 , , @ X X O , 8 u u h h d d g d d d s h g g y g d s y y y y s s > > + . ",
": 9 9 f v f x d f f d d f s s s s d s t u s s u t s s t 9 , , , , , , q u u u t 9 t t y u w t t y y s y y y y t 0 t > s s > > - ",
"s f f f v f x f v f s s d t t d s s s s t s s t t t 9 9 9 s q 9 4 q q t u t t u w t t w t w t w y y y y y t t t t > > y 9 0 > > ",
"f v f x f f x f f f f s d s s t s s t t u s s u 9 9 9 9 9 9 t 9 q 4 8 q t t t q t t w 8 8 t w w 9 s s y t t t t 0 y y > 0 s s > ",
"s x f f f d f s 9 t s s s s t t t 9 q t s s 9 , 4 9 9 9 9 9 9 , q , , q q q 8 , > 9 9 0 0 0 t s 0 y y 9 y 9 0 > > y s > > > y > ",
"f x f f f s s 4 : 4 t s s s s t s u t 9 9 s , : , , 9 t 9 u t 9 q t u q t q 8 , + > 9 y y s y y > s y 9 s > > > > 9 > y 9 0 y > ",
"d x f f f s 9 : % 2 t s t t s s s s s s s 9 : O @ , 9 t u u u t q u t t u q , , . > 9 t y y y > 9 y 0 0 s s > + . > s > > y s > ",
"9 f s d f s 8 O : : t t 9 9 t w s 9 9 9 9 4 : X O , 8 9 , 9 9 , q , 8 q , , , @ . > > 9 > > 0 9 > > 0 > > > >   . > > s > > > > "
};
