/* XPM */
static char *cbf9004631cc444781fc2fde9978f060a5Fc3NXjNIpUZw1P[] = {
/* columns rows colors chars-per-pixel */
"64 64 238 2 ",
"   c #391200",
".  c #280000",
"X  c #593B27",
"o  c #4B2F19",
"O  c #67462B",
"+  c #5A5A5A",
"@  c #665854",
"#  c #5E605D",
"$  c #7A6757",
"%  c #676651",
"&  c #6C6C6C",
"*  c #646469",
"=  c #757768",
"-  c #727272",
";  c #7D7C7C",
":  c #7F7774",
">  c #74716E",
",  c #9E5918",
"<  c #B45811",
"1  c #AB4F0E",
"2  c #B36F1B",
"3  c #A45C26",
"4  c #99683C",
"5  c #95602C",
"6  c #A86B2A",
"7  c #B8692B",
"8  c #B76B35",
"9  c #AE743E",
"0  c #B37238",
"q  c #915928",
"w  c #C05D08",
"e  c #C86511",
"r  c #DB7828",
"t  c #CC7832",
"y  c #8B6859",
"u  c #946E4B",
"i  c #A6774B",
"p  c #B57D56",
"a  c #AC7953",
"s  c #857867",
"d  c #837978",
"f  c #917867",
"g  c #B17F64",
"h  c #7A8074",
"j  c #DB8B36",
"k  c #EF882B",
"l  c #E68535",
"z  c #FC8F34",
"x  c #B2865F",
"c  c #B7804C",
"v  c #87847A",
"b  c #9B8879",
"n  c #A78767",
"m  c #B58765",
"M  c #B98C76",
"N  c #BE9076",
"B  c #D68849",
"V  c #D5935A",
"C  c #CD8652",
"Z  c #FD9C45",
"A  c #F69D56",
"S  c #E79757",
"D  c #EDA25D",
"F  c #FCA75A",
"G  c #FFA74F",
"H  c #C59E78",
"J  c #E59A60",
"K  c #DCA779",
"L  c #CFA979",
"P  c #EBA56C",
"I  c #F7A865",
"U  c #F7AB75",
"Y  c #EDB37A",
"T  c #FFB672",
"R  c #F4B37C",
"E  c #FEBC7D",
"W  c #FAB778",
"Q  c #E5AB73",
"!  c #FFC27E",
"~  c #867E89",
"^  c #7A8988",
"/  c #758C96",
"(  c #7795A2",
")  c #8D8C86",
"_  c #8C8C8C",
"`  c #858787",
"'  c #928C86",
"]  c #8C918C",
"[  c #87928A",
"{  c #94948D",
"}  c #99928F",
"|  c #898D94",
" . c #838D93",
".. c #968C93",
"X. c #8B9295",
"o. c #89949A",
"O. c #939494",
"+. c #999596",
"@. c #939995",
"#. c #9B9699",
"$. c #959B9B",
"%. c #9C9C9C",
"&. c #959699",
"*. c #A39A97",
"=. c #A19D99",
"-. c #A09792",
";. c #AC968E",
":. c #98A29D",
">. c #8FA090",
",. c #A1A39D",
"<. c #B5AD9A",
"1. c #8695A2",
"2. c #969CA4",
"3. c #8C92AF",
"4. c #A49FA3",
"5. c #B59DAA",
"6. c #9CA4A3",
"7. c #94AAA9",
"8. c #8CA7B5",
"9. c #8BACB4",
"0. c #A4A5A5",
"q. c #ADADAC",
"w. c #A8A9A8",
"e. c #B3ACAD",
"r. c #BEADA5",
"t. c #B4B2AE",
"y. c #AAAEB4",
"u. c #A1ADB3",
"i. c #B1AFB3",
"p. c #ACB3B5",
"a. c #A7B7BA",
"s. c #B3B4B4",
"d. c #B3B5BA",
"f. c #B5BBBC",
"g. c #BBBBBB",
"h. c #BAB6B7",
"j. c #C5A895",
"k. c #D5B994",
"l. c #DCAD89",
"z. c #E9B588",
"x. c #FFBE83",
"c. c #FCBE8B",
"v. c #F7B887",
"b. c #E5B998",
"n. c #EFB38E",
"m. c #CBB9AC",
"M. c #C3BDBD",
"N. c #C6BAB7",
"B. c #CFB3AF",
"V. c #BCC1BB",
"C. c #ABC0BB",
"Z. c #FFC384",
"A. c #FEC48B",
"S. c #F8C68B",
"D. c #FFC592",
"F. c #FFCB95",
"G. c #FFCC9B",
"H. c #FBC399",
"J. c #F3CD99",
"K. c #C2C4BD",
"L. c #CEC3A5",
"P. c #F8CAA1",
"I. c #FFD5A9",
"U. c #FFE5BF",
"Y. c #82BFDC",
"T. c #ACBAC3",
"R. c #A0BCCA",
"E. c #BBBDC2",
"W. c #B2BCC4",
"Q. c #C3BFC3",
"!. c #96C2D1",
"~. c #98CACB",
"^. c #A9C2CB",
"/. c #B5C2C4",
"(. c #BDC2C3",
"). c #BCC9C8",
"_. c #BED2D7",
"`. c #AAD4E4",
"'. c #BFE3F3",
"]. c #C3C3C4",
"[. c #C4CCCB",
"{. c #CBCCCB",
"}. c #C9C7C7",
"|. c #C8D4CA",
" X c #D7D4CA",
".X c #C6CAD5",
"XX c #D4CDD3",
"oX c #C8D7D8",
"OX c #D3D4D2",
"+X c #D8D6D4",
"@X c #D5D9D6",
"#X c #DADCD7",
"$X c #DBDDDC",
"%X c #D6D6D9",
"&X c #D6CCCA",
"*X c #E4DDDC",
"=X c #E7D9D7",
"-X c #F0DCCD",
";X c #DAE2DD",
":X c #D2F2DD",
">X c #FFE4CA",
",X c #E9E4DB",
"<X c #FBEBDE",
"1X c #F3E7D6",
"2X c #FFF0D5",
"3X c #D5DEE2",
"4X c #D7D8E0",
"5X c #C6D5E2",
"6X c #DBE5E5",
"7X c #DAEBF1",
"8X c #D4ECEE",
"9X c #E3E5E3",
"0X c #ECE5E3",
"qX c #E5EBE5",
"wX c #EBECE5",
"eX c #E4EAEB",
"rX c #ECECEC",
"tX c #E5E6E8",
"yX c #F2EDEC",
"uX c #F4EAE6",
"iX c #EDF2ED",
"pX c #EEF9EA",
"aX c #F4F3EC",
"sX c #FDF5ED",
"dX c #FEFBEC",
"fX c #F6F5E6",
"gX c #E9EAF3",
"hX c #F5EEF8",
"jX c #ECFBFC",
"kX c #E7F6F7",
"lX c #F4F5F4",
"zX c #FAF5F5",
"xX c #F5FAF5",
"cX c #FDFCF4",
"vX c #F3F6FB",
"bX c #F4FCFD",
"nX c #FFFFFF",
"mX c #FAF6F8",
/* pixels */
"nXnXnXnXnXnXnXnXnXnXnXnXnXnXnXnXnXnXnXnXnXnXnXnXnXxXnXmXnXnXnXbXzXnXnXnXbXnXzXnXnXnXnXnXnXnXnXnXnXnXnXnXnXnXnXnXnXnXnXnXnXnXnXnX",
"nXnXnXnXnXnXnXnXnXnXnXnXnXnXnXnXnXnXnXnXnXnXnXnXmXnXnXlXmXrXnXnXnXnXlXmXlXnXnXmXnXnXnXnXnXnXnXnXnXnXnXnXnXnXnXnXnXnXnXnXnXnXnXnX",
"nXnXnXnXnXnXnXnXnXnXnXnXnXnXnXnXnXnXnXnXnXnXnXnXnXnXnXmXnXnXnXlXlXnXnXnXbXnXnXnXnXnXnXnXnXnXnXnXnXnXnXnXnXnXnXnXnXnXnXnXnXnXnXnX",
"nXnXnXnXnXnXnXnXnXnXnXnXnXnXnXnXnXnXnXnXnXnXnXnXrXlXnXnXnXnXnXnXnXnXmXnXmXnXlXrXnXnXnXnXnXnXnXnXnXnXnXnXnXnXnXnXnXnXnXnXnXnXnXnX",
"nXnXnXnXnXnXnXnXnXnXnXnXnXnXnXnXnXnXnXnXnXnXnXnXnXnXnXnXnXnXnXmXmXnXnXnXnXnXnXnXnXnXnXnXnXnXnXnXnXnXnXnXnXnXnXnXnXnXnXnXnXnXnXnX",
"nXnXnXnXnXnXnXnXnXnXnXnXnXnXnXnXnXnXnXnXnXnXnXnXlXnXmXnXnXnXnXmXnXnXnXnXnXmXnXxXnXnXnXnXnXnXnXnXnXnXnXnXnXnXnXnXnXnXnXnXnXnXnXnX",
"nXnXnXnXnXnXnXnXnXnXnXnXnXnXnXnXnXnXnXnXnXnXnXnXbXnXnXtXw._ _ 0.0.` X.w.tXnXnXmXnXnXnXnXnXnXnXnXnXnXnXnXnXnXnXnXnXnXnXnXnXnXnXnX",
"nXnXnXnXnXnXnXnXnXnXnXnXnXnXnXnXnXnXnXnXnXnXnXnXnXtXw._ - ; - - - - d - _ w.tXnXnXnXnXnXnXnXnXnXnXnXnXnXnXnXnXnXnXnXnXnXnXnXnXnX",
"nXnXnXnXnXnXnXnXnXnXnXnXnXnXnXnXnXnXlXnXmXnXmXnX$._ : = @.@.2.2.4.+.+.} : > { =.bXvXnXcXnXvXnXcXnXnXnXnXnXnXnXnXnXnXnXnXnXnXnXnX",
"nXnXnXnXnXnXnXnXnXnXnXnXnXnXnXnXnXnXnXnXnXnXnXmX# d ..5.M.N.N.N.f.f.(.(.E.y.| * vXnXnXmXnXnXbXxXnXnXnXnXnXnXnXnXnXnXnXnXnXnXnXnX",
"nXnXnXnXnXnXnXnXnXnXnXnXnXnXnXnXnXnXnXlXnXlXnX0.;  .<.h.[.oX@X4X).).[..X4X7X.X2.w.nXzXnXlXnXnXbXnXnXnXnXnXnXnXnXnXnXnXnXnXnXnXnX",
"nXnXnXnXnXnXnXnXnXnXnXnXnXnXnXnXnXnXnXlXnXnXnX* 7.[ v v = h = = |.;X;Xq.d : d = $ cXnXnXlXnXnXnXnXnXnXnXnXnXnXnXnXnXnXnXnXnXnXnX",
"nXnXnXnXnXnXnXnXnXnXnXnXnXnXnXnXnXnXmXnXnXmXyX& ..y a g m M g x = $ s f g n x c u 1XvXvXnXnXnXnXnXnXnXnXnXnXnXnXnXnXnXnXnXnXnXnX",
"nXnXnXnXnXnXnXnXnXnXnXnXnXnXnXnXnXmXnXlXg.w.e.* ~ $ K v.G.S.v.Z.l.;.M l.z.Z.! W u j.u.T.lXcXmXnXnXnXnXnXnXnXnXnXnXnXnXnXnXnXnXnX",
"nXnXnXnXnXnXnXnXnXnXnXnXnXnXnXnXnXnXnXg.%.%.w.+ o.% L Q Q 9 6 2 c.G.I.R 0 , j D q <.#.2.g.cXcXnXnXnXnXnXnXnXnXnXnXnXnXnXnXnXnXnX",
"nXnXnXnXnXnXnXnXnXnXnXnXnXnXnXnXnXnXnXO.f.rXlX& 1.@ K T D.V B l v.v.Z.Y V B V P 6 <XeXT.O.cXnXbXnXnXnXnXnXnXnXnXnXnXnXnXnXnXnXnX",
"nXnXnXnXnXnXnXnXnXnXnXnXnXnXnXnXnXfXcX:.u.bXwX$ # O V F.J.o O l.S.A.F.b.k.X X b.7 U.pX7.e.mXzXbXnXnXnXnXnXnXnXnXnXnXnXnXnXnXnXnX",
"nXnXnXnXnXnXnXnXnXnXnXnXnXnXnXnXnXnXnXX.q.fXH a m C D ! l.    l.A.W S.D.l..   L t H pXu.0.mXnXbXnXnXnXnXnXnXnXnXnXnXnXnXnXnXnXnX",
"nXnXnXnXnXnXnXnXnXnXnXnXnXnXnXnXvXnXnX_ r.>X6 r < k G T S.n i K x.D D U c.a C x.k 5 <Xa.O.mXcXbXnXnXnXnXnXnXnXnXnXnXnXnXnXnXnXnX",
"nXnXnXnXnXnXnXnXnXnXnXnXnXnXnXnXbXnXnX` g.2X8 r z k Z S.v.H.D.x.E E x.U R z.Z.W r i fXW.| nXnXmXnXnXnXnXnXnXnXnXnXnXnXnXnXnXnXnX",
"nXnXnXnXnXnXnXnXnXnXnXnXnXnXnXnXnXzXnX .W.uXb.8 e l I Q p v.D.I c.W x.c.I.G.F.I e n.dXT.o.nXcXnXnXnXnXnXnXnXnXnXnXnXnXnXnXnXnXnX",
"nXnXnXnXnXnXnXnXnXnXnXnXnXnXnXnXcXsXnX .T.gXsXn e B P F.Q 0 < j 4 c R D.n.n.A.U c 2XyXp.@.cXcXnXnXnXnXnXnXnXnXnXnXnXnXnXnXnXnXnX",
"nXnXnXnXnXnXnXnXnXnXnXnXnXnXnXnXnXnXcX] /.eXnXm.e S P x.A.E J P K Y x.c.H.I.v.7 L.zXgXd.{ dXnXnXnXnXnXnXnXnXnXnXnXnXnXnXnXnXnXnX",
"nXnXnXnXnXnXnXnXnXnXnXnXnXnXnXnXkXnXdX' V.wXwXdXe r D x.E x.x.z.A.A.Z.c.c.H.J 7 nXeXgXE.{ fXnXvXnXnXnXnXnXnXnXnXnXnXnXnXnXnXnXnX",
"nXnXnXnXnXnXnXnXnXnXnXnXnXnXnXnXnXnXzX_ g.tXnXlXk.6 k Z ! z.v.! n.P.J.v.R U p k.eXxXrXq.&.nXmXnXnXnXnXnXnXnXnXnXnXnXnXnXnXnXnXnX",
"nXnXnXnXnXnXnXnXnXnXnXnXnXnXnXnXnXlXnXO.w.lX$XlX@X;.x 6 D T I A F A F A 7 a ;. XnX@XbXe._ nXnXmXnXnXnXnXnXnXnXnXnXnXnXnXnXnXnXnX",
"nXnXnXnXnXnXnXnXnXnXnXnXnXnXnXnXnXyXnXO.q.xXrXbX_.5Xp.u 3 < 1 9 e 1 1 t u <.}..XbXwXrXf.O.nXnXmXnXnXnXnXnXnXnXnXnXnXnXnXnXnXnXnX",
"nXnXnXnXnXnXnXnXnXnXnXnXnXnXnXnXnXmXnX` Q.qXnX$X . .v b j.B.j.r.q.m.m.;.' ` o.2.OXnX$Xh.+.nXmXnXnXnXnXnXnXnXnXnXnXnXnXnXnXnXnXnX",
"nXnXnXnXnXnXnXnXnXnXnXnXnXnXnXnXnXnXmX_ g.tX$X0.9.V.U.K.6.( o._ 8.( / 1.4XhX5X9.6.qXiXi...nXlXnXnXnXnXnXnXnXnXnXnXnXnXnXnXnXnXnX",
"nXnXnXnXnXnXnXnXnXnXnXnXnXnXnXnXnXnXnX%.q.mX6.@.Y._.dXdX8X8XjX-X1X|.:XjXzXmXvX~.w.O.nXi._ nXnXnXnXnXnXnXnXnXnXnXnXnXnXnXnXnXnXnX",
"nXnXnXnXnXnXnXnXnXnXnXnXnXnXnXnXmXnXnX#.s.;XO.f.`.7XcXsXjX9XcX1XuX2X1X1X,X*XnX7X@X+.6Xs.X.nXnXmXnXnXnXnXnXnXnXnXnXnXnXnXnXnXnXnX",
"nXnXnXnXnXnXnXnXnXnXnXnXnXnXnXnXnXnXnX` }.%.0.OX1XyXrX,X<X} _ 1./ $.` +.pXqXeXuXbXOX+.h.{ mXnXnXnXnXnXnXnXnXnXnXnXnXnXnXnXnXnXnX",
"nXnXnXnXnXnXnXnXnXnXnXnXnXnXnXnXrXnXnX4.y.| T.5XrX| Q.XX..%X@X6X0X$X4X6X=.&X#.%XkX8X` y.%.nXnXxXnXnXnXnXnXnXnXnXnXnXnXnXnXnXnXnX",
"nXnXnXnXnXnXnXnXnXnXnXnXnXnXnXnXnXnXlX&.W.2.u./.oX| d.}.` 3X[./.K.f.^.6X_ $X&.W.oXoXo.g.#.mXbXnXnXnXnXnXnXnXnXnXnXnXnXnXnXnXnXnX",
"nXnXnXnXnXnXnXnXnXnXnXnXnXnXnXnXnXmXnX..d.X.u.W.C.^ p.|...6X).C.#X[.^.5X] qX@.a.oX/._ h.#.nXmXnXnXnXnXnXnXnXnXnXnXnXnXnXnXnXnXnX",
"nXnXnXnXnXnXnXnXnXnXnXnXnXnXnXnXmXxXnX2.i.X.y.).;X6.f.(.%.@X;XeXOX6X6X@X:.|.` _.kX|.X.e.+.nXnXlXnXnXnXnXnXnXnXnXnXnXnXnXnXnXnXnX",
"nXnXnXnXnXnXnXnXnXnXnXnXnXnXnXnXnXbXnX&.y.%.(.[.rX+.].XX&Xq..._ -.O.| 6.,XsX' ].xX;X,.q.O.nXnXnXnXnXnXnXnXnXnXnXnXnXnXnXnXnXnXnX",
"nXnXnXnXnXnXnXnXnXnXnXnXnXnXnXnXnXnXnXe.w._ h.|.zX' e.M.zX*X0XyX=XrXhX*XcX=Xd %XxX#X` w.q.nXnXnXnXnXnXnXnXnXnXnXnXnXnXnXnXnXnXnX",
"nXnXnXnXnXnXnXnXnXnXnXnXnXnXnXnXvXnXnX0XM.d q.OX X%.g.{.nXaXlXrXzXyXvXeXcX,X` ].aX+X- V.,XnXnXvXnXnXnXnXnXnXnXnXnXnXnXnXnXnXnXnX",
"nXnXnXnXnXnXnXnXnXnXnXnXnXnXnXnXnXnXlXnXaX%.s.{.{ [ V.].;XiXxXpXaXeXjXbXwX,X; o.aX,X) iXnXnXmXnXnXnXnXnXnXnXnXnXnXnXnXnXnXnXnXnX",
"nXnXnXnXnXnXnXnXnXnXnXnXnXnXnXnXnXiXnXtXnX%.w.OX,XxX[ V.qX@XpXrXqX,XiXqXiX;X` {.wXrX` nXnXbXnXnXnXnXnXnXnXnXnXnXnXnXnXnXnXnXnXnX",
"nXnXnXnXnXnXnXnXnXnXnXnXnXnXnXnXnXvXnXnXnXw.w.{.qXlX` q.$X#X{.].OX{.|.[.M.K.) OXlXOX:.nXnXnXmXnXnXnXnXnXnXnXnXnXnXnXnXnXnXnXnXnX",
"nXnXnXnXnXnXnXnXnXnXnXnXnXnXnXnXnXnXnXnXnXrX].0.M.OX+.M.*XrXrXmXwXaXwXnXaXwX{ w.f.{.yXlXnXnXnXnXnXnXnXnXnXnXnXnXnXnXnXnXnXnXnXnX",
"nXnXnXnXnXnXnXnXnXnXnXnXnXnXnXnXmXnXnXnXnXnXrXw.` _ q.%XaXlXmXrXlXcXqXsXwX;X; %.h.*XnXnXmXnXnXnXnXnXnXnXnXnXnXnXnXnXnXnXnXnXnXnX",
"nXnXnXnXnXnXnXnXnXnXnXnXnXnXnXnXnXlXnXnXnXlXnXmXmX=.g.Q.tXlXnX%X}.aXqXwXzX*X{ aXnXnXmXnXnXnXmXnXnXnXnXnXnXnXnXnXnXnXnXnXnXnXnXnX",
"nXnXnXnXnXnXnXnXnXnXnXnXnXnXnXnXnXlXnXnXnXlXnXnXnX` ].[.lXrX].0.0.t.{.$XnX,X] nXnXnXiXnXbXnXnXnXnXnXnXnXnXnXnXnXnXnXnXnXnXnXnXnX",
"nXnXnXnXnXnXnXnXnXnXnXnXnXnXnXnXmXnXnXmXnXnXnXrXnXo.(.[.gXrXu.eXqX$.g.[.jX;XX.nX9XnXnXnXzXnXnXnXnXnXnXnXnXnXnXnXnXnXnXnXnXnXnXnX",
"nXnXnXnXnXnXnXnXnXnXnXnXnXnXnXnXnXnXnXnXbXxXmXnXkX6.p./.6X6X; bXbX^ (.).6X[.$.bXnXnXnXnXnXnXmXnXnXnXnXnXnXnXnXnXnXnXnXnXnXnXnXnX",
"nXnXnXnXnXnXnXnXnXnXnXnXnXnXnXnXnXnXnXnXnXnXnXnXnX1.8.!.`.!.o.bXhX1.9.!.`.R.^ nXnXnXnXnXnXnXnXnXnXnXnXnXnXnXnXnXnXnXnXnXnXnXnXnX",
"nXnXnXnXnXnXnXnXnXnXnXnXnXnXnXnXnXnXnXnXnXnXnXnXxX$.T._.kXkXo.lXyX&.T.5XjX7X&.nXnXnXnXnXnXnXnXnXnXnXnXnXnXnXnXnXnXnXnXnXnXnXnXnX",
"nXnXnXnXnXnXnXnXnXnXnXnXnXnXnXnXnXnXnXnXnXnXnXnXsX,.s.[.yXyXv dXaX{ M.}.vX9X) dXnXnXnXnXnXnXnXnXnXnXnXnXnXnXnXnXnXnXnXnXnXnXnXnX",
"nXnXnXnXnXnXnXnXnXnXnXnXnXnXnXnXnXnXnXnXnXnXnXnXcX*.e.Q.yXuX; cXxX) M.Q.zX*X) xXnXnXnXnXnXnXnXnXnXnXnXnXnXnXnXnXnXnXnXnXnXnXnXnX",
"nXnXnXnXnXnXnXnXnXnXnXnXnXnXnXnXnXnXnXnXnXnXnXnXnX@.s.+XnXmX_ bXjX[ ].XXnXeX$.bXnXnXnXnXnXnXnXnXnXnXnXnXnXnXnXnXnXnXnXnXnXnXnXnX",
"nXnXnXnXnXnXnXnXnXnXnXnXnXnXnXnXnXnXnXnXnXnXnXnXbX$.p.f.E.d.o.kXjX[ W.y.E.q.6.kXnXnXnXnXnXnXnXnXnXnXnXnXnXnXnXnXnXnXnXnXnXnXnXnX",
"nXnXnXnXnXnXnXnXnXnXnXnXnXnXnXnXnXnXnXnXnXnXnXnXnXO.q.6.2.0.q.{.rX{ h.$.6.6.q.XXnXnXnXnXnXnXnXnXnXnXnXnXnXnXnXnXnXnXnXnXnXnXnXnX",
"nXnXnXnXnXnXnXnXnXnXnXnXnXnXnXnXnXnXnXnXnXnXnXnXnX} K.|.pXnX,X*.0X-.K.|.dXnX*X*.nXnXnXnXnXnXnXnXnXnXnXnXnXnXnXnXnXnXnXnXnXnXnXnX",
"nXnXnXnXnXnXnXnXnXnXnXnXnXnXnXnXnXnXnXnXnXnXnXnXmX%.` s.g.g.h._ 0X` O.h.g.}.y._ nXnXnXnXnXnXnXnXnXnXnXnXnXnXnXnXnXnXnXnXnXnXnXnX",
"nXnXnXnXnXnXnXnXnXnXnXnXnXnXnXnXnXnXnXnXnXnXnXnXbXh.w.s.w.w.h.e.mXs.q.q.:.q.h.g.nXnXnXnXnXnXnXnXnXnXnXnXnXnXnXnXnXnXnXnXnXnXnXnX",
"nXnXnXnXnXnXnXnXnXnXnXnXnXnXnXnXnXnXnXnXnXnXnXnXnXnXnXnXbXlXnXnXnXmXnXnXmXbXzXnXnXnXnXnXnXnXnXnXnXnXnXnXnXnXnXnXnXnXnXnXnXnXnXnX",
"nXnXnXnXnXnXnXnXnXnXnXnXnXnXnXnXnXnXnXnXnXnXnXnXlXlXmXnXnXnXnXnXlXmXnXnXnXnXnXnXnXnXnXnXnXnXnXnXnXnXnXnXnXnXnXnXnXnXnXnXnXnXnXnX",
"nXnXnXnXnXnXnXnXnXnXnXnXnXnXnXnXnXnXnXnXnXnXnXnXnXnXmXxXnXnXnXbXnXnXlXlXnXnXnXnXnXnXnXnXnXnXnXnXnXnXnXnXnXnXnXnXnXnXnXnXnXnXnXnX",
"nXnXnXnXnXnXnXnXnXnXnXnXnXnXnXnXnXnXnXnXnXnXnXnXnXnXnXmXnXmXxXnXlXnXnXnXnXmXnXmXnXnXnXnXnXnXnXnXnXnXnXnXnXnXnXnXnXnXnXnXnXnXnXnX",
"nXnXnXnXnXnXnXnXnXnXnXnXnXnXnXnXnXnXnXnXnXnXnXnXxXmXnXnXnXnXnXnXnXnXbXnXmXlXnXnXnXnXnXnXnXnXnXnXnXnXnXnXnXnXnXnXnXnXnXnXnXnXnXnX",
"nXnXnXnXnXnXnXnXnXnXnXnXnXnXnXnXnXnXnXnXnXnXnXnXnXnXmXnXnXmXnXnXnXnXzXnXnXbXnXlXnXnXnXnXnXnXnXnXnXnXnXnXnXnXnXnXnXnXnXnXnXnXnXnX"
};
