/* XPM */
static char *_1caddf4fcb841589d8652c7bb7fe5ccxyKZjNXkbCB9bpxX[] = {
/* columns rows colors chars-per-pixel */
"64 64 112 2 ",
"   c #D9D9DB",
".  c #DCDADD",
"X  c #DDDBDE",
"o  c #DEDCDF",
"O  c #DFDDE0",
"+  c #DEDEE0",
"@  c #DFDFE1",
"#  c #E0DEE1",
"$  c #E1DFE2",
"%  c #E1DFE4",
"&  c #E0E0E2",
"*  c #E1E1E3",
"=  c #E2E0E3",
"-  c #E3E1E4",
";  c #E2E0E5",
":  c #E2E2E4",
">  c #E3E3E5",
",  c #E3E1E6",
"<  c #E5E0E4",
"1  c #E4E2E5",
"2  c #E5E3E6",
"3  c #E4E2E7",
"4  c #E7E2E6",
"5  c #E4E4E6",
"6  c #E5E5E7",
"7  c #E6E4E7",
"8  c #E8E3E7",
"9  c #E5E3E8",
"0  c #E7E5E8",
"q  c #E6E4E9",
"w  c #E6E6E8",
"e  c #E7E7E9",
"r  c #E7E5EA",
"t  c #E9E4E8",
"y  c #EAE5E9",
"u  c #E8E6E9",
"i  c #E9E7EA",
"p  c #E8E6EB",
"a  c #EBE6EA",
"s  c #ECE7EB",
"d  c #E9E7EC",
"f  c #E8E8EA",
"g  c #E9E9EB",
"h  c #EAE8EB",
"j  c #EBE9EC",
"k  c #EAE8ED",
"l  c #EAEAEC",
"z  c #EBEBED",
"x  c #EBE9EE",
"c  c #EDE8EC",
"v  c #EEE9ED",
"b  c #ECEAED",
"n  c #EDEBEE",
"m  c #ECEAEF",
"M  c #EFEAEE",
"N  c #ECECEE",
"B  c #EDEDEF",
"V  c #EEECEF",
"C  c #F0EBEF",
"Z  c #EDEBF0",
"A  c #EFEDF0",
"S  c #EEECF1",
"D  c #EEEEF0",
"F  c #EFEFF1",
"G  c #EFEDF2",
"H  c #F1ECF0",
"J  c #F2EDF1",
"K  c #F0EEF1",
"L  c #F1EFF2",
"P  c #F0EEF3",
"I  c #F3EEF2",
"U  c #F4EFF3",
"Y  c #F1EFF4",
"T  c #F0F0F2",
"R  c #F1F1F3",
"E  c #F2F0F3",
"W  c #F3F1F4",
"Q  c #F2F0F5",
"!  c #F2F2F4",
"~  c #F3F3F5",
"^  c #F3F1F6",
"/  c #F5F0F4",
"(  c #F6F1F5",
")  c #F4F2F5",
"_  c #F5F3F6",
"`  c #F4F2F7",
"'  c #F7F2F6",
"]  c #F4F4F6",
"[  c #F5F5F7",
"{  c #F6F4F7",
"}  c #F8F3F7",
"|  c #F5F3F8",
" . c #F7F5F8",
".. c #F6F4F9",
"X. c #F6F6F8",
"o. c #F7F7F9",
"O. c #F7F5FA",
"+. c #F9F4F8",
"@. c #FAF5F9",
"#. c #F8F6F9",
"$. c #F9F7FA",
"%. c #F8F6FB",
"&. c #FBF6FA",
"*. c #FCF7FB",
"=. c #F9F7FC",
"-. c #F8F8FA",
";. c #F9F9FB",
":. c #FAF8FB",
">. c #FBF9FC",
",. c #FAFAFC",
"<. c #FBFBFD",
"1. c #FCFCFE",
/* pixels */
"T T T T T ! ! ! ! ! ! ! ! T T T F F F B B F F B N l B F l F N 5 l N S d q q d Y G Y | ` Y G Z r d z S M 3 = = = O O O = 2 = = 8 ",
"T ! T ! ! ! ! ] ! ] ! ! T ! T T F F B F F B B F F N F T F T T 5 d F S d q , d S Y ` | %.| ` S S z M M z l 3 = = = O O = 2 = = 2 ",
"! ! ! ! ! ] ! ] ] ! ] ! ! ! T T F F F B B F F F ~ F ~ ~ T ~ ~ e z Z Z d q , r Z Y ` | =.=.| Y G M z z M j l 8 3 j = X O 2 2 7 2 ",
"! ] ! ] ] ! ] ! ! ] ! ! ! T ! T B F B F F B F F ~ T ~ ~ T ~ ~ e Z S S Z d q q d S G | | | | ` G F M z z C B l 3 8 = O = 2 7 2 7 ",
"] ! ] ! ] ! ! ] ] ! ! T T T T T B F N B F F T T T T ~ ~ T ~ T 5 G G Y G Z d r d Z S G | | Y Y Y F S i M F F z 3 = & 2 8 7 = 7 e ",
"! ] ! ] ! ! ! ! T T ! F T T F F F B B B B T T T T F T T B T F > G Y Y G S d d d S S G Y ` ` | ` ! M l z S M M i & & 7 8 7 = = 8 ",
"] ! ! ! ! ! T ! T T F F F B B B B B B B F F T T T B T ~ B F B = S G G Y S Z d d G G G G Y Y ` | _ K M i l M z z 8 = = 7 2 = = = ",
"! ! ! T T T T T F T F F B B B B B B B B B F T T T F T T B F B > S S G G S Z d r G S S S S Y ` | _ Y B i i i M z B 7 O = = = & & ",
"! T T T ! T ! T z z B z B B F B N B B F B F N B B N T F l N l > d S Y Y G S d q r Z G Y S Z S Y Y ! T M l i z M C l = o = 7 = . ",
"F F T F F B F B z B B B F B F F B N F B F B F B F N F F e l N > Z S S S S S S d d Z G G S S S S K K F B j i l M l 8 7 = = = = = ",
"T F F F B B z B B B B B F F F T B F F F F B F N T N F B e N N 5 d Z S d d G S S r d S G G S d Z M F F M M i s l 7 8 l = o o = l ",
"! T T F B B B B B B B F B F F F B F F F F F B F T N B l e N B 7 r d Z Z Z G S Z q r d S G S S Z z M B M M l i 3 7 l 8 7 o o = 7 ",
"T T T T F B B z B B B F F F F F T T T T T F B F T N N N l B B 5 q d S Z Z S Z r q q r Z G Y G S z z F M M z l i M j 7 7 = = o = ",
"T T F F B B z B B F B F F F T T T T T ~ T F F B T N N l l B B 7 , r Z S S S Z r r , q d G Y G S M M N M K B l i B l i 7 7 = o . ",
"F F F F F B F F T T T ! ! ! ! ] ~ ~ ~ T T T F F F l l N B B F = % q d d Z G S Z Z d q r G | Y S F M z F B C M i l i 7 i 8 = = . ",
"T ! T T ! T T T ! ! ] ! ] ] X.] T ~ ~ ~ T T F B F l N N B T B = % q d r d G Y G G d q r S Y G S F S z M F F M j 7 i i l l 7 o o ",
"! ! ! ! ] ] ] ] ! ] ] ] ] X.X.X._ K K _ ! M z K z z i M T ! j $ $ $ t c s t C } U C s y s C U / M F z S z M z M z z j i j 8 3 = ",
"! ] ] ] ] ] X.] X.] ] X.X.X.X.X.! _ K F K K K K M B K M M F j 3 t 8 t c c y C / U C s s s C C U F M B M B M M N z d d i i i 3 = ",
"X.] X.] X.X.X.X.X.-.X.X.X.X.X.X.K _ _ M M _ _ i M F K B z z i 3 c t 8 s c c C C / C C s s C C U K K F F M B z M z d M i j l 8 7 ",
"X.-.X.-.-.X.-.X.-.-.-.-.X.X.] X.T _ K M F _ K i K K K M z M d i C c y s s C c C / U C c s s C U Y K K F F M B M z c l z B j l 7 ",
"-.-.-.-.-.-.-.-.,.-.-.X.X.X.X.] _ K K _ X.K M M ! K M d M K z > I C c c s C c s U U U C c s C C U K K ! K K K S M B B M M B B j ",
",.-.,.-.-.-.-.-.-.-.X.-.X.X.] ] %.E E %.%.K F ! _ K z d B T M 7 / C C a y c c C C U U C C C C C K _ K ! K K K K T B M B C B B M ",
"-.,.-.,.-.-.X.-.X.X.X.X.] X.] ] _ } _ _ F M K X.F F M z B K M 7 C / I c 8 s C C c U } / C C C C K _ K U _ ! U _ _ K K K K K C B ",
",.-.,.-.-.X.-.X.X.X.] X.] ] ] ] T -._ i 3 z _ _ M F T M M F M l C / / c 8 y C C s C / } U C c C T K _ K U _ _ ! _ K K K K K C B ",
",.,.-.,.,.-.-.X.X.-.X.-.X.X.X.X.E C B M K K K K K K K M B K M 7 t / +.C t C C C C s C +.} C s c K E _ ] _ E _ ] ] %._ T _ K K K ",
",.,.-.-.-.-.] ] ] ] ] ! ] ! ! ! _ C M l B _ _ K K K K F C K B 7 c v C C c a a C U C C / } U C C B C T E T T E ] _ E _ ! K K B M ",
"1.,.-.,.,.-.-.] ] ] ! ] ! ! ! T E B l l B K T _ F F K M B K M 8 +.C c +.} t 8 C U C C C U } ( C B K E } } ] ] } _ } } } _ _ K K ",
",.,.,.,.,.,.X.X.] ! ! ! T T T T K M j l C K _ Y z M M l j B l 3 *.C C +.+.c t C C U C c C +.} C C K _ ] %.} } } _ _ -.-.%._ _ K ",
",.-.-.-.-.X.] ] ! T ! T F F B B M M M K ! ! K F M S M z M F z 3 } } C U / I c t s U } U U } +.U B K K _ } ] } ] E ] ] -.} %.E E ",
"1.,.,.,.,.,.-.X.X.] ! ! T F F F z B ! ! _ _ F F B F F M F K M i } *.} C C +.( c s U %.@.} } +.@.E E E _ %.-.-.-.%.-.-.*.-.-.-.} ",
"1.,.,.,.1.,.-.X.] ] ! ! ! T F F l M F T K F S M M K M z M F S e } *.} U U } +.U C C ( +.} } _ } ] _ _ _ } -.*.-.} *.%.*.>.*.-.*.",
"X.X.] ] ] ] ! T B B B z z e e e i l M M M z s M z i z i z M z 3 K K U j s C U C C s v _ } K K _ _ F M M K E _ ] E E _ _ _ _ ] ] ",
"N l N l l e e e > > > > > > > > 6 6 5 5 > 5 5 e 5 e 6 5 5 5 @   7 7 7 5 7 5 = @ 7 5 7 5 7 e e l e e e e e e e 7 e 6 e 6 e e e 6 ",
"N B F F F F F N N N N N N N N N B B l l l N N B g l g e g N e @ B B N B B N l e e g N N F F B F F B B F B F B F N l N l l l N l ",
"F F T R ~ R ~ ~ T T T T T T T T T F F N N N B B N B N N F T N e B B F F T N l e 5 e N F T T F F F F F F F F F F F F F F F F F F ",
"F F T R R T R T F F F F F F F T F F F B N N l l N F N N F F l 5 M N B T F F e 7 5 7 e l N N N B B F B F B F B F F F F F F F F F ",
"F T T T T T T T T R R R R R R R ~ R T R T T F F N F N l N B g > F T T ~ ~ T F l e l e l N B F T T T T T T ~ T ~ T T T T T T T T ",
"T T R T R R T T R R R R R T R R T ~ ~ ~ R T T F T T T N N B g 5 T F T T T ~ T F N l l l l N F T F T T T T ~ ~ ~ R R T T T R R R ",
"F T T R R R R R F F T F F F F F F T T T T T F F F T F N F F N 5 F N N B F T T T l l l l l l e l N N F B F T T T ~ ~ ~ ~ ~ ~ ~ ~ ",
"l N N T T R R T R ~ R ~ R ~ R ~ F T T R R ~ T T N F F B T T N e F F N B T ~ ~ ~ N N F F B l e e F F F F T T T ~ T T R T T R T T ",
"N N N B B B B B N N B F F T T T N N N F B F F F N B B N N T N e N F F T T ~ T T ~ T F T T T l e l N l N l B ~ ~ T T F F T T R ~ ",
"N N N B B B B B N N N B N F F F F T F F N N l l N N B N F T N e N F F T T ~ T ~ ~ T F F T T F l N N N l N N F T T T F F T T R ~ ",
"N N N B B B B B N l l N N N N N F F B B N N l l N N N N N F l 5 N N B F T T T T T ~ F F F F T T N N N N l N N l F F B T F T T ~ ",
"N N N N B B B B B B N N N l N l l N l N N N B B l l N N B F g 5 N N F F T T T T T T T N N N F ~ N l N l N N l g N N N N N F T T ",
"N N N B B B B B F B F B N N N N N l N N N N B B l N l l N N e > N N N F F F F F ~ T T N l l B T l l g N B B N l l l l l N N B F ",
"N N N B B B B B T T F F F B F N F B F N N l l l l N g e e l e @ N l N F F F F F ~ T B l l l N N N e e l N T F N l l l l l l l N ",
"N N N B B B B B F F F F F F B F F F F B N N N l N N e 5 e g e > l l N B B F B F ~ F l l N B F N F l e l B T F F B N N N l N N l ",
"N N N B B B B B F F F F B F F F B N N F F B F T N N e 5 e e e > l l N B F B F B T N l N F ~ T F T N g g N T F N F F B N N N N N ",
"g N T F N N N T N N B F F F N N B F B F B F B F N N l e e l e * g l l N N F F F F F B B F F T T N T F e e N T B F B B F N B N N ",
"e N F F F B B B B B F F F B B N F B F B F B F B B F B N N F l 5 N B B B F N N N B B B B N B F T N T T l g B T F F F F B N B B N ",
"e g l F T T B N F B N B B B F F B F B F B F B F F F B N N T N e T T T T F F N N N B B B N B F F F T T N l B F F F F B F F B B B ",
"N g e g F T F F F F B N N N B F F B F B F B F B l N N g N N g 5 ~ ~ ~ T T F F N B B B N N B B F F T T F N N F F F F F F F F F F ",
"F l e e N F T F F F N N N B F F B F B F B F B F l l l e l N g 5 T T ~ ~ ~ T T T F F N N N N B B T T T F B N N F F F F T F F T T ",
"F N l e e l N F B F B N B B B F F B F B F B F B N B N l N B l 5 T T T R ~ ~ ~ ~ T F F F F B F F T F F T F l l F F F T T T T T T ",
"F F N l l e l N N B B F B F N B B F B F B F B F F F N l N B l 5 T R R ~ ~ R R ~ R R T F F F F F T F B T F l g F F T T T R R R ~ ",
"N B T F N e e e N B F F F F B N F B F B F B F B F B N l l N e > R T R ~ ~ R T T ~ T T T F F F T F N F T B e e N T T T T R T R ~ ",
"F F F T ~ T e > l B F l N T T B N N B B F F F F N N N g l N e 5 T T T R ~ ~ ~ ~ ~ ~ ~ ~ ~ ~ R ~ T T T ~ ~ F l e ~ ~ ~ ~ T T ~ ~ ",
"F N N F R ~ N e l F T N N T T B N N B B F B F F B F N l l N g 5 T R T ~ ~ ~ ~ ~ ~ ~ ~ ~ ~ ~ ~ ~ T T F F N e > + N F ~ ~ ~ ~ R ~ ",
"B N N T T R F l e F ~ T F F F N B F B F N B B B B F N e l B l 5 R T ~ R ~ ~ ~ [ ~ [ ~ ~ ~ ~ ~ ~ ~ ~ ~ R B l 5 @ e N T ~ [ ~ ~ R ",
"T T F T R R T F l T ~ R F B N F F F F B N B N N N N N g l N g 5 ~ ~ ~ ~ ~ ~ [ ~ X.~ [ ~ ~ ~ ~ ~ [ ~ ~ ~ ~ ~ F N l B R ~ ~ ~ ~ ~ ",
"~ ~ ~ T T T T T N F ~ ~ T F N F T F F F N N N N l N l e e N l 5 ~ ~ [ ~ [ ~ [ ~ [ [ [ [ ~ ~ ~ ~ ~ ~ ~ ~ X.~ ~ T F ~ ~ ~ ~ ~ ~ o.",
"~ ~ ~ ~ ~ ~ R R F B T ~ ~ T B F F F F B B N N N N l l e l N l 5 ~ [ ~ ~ ~ [ ~ [ X.X.X.[ X.X.X.[ [ ~ ~ ~ X.X.~ R ~ ~ [ ~ ~ ~ ~ X.",
"~ ~ ~ ~ ~ ~ ~ ~ ~ N N ~ ~ ~ T T F F B F B B N N N N N l N B N e X.X.[ [ [ [ X.X.X.X.X.X.X.X.[ [ o.o.o.o.o.o.~ ~ T ~ ~ ~ ~ ~ ~ [ ",
"T ~ ~ X.[ [ [ X.~ N l T X.~ R T F B F F B B B N F T B N F T F g X.X.X.[ [ [ [ [ o.o.X.X.X.X.[ X.X.[ X.X.o.o.X.~ N F ~ [ X.~ ~ ~ "
};
